<mxfile host="app.diagrams.net" modified="2023-03-06T10:27:22.142Z" agent="5.0 (X11; Ubuntu)" etag="4iL8-nX-L5rnIwrELg0m" version="20.8.23" type="github" pages="13">
  <diagram name="Page-1" id="ff44883e-f642-bcb2-894b-16b3d25a3f0b">
    <mxGraphModel dx="1360" dy="761" grid="1" gridSize="10" guides="1" tooltips="1" connect="1" arrows="1" fold="1" page="1" pageScale="1.5" pageWidth="1169" pageHeight="826" background="none" math="0" shadow="0">
      <root>
        <mxCell id="0" style=";html=1;" />
        <mxCell id="1" style=";html=1;" parent="0" />
        <mxCell id="J4eRakNXAwgncqQI4Eo2-7" value="模块" style="swimlane;startSize=20;horizontal=1;childLayout=flowLayout;flowOrientation=north;resizable=0;interRankCellSpacing=50;containerType=tree;fontSize=17;strokeWidth=2;shadow=0;fontFamily=Times New Roman;fontStyle=0" parent="1" vertex="1">
          <mxGeometry x="320" y="390" width="290" height="280" as="geometry" />
        </mxCell>
        <mxCell id="J4eRakNXAwgncqQI4Eo2-8" value="标准化对外信息输入" style="whiteSpace=wrap;html=1;strokeWidth=2;shadow=0;fontFamily=Times New Roman;fontSize=16;" parent="J4eRakNXAwgncqQI4Eo2-7" vertex="1">
          <mxGeometry x="75" y="40" width="130" height="40" as="geometry" />
        </mxCell>
        <mxCell id="J4eRakNXAwgncqQI4Eo2-9" value="通用计算实现" style="whiteSpace=wrap;html=1;strokeWidth=2;shadow=0;fontFamily=Times New Roman;fontSize=16;" parent="J4eRakNXAwgncqQI4Eo2-7" vertex="1">
          <mxGeometry x="20" y="130" width="100" height="40" as="geometry" />
        </mxCell>
        <mxCell id="J4eRakNXAwgncqQI4Eo2-10" value="" style="html=1;rounded=1;curved=0;sourcePerimeterSpacing=0;targetPerimeterSpacing=0;startSize=6;endSize=6;noEdgeStyle=1;orthogonal=1;strokeWidth=2;shadow=0;fontFamily=Times New Roman;fontSize=16;" parent="J4eRakNXAwgncqQI4Eo2-7" source="J4eRakNXAwgncqQI4Eo2-8" target="J4eRakNXAwgncqQI4Eo2-9" edge="1">
          <mxGeometry relative="1" as="geometry">
            <Array as="points">
              <mxPoint x="110" y="92" />
              <mxPoint x="70" y="118" />
            </Array>
          </mxGeometry>
        </mxCell>
        <mxCell id="J4eRakNXAwgncqQI4Eo2-11" value="特定硬件计算实现" style="whiteSpace=wrap;html=1;strokeWidth=2;shadow=0;fontFamily=Times New Roman;fontSize=16;" parent="J4eRakNXAwgncqQI4Eo2-7" vertex="1">
          <mxGeometry x="150" y="130" width="120" height="40" as="geometry" />
        </mxCell>
        <mxCell id="J4eRakNXAwgncqQI4Eo2-12" value="" style="html=1;rounded=1;curved=0;sourcePerimeterSpacing=0;targetPerimeterSpacing=0;startSize=6;endSize=6;noEdgeStyle=1;orthogonal=1;strokeWidth=2;shadow=0;fontFamily=Times New Roman;fontSize=16;" parent="J4eRakNXAwgncqQI4Eo2-7" source="J4eRakNXAwgncqQI4Eo2-8" target="J4eRakNXAwgncqQI4Eo2-11" edge="1">
          <mxGeometry relative="1" as="geometry">
            <Array as="points">
              <mxPoint x="170" y="92" />
              <mxPoint x="210" y="118" />
            </Array>
          </mxGeometry>
        </mxCell>
        <mxCell id="J4eRakNXAwgncqQI4Eo2-13" value="标准化输出" style="whiteSpace=wrap;html=1;strokeWidth=2;shadow=0;fontFamily=Times New Roman;fontSize=16;" parent="J4eRakNXAwgncqQI4Eo2-7" vertex="1">
          <mxGeometry x="70" y="220" width="140" height="40" as="geometry" />
        </mxCell>
        <mxCell id="J4eRakNXAwgncqQI4Eo2-14" value="" style="html=1;rounded=1;curved=0;sourcePerimeterSpacing=0;targetPerimeterSpacing=0;startSize=6;endSize=6;noEdgeStyle=1;orthogonal=1;strokeWidth=2;shadow=0;fontFamily=Times New Roman;fontSize=16;" parent="J4eRakNXAwgncqQI4Eo2-7" source="J4eRakNXAwgncqQI4Eo2-9" target="J4eRakNXAwgncqQI4Eo2-13" edge="1">
          <mxGeometry relative="1" as="geometry">
            <Array as="points">
              <mxPoint x="70" y="182" />
              <mxPoint x="107.5" y="208" />
            </Array>
          </mxGeometry>
        </mxCell>
        <mxCell id="J4eRakNXAwgncqQI4Eo2-15" value="" style="html=1;rounded=1;curved=0;sourcePerimeterSpacing=0;targetPerimeterSpacing=0;startSize=6;endSize=6;noEdgeStyle=1;orthogonal=1;strokeWidth=2;shadow=0;fontFamily=Times New Roman;fontSize=16;" parent="J4eRakNXAwgncqQI4Eo2-7" source="J4eRakNXAwgncqQI4Eo2-11" target="J4eRakNXAwgncqQI4Eo2-13" edge="1">
          <mxGeometry relative="1" as="geometry">
            <Array as="points">
              <mxPoint x="210" y="182" />
              <mxPoint x="172.5" y="208" />
            </Array>
          </mxGeometry>
        </mxCell>
        <mxCell id="J4eRakNXAwgncqQI4Eo2-17" value="" style="edgeStyle=orthogonalEdgeStyle;rounded=0;orthogonalLoop=1;jettySize=auto;html=1;shadow=0;strokeWidth=2;fontSize=16;fontFamily=Times New Roman;" parent="1" source="J4eRakNXAwgncqQI4Eo2-16" target="J4eRakNXAwgncqQI4Eo2-8" edge="1">
          <mxGeometry relative="1" as="geometry" />
        </mxCell>
        <mxCell id="J4eRakNXAwgncqQI4Eo2-22" value="RPC/共享内存" style="edgeLabel;html=1;align=center;verticalAlign=middle;resizable=0;points=[];fontSize=16;fontFamily=Times New Roman;" parent="J4eRakNXAwgncqQI4Eo2-17" vertex="1" connectable="0">
          <mxGeometry x="-0.1721" y="3" relative="1" as="geometry">
            <mxPoint as="offset" />
          </mxGeometry>
        </mxCell>
        <mxCell id="J4eRakNXAwgncqQI4Eo2-16" value="&lt;font style=&quot;font-size: 16px;&quot;&gt;模块标准信息格式&lt;/font&gt;" style="rounded=1;whiteSpace=wrap;html=1;shadow=0;strokeWidth=2;fontFamily=Times New Roman;fontSize=16;" parent="1" vertex="1">
          <mxGeometry x="800" y="430" width="192.5" height="40" as="geometry" />
        </mxCell>
        <mxCell id="J4eRakNXAwgncqQI4Eo2-20" style="edgeStyle=orthogonalEdgeStyle;rounded=0;orthogonalLoop=1;jettySize=auto;html=1;exitX=1;exitY=0.5;exitDx=0;exitDy=0;entryX=0;entryY=0.5;entryDx=0;entryDy=0;shadow=0;strokeWidth=2;fontSize=16;fontFamily=Times New Roman;" parent="1" source="J4eRakNXAwgncqQI4Eo2-13" target="J4eRakNXAwgncqQI4Eo2-21" edge="1">
          <mxGeometry relative="1" as="geometry">
            <mxPoint x="740.0000000000002" y="630" as="targetPoint" />
            <Array as="points" />
          </mxGeometry>
        </mxCell>
        <mxCell id="J4eRakNXAwgncqQI4Eo2-24" value="进程内或进程间通讯" style="edgeLabel;html=1;align=center;verticalAlign=middle;resizable=0;points=[];fontSize=16;fontFamily=Times New Roman;" parent="J4eRakNXAwgncqQI4Eo2-20" vertex="1" connectable="0">
          <mxGeometry x="0.1095" y="-3" relative="1" as="geometry">
            <mxPoint x="1" y="1" as="offset" />
          </mxGeometry>
        </mxCell>
        <mxCell id="J4eRakNXAwgncqQI4Eo2-21" value="&lt;font style=&quot;font-size: 16px;&quot;&gt;模块标准信息格式&lt;/font&gt;" style="rounded=1;whiteSpace=wrap;html=1;shadow=0;strokeWidth=2;fontFamily=Times New Roman;fontSize=16;" parent="1" vertex="1">
          <mxGeometry x="800" y="610" width="192.5" height="40" as="geometry" />
        </mxCell>
      </root>
    </mxGraphModel>
  </diagram>
  <diagram id="88nOQ1RoYFV6DPOOOQh1" name="Page-2">
    <mxGraphModel dx="1360" dy="761" grid="1" gridSize="10" guides="1" tooltips="1" connect="1" arrows="1" fold="1" page="1" pageScale="1" pageWidth="850" pageHeight="1100" math="0" shadow="0">
      <root>
        <mxCell id="0" />
        <mxCell id="1" parent="0" />
        <mxCell id="I9LRxlnZe8yP3poBnPRO-37" value="" style="edgeStyle=orthogonalEdgeStyle;sourcePerimeterSpacing=0;targetPerimeterSpacing=0;startArrow=none;endArrow=none;rounded=0;targetPortConstraint=eastwest;sourcePortConstraint=northsouth;curved=0;rounded=0;shadow=0;strokeWidth=2;fontSize=13;" parent="1" target="I9LRxlnZe8yP3poBnPRO-39" edge="1">
          <mxGeometry relative="1" as="geometry">
            <mxPoint x="180" y="220" as="sourcePoint" />
          </mxGeometry>
        </mxCell>
        <mxCell id="I9LRxlnZe8yP3poBnPRO-38" value="" style="edgeStyle=orthogonalEdgeStyle;sourcePerimeterSpacing=0;targetPerimeterSpacing=0;startArrow=none;endArrow=none;rounded=0;targetPortConstraint=eastwest;sourcePortConstraint=northsouth;curved=0;rounded=0;shadow=0;strokeWidth=2;fontSize=13;" parent="1" target="I9LRxlnZe8yP3poBnPRO-40" edge="1">
          <mxGeometry relative="1" as="geometry">
            <mxPoint x="180" y="220" as="sourcePoint" />
          </mxGeometry>
        </mxCell>
        <mxCell id="I9LRxlnZe8yP3poBnPRO-49" style="edgeStyle=orthogonalEdgeStyle;rounded=0;orthogonalLoop=1;jettySize=auto;html=1;exitX=0;exitY=0.5;exitDx=0;exitDy=0;entryX=0;entryY=0.5;entryDx=0;entryDy=0;shadow=0;strokeWidth=2;fontSize=13;" parent="1" source="I9LRxlnZe8yP3poBnPRO-39" target="I9LRxlnZe8yP3poBnPRO-47" edge="1">
          <mxGeometry relative="1" as="geometry" />
        </mxCell>
        <mxCell id="I9LRxlnZe8yP3poBnPRO-51" style="edgeStyle=orthogonalEdgeStyle;rounded=0;orthogonalLoop=1;jettySize=auto;html=1;exitX=0;exitY=0.5;exitDx=0;exitDy=0;entryX=0;entryY=0.5;entryDx=0;entryDy=0;shadow=0;strokeWidth=2;fontSize=13;" parent="1" source="I9LRxlnZe8yP3poBnPRO-39" target="I9LRxlnZe8yP3poBnPRO-48" edge="1">
          <mxGeometry relative="1" as="geometry" />
        </mxCell>
        <mxCell id="I9LRxlnZe8yP3poBnPRO-39" value="量化模型" style="whiteSpace=wrap;html=1;align=center;verticalAlign=middle;treeFolding=1;treeMoving=1;shadow=0;strokeWidth=2;fontSize=13;" parent="1" vertex="1" collapsed="1">
          <mxGeometry x="90" y="260" width="80" height="30" as="geometry" />
        </mxCell>
        <mxCell id="I9LRxlnZe8yP3poBnPRO-40" value="完整参数" style="whiteSpace=wrap;html=1;align=center;verticalAlign=middle;treeFolding=1;treeMoving=1;shadow=0;strokeWidth=2;fontSize=13;" parent="1" vertex="1">
          <mxGeometry x="190" y="260" width="80" height="30" as="geometry" />
        </mxCell>
        <mxCell id="I9LRxlnZe8yP3poBnPRO-41" value="标准输入" style="ellipse;whiteSpace=wrap;html=1;align=center;newEdgeStyle={&quot;edgeStyle&quot;:&quot;entityRelationEdgeStyle&quot;,&quot;startArrow&quot;:&quot;none&quot;,&quot;endArrow&quot;:&quot;none&quot;,&quot;segment&quot;:10,&quot;curved&quot;:1,&quot;sourcePerimeterSpacing&quot;:0,&quot;targetPerimeterSpacing&quot;:0};treeFolding=1;treeMoving=1;shadow=0;strokeWidth=2;fontSize=13;" parent="1" vertex="1" collapsed="1">
          <mxGeometry x="130" y="180" width="100" height="40" as="geometry" />
        </mxCell>
        <mxCell id="I9LRxlnZe8yP3poBnPRO-43" value="" style="edgeStyle=orthogonalEdgeStyle;sourcePerimeterSpacing=0;targetPerimeterSpacing=0;startArrow=none;endArrow=none;rounded=0;targetPortConstraint=eastwest;sourcePortConstraint=northsouth;curved=0;rounded=0;shadow=0;strokeWidth=2;fontSize=13;" parent="1" target="I9LRxlnZe8yP3poBnPRO-45" edge="1">
          <mxGeometry relative="1" as="geometry">
            <mxPoint x="230" y="290" as="sourcePoint" />
          </mxGeometry>
        </mxCell>
        <mxCell id="I9LRxlnZe8yP3poBnPRO-44" value="" style="edgeStyle=orthogonalEdgeStyle;sourcePerimeterSpacing=0;targetPerimeterSpacing=0;startArrow=none;endArrow=none;rounded=0;targetPortConstraint=eastwest;sourcePortConstraint=northsouth;curved=0;rounded=0;shadow=0;strokeWidth=2;fontSize=13;" parent="1" target="I9LRxlnZe8yP3poBnPRO-46" edge="1">
          <mxGeometry relative="1" as="geometry">
            <mxPoint x="230" y="290" as="sourcePoint" />
          </mxGeometry>
        </mxCell>
        <mxCell id="I9LRxlnZe8yP3poBnPRO-60" style="edgeStyle=orthogonalEdgeStyle;rounded=0;orthogonalLoop=1;jettySize=auto;html=1;exitX=0.5;exitY=1;exitDx=0;exitDy=0;entryX=0.5;entryY=0;entryDx=0;entryDy=0;shadow=0;strokeWidth=2;fontSize=13;" parent="1" source="I9LRxlnZe8yP3poBnPRO-45" target="I9LRxlnZe8yP3poBnPRO-53" edge="1">
          <mxGeometry relative="1" as="geometry" />
        </mxCell>
        <mxCell id="I9LRxlnZe8yP3poBnPRO-65" value="GPU&amp;nbsp; CPU均可" style="edgeLabel;html=1;align=center;verticalAlign=middle;resizable=0;points=[];fontSize=13;" parent="I9LRxlnZe8yP3poBnPRO-60" vertex="1" connectable="0">
          <mxGeometry x="-0.2381" y="-2" relative="1" as="geometry">
            <mxPoint y="1" as="offset" />
          </mxGeometry>
        </mxCell>
        <mxCell id="I9LRxlnZe8yP3poBnPRO-45" value="ONNX(通用表示)" style="whiteSpace=wrap;html=1;align=center;verticalAlign=middle;treeFolding=1;treeMoving=1;shadow=0;strokeWidth=2;fontSize=13;" parent="1" vertex="1">
          <mxGeometry x="90" y="330" width="120" height="30" as="geometry" />
        </mxCell>
        <mxCell id="I9LRxlnZe8yP3poBnPRO-59" style="edgeStyle=orthogonalEdgeStyle;rounded=0;orthogonalLoop=1;jettySize=auto;html=1;exitX=1;exitY=0.5;exitDx=0;exitDy=0;entryX=0.5;entryY=0;entryDx=0;entryDy=0;shadow=0;strokeWidth=2;fontSize=13;" parent="1" source="I9LRxlnZe8yP3poBnPRO-46" target="I9LRxlnZe8yP3poBnPRO-53" edge="1">
          <mxGeometry relative="1" as="geometry" />
        </mxCell>
        <mxCell id="I9LRxlnZe8yP3poBnPRO-46" value="Torch jit etc.(框架生成)" style="whiteSpace=wrap;html=1;align=center;verticalAlign=middle;treeFolding=1;treeMoving=1;shadow=0;strokeWidth=2;fontSize=13;" parent="1" vertex="1">
          <mxGeometry x="250" y="330" width="150" height="30" as="geometry" />
        </mxCell>
        <mxCell id="I9LRxlnZe8yP3poBnPRO-54" style="edgeStyle=orthogonalEdgeStyle;rounded=0;orthogonalLoop=1;jettySize=auto;html=1;exitX=1;exitY=0.5;exitDx=0;exitDy=0;shadow=0;strokeWidth=2;fontSize=13;" parent="1" source="I9LRxlnZe8yP3poBnPRO-47" target="I9LRxlnZe8yP3poBnPRO-53" edge="1">
          <mxGeometry relative="1" as="geometry">
            <Array as="points">
              <mxPoint x="290" y="420" />
              <mxPoint x="290" y="420" />
            </Array>
          </mxGeometry>
        </mxCell>
        <mxCell id="I9LRxlnZe8yP3poBnPRO-64" value="只适合GPU 延迟低" style="edgeLabel;html=1;align=center;verticalAlign=middle;resizable=0;points=[];fontSize=13;" parent="I9LRxlnZe8yP3poBnPRO-54" vertex="1" connectable="0">
          <mxGeometry x="-0.2" y="1" relative="1" as="geometry">
            <mxPoint y="1" as="offset" />
          </mxGeometry>
        </mxCell>
        <mxCell id="I9LRxlnZe8yP3poBnPRO-47" value="TensorRT(GPU)" style="whiteSpace=wrap;html=1;align=center;verticalAlign=middle;treeFolding=1;treeMoving=1;shadow=0;strokeWidth=2;fontSize=13;" parent="1" vertex="1">
          <mxGeometry x="90" y="405" width="120" height="30" as="geometry" />
        </mxCell>
        <mxCell id="I9LRxlnZe8yP3poBnPRO-55" style="edgeStyle=orthogonalEdgeStyle;rounded=0;orthogonalLoop=1;jettySize=auto;html=1;exitX=1;exitY=0.5;exitDx=0;exitDy=0;shadow=0;strokeWidth=2;fontSize=13;" parent="1" source="I9LRxlnZe8yP3poBnPRO-48" target="I9LRxlnZe8yP3poBnPRO-53" edge="1">
          <mxGeometry relative="1" as="geometry" />
        </mxCell>
        <mxCell id="I9LRxlnZe8yP3poBnPRO-63" value="专用厂商支持 延迟低" style="edgeLabel;html=1;align=center;verticalAlign=middle;resizable=0;points=[];fontSize=13;" parent="I9LRxlnZe8yP3poBnPRO-55" vertex="1" connectable="0">
          <mxGeometry x="-0.249" relative="1" as="geometry">
            <mxPoint y="1" as="offset" />
          </mxGeometry>
        </mxCell>
        <mxCell id="I9LRxlnZe8yP3poBnPRO-48" value="专用格式(ASIC)" style="whiteSpace=wrap;html=1;align=center;verticalAlign=middle;treeFolding=1;treeMoving=1;shadow=0;strokeWidth=2;fontSize=13;" parent="1" vertex="1">
          <mxGeometry x="90" y="455" width="120" height="30" as="geometry" />
        </mxCell>
        <mxCell id="I9LRxlnZe8yP3poBnPRO-53" value="标准输出" style="ellipse;whiteSpace=wrap;html=1;align=center;newEdgeStyle={&quot;edgeStyle&quot;:&quot;entityRelationEdgeStyle&quot;,&quot;startArrow&quot;:&quot;none&quot;,&quot;endArrow&quot;:&quot;none&quot;,&quot;segment&quot;:10,&quot;curved&quot;:1,&quot;sourcePerimeterSpacing&quot;:0,&quot;targetPerimeterSpacing&quot;:0};treeFolding=1;treeMoving=1;shadow=0;strokeWidth=2;fontSize=13;" parent="1" vertex="1" collapsed="1">
          <mxGeometry x="375" y="400" width="100" height="40" as="geometry" />
        </mxCell>
      </root>
    </mxGraphModel>
  </diagram>
  <diagram id="cAwGUEVntmI_F43dTxjw" name="Page-3">
    <mxGraphModel dx="1360" dy="761" grid="1" gridSize="10" guides="1" tooltips="1" connect="1" arrows="1" fold="1" page="1" pageScale="1" pageWidth="850" pageHeight="1100" math="0" shadow="0">
      <root>
        <mxCell id="0" />
        <mxCell id="1" parent="0" />
        <mxCell id="kM-lnF4RQVkrhnvmC59n-1" value="标准输入" style="ellipse;whiteSpace=wrap;html=1;align=center;newEdgeStyle={&quot;edgeStyle&quot;:&quot;entityRelationEdgeStyle&quot;,&quot;startArrow&quot;:&quot;none&quot;,&quot;endArrow&quot;:&quot;none&quot;,&quot;segment&quot;:10,&quot;curved&quot;:1,&quot;sourcePerimeterSpacing&quot;:0,&quot;targetPerimeterSpacing&quot;:0};treeFolding=1;treeMoving=1;shadow=0;strokeWidth=2;fontSize=13;" parent="1" vertex="1" collapsed="1">
          <mxGeometry x="70" y="181.5" width="100" height="40" as="geometry" />
        </mxCell>
        <mxCell id="kM-lnF4RQVkrhnvmC59n-2" value="标准输出" style="ellipse;whiteSpace=wrap;html=1;align=center;newEdgeStyle={&quot;edgeStyle&quot;:&quot;entityRelationEdgeStyle&quot;,&quot;startArrow&quot;:&quot;none&quot;,&quot;endArrow&quot;:&quot;none&quot;,&quot;segment&quot;:10,&quot;curved&quot;:1,&quot;sourcePerimeterSpacing&quot;:0,&quot;targetPerimeterSpacing&quot;:0};treeFolding=1;treeMoving=1;shadow=0;strokeWidth=2;fontSize=13;" parent="1" vertex="1" collapsed="1">
          <mxGeometry x="600" y="181.5" width="100" height="40" as="geometry" />
        </mxCell>
        <mxCell id="kM-lnF4RQVkrhnvmC59n-3" value="&lt;font style=&quot;font-size: 18px;&quot;&gt;模块&lt;/font&gt;" style="swimlane;childLayout=stackLayout;horizontal=1;fillColor=none;horizontalStack=1;resizeParent=1;resizeParentMax=0;resizeLast=0;collapsible=0;strokeColor=none;stackBorder=10;stackSpacing=-12;resizable=1;align=center;points=[];whiteSpace=wrap;html=1;shadow=0;strokeWidth=2;fontSize=13;" parent="1" vertex="1">
          <mxGeometry x="230" y="140" width="296" height="100" as="geometry" />
        </mxCell>
        <mxCell id="kM-lnF4RQVkrhnvmC59n-4" value="函数1" style="shape=step;perimeter=stepPerimeter;fixedSize=1;points=[];whiteSpace=wrap;html=1;shadow=0;strokeWidth=2;fontSize=13;" parent="kM-lnF4RQVkrhnvmC59n-3" vertex="1">
          <mxGeometry x="10" y="33" width="100" height="57" as="geometry" />
        </mxCell>
        <mxCell id="kM-lnF4RQVkrhnvmC59n-5" value="函数2" style="shape=step;perimeter=stepPerimeter;fixedSize=1;points=[];whiteSpace=wrap;html=1;shadow=0;strokeWidth=2;fontSize=13;" parent="kM-lnF4RQVkrhnvmC59n-3" vertex="1">
          <mxGeometry x="98" y="33" width="100" height="57" as="geometry" />
        </mxCell>
        <mxCell id="kM-lnF4RQVkrhnvmC59n-6" value="函数3" style="shape=step;perimeter=stepPerimeter;fixedSize=1;points=[];whiteSpace=wrap;html=1;shadow=0;strokeWidth=2;fontSize=13;" parent="kM-lnF4RQVkrhnvmC59n-3" vertex="1">
          <mxGeometry x="186" y="33" width="100" height="57" as="geometry" />
        </mxCell>
        <mxCell id="kM-lnF4RQVkrhnvmC59n-19" value="" style="shape=singleArrow;whiteSpace=wrap;html=1;shadow=0;strokeWidth=2;fontSize=18;" parent="1" vertex="1">
          <mxGeometry x="180" y="186.5" width="70" height="30" as="geometry" />
        </mxCell>
        <mxCell id="kM-lnF4RQVkrhnvmC59n-21" value="" style="shape=singleArrow;whiteSpace=wrap;html=1;shadow=0;strokeWidth=2;fontSize=18;" parent="1" vertex="1">
          <mxGeometry x="520" y="186.5" width="70" height="30" as="geometry" />
        </mxCell>
        <mxCell id="kM-lnF4RQVkrhnvmC59n-23" value="" style="shape=crossbar;whiteSpace=wrap;html=1;rounded=1;shadow=0;strokeWidth=2;fontSize=18;" parent="1" vertex="1">
          <mxGeometry x="230" y="270" width="290" height="20" as="geometry" />
        </mxCell>
        <mxCell id="kM-lnF4RQVkrhnvmC59n-24" value="计算延迟" style="text;html=1;align=center;verticalAlign=middle;resizable=0;points=[];autosize=1;strokeColor=none;fillColor=none;fontSize=18;" parent="1" vertex="1">
          <mxGeometry x="320" y="300" width="100" height="40" as="geometry" />
        </mxCell>
      </root>
    </mxGraphModel>
  </diagram>
  <diagram id="2dj-pwP9cPlC5hCSlSAD" name="Page-4">
    <mxGraphModel dx="1813" dy="1015" grid="1" gridSize="10" guides="1" tooltips="1" connect="1" arrows="1" fold="1" page="1" pageScale="1" pageWidth="980" pageHeight="1390" math="0" shadow="0">
      <root>
        <mxCell id="0" />
        <mxCell id="1" parent="0" />
        <mxCell id="rYw5ytY1l8sJg2uaQ8q9-25" style="edgeStyle=orthogonalEdgeStyle;rounded=0;orthogonalLoop=1;jettySize=auto;html=1;exitX=0;exitY=0;exitDx=0;exitDy=35;exitPerimeter=0;entryX=0;entryY=0.5;entryDx=0;entryDy=0;" parent="1" source="nQ3IIz4X14_1kvAiOT4W-1" target="rYw5ytY1l8sJg2uaQ8q9-27" edge="1">
          <mxGeometry relative="1" as="geometry" />
        </mxCell>
        <mxCell id="rYw5ytY1l8sJg2uaQ8q9-32" value="forward" style="edgeLabel;html=1;align=center;verticalAlign=middle;resizable=0;points=[];" parent="rYw5ytY1l8sJg2uaQ8q9-25" vertex="1" connectable="0">
          <mxGeometry x="0.3385" y="1" relative="1" as="geometry">
            <mxPoint x="-20" y="1" as="offset" />
          </mxGeometry>
        </mxCell>
        <mxCell id="nQ3IIz4X14_1kvAiOT4W-1" value="输入模块" style="shape=module;align=left;spacingLeft=20;align=center;verticalAlign=top;" parent="1" vertex="1">
          <mxGeometry x="210" y="40" width="100" height="50" as="geometry" />
        </mxCell>
        <mxCell id="rYw5ytY1l8sJg2uaQ8q9-4" value="前处理" style="swimlane;fontStyle=0;childLayout=stackLayout;horizontal=1;startSize=26;fillColor=none;horizontalStack=0;resizeParent=1;resizeParentMax=0;resizeLast=0;collapsible=1;marginBottom=0;html=1;" parent="1" vertex="1">
          <mxGeometry x="360" y="20" width="160" height="156" as="geometry">
            <mxRectangle x="270" y="160" width="80" height="30" as="alternateBounds" />
          </mxGeometry>
        </mxCell>
        <mxCell id="rYw5ytY1l8sJg2uaQ8q9-5" value="尺寸缩放(Resize)" style="text;strokeColor=none;fillColor=none;align=left;verticalAlign=top;spacingLeft=4;spacingRight=4;overflow=hidden;rotatable=0;points=[[0,0.5],[1,0.5]];portConstraint=eastwest;whiteSpace=wrap;html=1;" parent="rYw5ytY1l8sJg2uaQ8q9-4" vertex="1">
          <mxGeometry y="26" width="160" height="26" as="geometry" />
        </mxCell>
        <mxCell id="rYw5ytY1l8sJg2uaQ8q9-6" value="归一化(Normalize)" style="text;strokeColor=none;fillColor=none;align=left;verticalAlign=top;spacingLeft=4;spacingRight=4;overflow=hidden;rotatable=0;points=[[0,0.5],[1,0.5]];portConstraint=eastwest;whiteSpace=wrap;html=1;" parent="rYw5ytY1l8sJg2uaQ8q9-4" vertex="1">
          <mxGeometry y="52" width="160" height="26" as="geometry" />
        </mxCell>
        <mxCell id="rYw5ytY1l8sJg2uaQ8q9-27" value="颜色空间转换(Color-space)" style="text;strokeColor=none;fillColor=none;align=left;verticalAlign=top;spacingLeft=4;spacingRight=4;overflow=hidden;rotatable=0;points=[[0,0.5],[1,0.5]];portConstraint=eastwest;whiteSpace=wrap;html=1;" parent="rYw5ytY1l8sJg2uaQ8q9-4" vertex="1">
          <mxGeometry y="78" width="160" height="26" as="geometry" />
        </mxCell>
        <mxCell id="rYw5ytY1l8sJg2uaQ8q9-7" value="解码(Decode)" style="text;strokeColor=none;fillColor=none;align=left;verticalAlign=top;spacingLeft=4;spacingRight=4;overflow=hidden;rotatable=0;points=[[0,0.5],[1,0.5]];portConstraint=eastwest;whiteSpace=wrap;html=1;" parent="rYw5ytY1l8sJg2uaQ8q9-4" vertex="1">
          <mxGeometry y="104" width="160" height="26" as="geometry" />
        </mxCell>
        <mxCell id="vSAr412pvPbtWCo4lgjW-3" value="etc." style="text;strokeColor=none;fillColor=none;align=left;verticalAlign=top;spacingLeft=4;spacingRight=4;overflow=hidden;rotatable=0;points=[[0,0.5],[1,0.5]];portConstraint=eastwest;whiteSpace=wrap;html=1;" vertex="1" parent="rYw5ytY1l8sJg2uaQ8q9-4">
          <mxGeometry y="130" width="160" height="26" as="geometry" />
        </mxCell>
        <mxCell id="rYw5ytY1l8sJg2uaQ8q9-8" value="后处理" style="swimlane;fontStyle=0;childLayout=stackLayout;horizontal=1;startSize=26;fillColor=none;horizontalStack=0;resizeParent=1;resizeParentMax=0;resizeLast=0;collapsible=1;marginBottom=0;html=1;" parent="1" vertex="1">
          <mxGeometry x="280" y="210" width="210" height="110" as="geometry" />
        </mxCell>
        <mxCell id="rYw5ytY1l8sJg2uaQ8q9-9" value="NMS(Non-maximum Suppression)" style="text;strokeColor=none;fillColor=none;align=left;verticalAlign=top;spacingLeft=4;spacingRight=4;overflow=hidden;rotatable=0;points=[[0,0.5],[1,0.5]];portConstraint=eastwest;whiteSpace=wrap;html=1;" parent="rYw5ytY1l8sJg2uaQ8q9-8" vertex="1">
          <mxGeometry y="26" width="210" height="26" as="geometry" />
        </mxCell>
        <mxCell id="rYw5ytY1l8sJg2uaQ8q9-11" value="特征去重(feature deduplication)" style="text;strokeColor=none;fillColor=none;align=left;verticalAlign=top;spacingLeft=4;spacingRight=4;overflow=hidden;rotatable=0;points=[[0,0.5],[1,0.5]];portConstraint=eastwest;whiteSpace=wrap;html=1;" parent="rYw5ytY1l8sJg2uaQ8q9-8" vertex="1">
          <mxGeometry y="52" width="210" height="28" as="geometry" />
        </mxCell>
        <mxCell id="vSAr412pvPbtWCo4lgjW-4" value="etc." style="text;strokeColor=none;fillColor=none;align=left;verticalAlign=top;spacingLeft=4;spacingRight=4;overflow=hidden;rotatable=0;points=[[0,0.5],[1,0.5]];portConstraint=eastwest;whiteSpace=wrap;html=1;" vertex="1" parent="rYw5ytY1l8sJg2uaQ8q9-8">
          <mxGeometry y="80" width="210" height="30" as="geometry" />
        </mxCell>
        <mxCell id="rYw5ytY1l8sJg2uaQ8q9-42" style="edgeStyle=orthogonalEdgeStyle;rounded=0;orthogonalLoop=1;jettySize=auto;html=1;exitX=0;exitY=0;exitDx=0;exitDy=35;exitPerimeter=0;entryX=0.5;entryY=1;entryDx=0;entryDy=0;" parent="1" source="rYw5ytY1l8sJg2uaQ8q9-12" target="rYw5ytY1l8sJg2uaQ8q9-38" edge="1">
          <mxGeometry relative="1" as="geometry" />
        </mxCell>
        <mxCell id="rYw5ytY1l8sJg2uaQ8q9-12" value="输出模块" style="shape=module;align=left;spacingLeft=20;align=center;verticalAlign=top;" parent="1" vertex="1">
          <mxGeometry x="120" y="268" width="100" height="50" as="geometry" />
        </mxCell>
        <mxCell id="rYw5ytY1l8sJg2uaQ8q9-14" value="" style="html=1;points=[];perimeter=orthogonalPerimeter;outlineConnect=0;targetShapes=umlLifeline;portConstraint=eastwest;newEdgeStyle={&quot;edgeStyle&quot;:&quot;elbowEdgeStyle&quot;,&quot;elbow&quot;:&quot;vertical&quot;,&quot;curved&quot;:0,&quot;rounded&quot;:0};fillColor=none;" parent="1" vertex="1">
          <mxGeometry x="620" y="10" width="10" height="330" as="geometry" />
        </mxCell>
        <mxCell id="rYw5ytY1l8sJg2uaQ8q9-15" value="dispatch" style="html=1;verticalAlign=bottom;endArrow=block;edgeStyle=elbowEdgeStyle;elbow=vertical;curved=0;rounded=0;exitX=1.029;exitY=0.231;exitDx=0;exitDy=0;exitPerimeter=0;dashed=1;" parent="1" source="rYw5ytY1l8sJg2uaQ8q9-6" edge="1">
          <mxGeometry relative="1" as="geometry">
            <mxPoint x="550" y="110" as="sourcePoint" />
            <mxPoint x="620" y="78" as="targetPoint" />
          </mxGeometry>
        </mxCell>
        <mxCell id="rYw5ytY1l8sJg2uaQ8q9-16" value="return" style="html=1;verticalAlign=bottom;endArrow=open;dashed=1;endSize=8;edgeStyle=elbowEdgeStyle;elbow=vertical;curved=0;rounded=0;entryX=1;entryY=0.5;entryDx=0;entryDy=0;" parent="1" source="rYw5ytY1l8sJg2uaQ8q9-14" target="rYw5ytY1l8sJg2uaQ8q9-11" edge="1">
          <mxGeometry relative="1" as="geometry">
            <mxPoint x="517.76" y="334.00199999999995" as="targetPoint" />
          </mxGeometry>
        </mxCell>
        <mxCell id="rYw5ytY1l8sJg2uaQ8q9-18" value="" style="rounded=1;absoluteArcSize=1;html=1;arcSize=10;labelBackgroundColor=#FFFFFF;sketch=1;hachureGap=4;jiggle=2;curveFitting=1;fontFamily=Times New Roman;fontSize=14;fontColor=#000000;" parent="1" vertex="1">
          <mxGeometry x="640" y="10" width="140" height="110" as="geometry" />
        </mxCell>
        <mxCell id="rYw5ytY1l8sJg2uaQ8q9-19" value="推理" style="html=1;shape=mxgraph.er.anchor;whiteSpace=wrap;labelBackgroundColor=#FFFFFF;sketch=1;hachureGap=4;jiggle=2;curveFitting=1;fontFamily=Times New Roman;fontSize=14;fontColor=#000000;" parent="rYw5ytY1l8sJg2uaQ8q9-18" vertex="1">
          <mxGeometry width="55" height="100" as="geometry" />
        </mxCell>
        <mxCell id="rYw5ytY1l8sJg2uaQ8q9-20" value="&lt;div&gt;ASIC&lt;/div&gt;&lt;div&gt;GPU&lt;br&gt;&lt;/div&gt;&lt;div&gt;...&lt;/div&gt;&lt;div&gt;Model&lt;/div&gt;&lt;div&gt;Version_0&lt;br&gt;&lt;/div&gt;&lt;div&gt;...&lt;br&gt;&lt;/div&gt;" style="rounded=1;absoluteArcSize=1;html=1;arcSize=10;whiteSpace=wrap;points=[];strokeColor=inherit;fillColor=inherit;labelBackgroundColor=#FFFFFF;sketch=1;hachureGap=4;jiggle=2;curveFitting=1;fontFamily=Times New Roman;fontSize=14;fontColor=#000000;" parent="rYw5ytY1l8sJg2uaQ8q9-18" vertex="1">
          <mxGeometry x="55" y="5" width="85" height="105" as="geometry" />
        </mxCell>
        <mxCell id="rYw5ytY1l8sJg2uaQ8q9-21" value="" style="rounded=1;absoluteArcSize=1;html=1;arcSize=10;labelBackgroundColor=#FFFFFF;sketch=1;hachureGap=4;jiggle=2;curveFitting=1;fontFamily=Times New Roman;fontSize=14;fontColor=#000000;" parent="1" vertex="1">
          <mxGeometry x="640" y="230" width="140" height="110" as="geometry" />
        </mxCell>
        <mxCell id="rYw5ytY1l8sJg2uaQ8q9-22" value="推理" style="html=1;shape=mxgraph.er.anchor;whiteSpace=wrap;labelBackgroundColor=#FFFFFF;sketch=1;hachureGap=4;jiggle=2;curveFitting=1;fontFamily=Times New Roman;fontSize=14;fontColor=#000000;" parent="rYw5ytY1l8sJg2uaQ8q9-21" vertex="1">
          <mxGeometry width="55" height="100" as="geometry" />
        </mxCell>
        <mxCell id="rYw5ytY1l8sJg2uaQ8q9-23" value="ASIC&lt;br&gt;GPU&lt;br&gt;&lt;div&gt;...&lt;/div&gt;&lt;div&gt;Model1&lt;/div&gt;&lt;div&gt;Version_1&lt;/div&gt;&lt;div&gt;...&lt;br&gt;&lt;/div&gt;" style="rounded=1;absoluteArcSize=1;html=1;arcSize=10;whiteSpace=wrap;points=[];strokeColor=inherit;fillColor=inherit;labelBackgroundColor=#FFFFFF;sketch=1;hachureGap=4;jiggle=2;curveFitting=1;fontFamily=Times New Roman;fontSize=14;fontColor=#000000;" parent="rYw5ytY1l8sJg2uaQ8q9-21" vertex="1">
          <mxGeometry x="55" y="5" width="85" height="105" as="geometry" />
        </mxCell>
        <mxCell id="rYw5ytY1l8sJg2uaQ8q9-26" style="edgeStyle=orthogonalEdgeStyle;rounded=0;orthogonalLoop=1;jettySize=auto;html=1;exitX=0;exitY=0.5;exitDx=0;exitDy=0;entryX=0;entryY=0;entryDx=0;entryDy=15;entryPerimeter=0;" parent="1" source="rYw5ytY1l8sJg2uaQ8q9-9" target="rYw5ytY1l8sJg2uaQ8q9-12" edge="1">
          <mxGeometry relative="1" as="geometry">
            <mxPoint x="350" y="275" as="sourcePoint" />
            <Array as="points">
              <mxPoint x="280" y="280" />
              <mxPoint x="250" y="280" />
              <mxPoint x="250" y="248" />
              <mxPoint x="100" y="248" />
              <mxPoint x="100" y="283" />
            </Array>
          </mxGeometry>
        </mxCell>
        <mxCell id="rYw5ytY1l8sJg2uaQ8q9-33" value="forward" style="edgeLabel;html=1;align=center;verticalAlign=middle;resizable=0;points=[];" parent="rYw5ytY1l8sJg2uaQ8q9-26" vertex="1" connectable="0">
          <mxGeometry x="-0.2444" relative="1" as="geometry">
            <mxPoint x="-16" as="offset" />
          </mxGeometry>
        </mxCell>
        <mxCell id="rYw5ytY1l8sJg2uaQ8q9-44" style="edgeStyle=orthogonalEdgeStyle;rounded=0;orthogonalLoop=1;jettySize=auto;html=1;exitX=0.5;exitY=0;exitDx=0;exitDy=0;entryX=0;entryY=0;entryDx=0;entryDy=15;entryPerimeter=0;" parent="1" source="rYw5ytY1l8sJg2uaQ8q9-38" target="nQ3IIz4X14_1kvAiOT4W-1" edge="1">
          <mxGeometry relative="1" as="geometry" />
        </mxCell>
        <mxCell id="rYw5ytY1l8sJg2uaQ8q9-38" value="Shared_memory" style="swimlane;fontStyle=0;align=center;verticalAlign=middle;childLayout=stackLayout;horizontal=1;startSize=30;horizontalStack=0;resizeParent=0;resizeLast=1;container=0;fontColor=#000000;collapsible=0;rounded=1;arcSize=30;strokeColor=#ff0000;fillColor=#ffffc0;swimlaneFillColor=#ffffc0;dropTarget=0;fontFamily=Times New Roman;fontSize=20;" parent="1" vertex="1">
          <mxGeometry x="10" y="125" width="160" height="60" as="geometry" />
        </mxCell>
        <mxCell id="rYw5ytY1l8sJg2uaQ8q9-39" value="RPC" style="text;html=1;strokeColor=none;fillColor=none;align=center;verticalAlign=middle;spacingLeft=4;spacingRight=4;whiteSpace=wrap;overflow=hidden;rotatable=0;fontColor=#000000;fontSize=20;fontFamily=Times New Roman;" parent="rYw5ytY1l8sJg2uaQ8q9-38" vertex="1">
          <mxGeometry y="30" width="160" height="30" as="geometry" />
        </mxCell>
        <mxCell id="vSAr412pvPbtWCo4lgjW-1" value="RPC" style="text;html=1;strokeColor=none;fillColor=none;align=center;verticalAlign=middle;spacingLeft=4;spacingRight=4;whiteSpace=wrap;overflow=hidden;rotatable=0;fontColor=#000000;fontSize=20;fontFamily=Times New Roman;" vertex="1" parent="rYw5ytY1l8sJg2uaQ8q9-38">
          <mxGeometry y="60" width="160" as="geometry" />
        </mxCell>
      </root>
    </mxGraphModel>
  </diagram>
  <diagram id="iteJUscRGpFRKAMsnBOK" name="Page-5">
    <mxGraphModel dx="1821" dy="544" grid="1" gridSize="10" guides="1" tooltips="1" connect="1" arrows="1" fold="1" page="1" pageScale="1" pageWidth="850" pageHeight="1100" background="#ffffff" math="0" shadow="0">
      <root>
        <mxCell id="0" />
        <mxCell id="1" parent="0" />
        <mxCell id="OTqlcqx55g9iVUikdxtE-14" value="" style="rounded=0;whiteSpace=wrap;html=1;labelBackgroundColor=default;strokeWidth=2;fontFamily=Times New Roman;fontSize=20;fontColor=#000000;fillColor=#F0F0F0;" vertex="1" parent="1">
          <mxGeometry x="150" y="990" width="970" height="480" as="geometry" />
        </mxCell>
        <mxCell id="OTqlcqx55g9iVUikdxtE-1" value="&lt;div align=&quot;center&quot;&gt;Virtual Machine&lt;/div&gt;" style="rounded=0;whiteSpace=wrap;html=1;fontFamily=Times New Roman;fontSize=20;align=center;verticalAlign=bottom;" vertex="1" parent="1">
          <mxGeometry x="470" y="660" width="180" height="80" as="geometry" />
        </mxCell>
        <mxCell id="OTqlcqx55g9iVUikdxtE-2" value="Virtual address space" style="rounded=0;whiteSpace=wrap;html=1;fontFamily=Times New Roman;fontSize=20;" vertex="1" parent="1">
          <mxGeometry x="590" y="560" width="210" height="50" as="geometry" />
        </mxCell>
        <mxCell id="OTqlcqx55g9iVUikdxtE-3" value="libbpf" style="rounded=0;whiteSpace=wrap;html=1;fontFamily=Times New Roman;fontSize=20;" vertex="1" parent="1">
          <mxGeometry x="200" y="320" width="210" height="50" as="geometry" />
        </mxCell>
        <mxCell id="OTqlcqx55g9iVUikdxtE-4" value="C ELF" style="rounded=0;whiteSpace=wrap;html=1;fontFamily=Times New Roman;fontSize=20;" vertex="1" parent="1">
          <mxGeometry x="580" y="320" width="210" height="50" as="geometry" />
        </mxCell>
        <mxCell id="OTqlcqx55g9iVUikdxtE-7" style="edgeStyle=orthogonalEdgeStyle;rounded=0;orthogonalLoop=1;jettySize=auto;html=1;dashed=1;fontFamily=Times New Roman;fontSize=20;" edge="1" parent="1" source="OTqlcqx55g9iVUikdxtE-5" target="OTqlcqx55g9iVUikdxtE-4">
          <mxGeometry relative="1" as="geometry" />
        </mxCell>
        <mxCell id="OTqlcqx55g9iVUikdxtE-5" value="视觉算法SDK中编写的USDT tracepoints" style="rounded=0;whiteSpace=wrap;html=1;fontFamily=Times New Roman;fontSize=20;" vertex="1" parent="1">
          <mxGeometry x="580" y="100" width="210" height="60" as="geometry" />
        </mxCell>
        <mxCell id="OTqlcqx55g9iVUikdxtE-9" value="" style="shape=image;verticalLabelPosition=bottom;labelBackgroundColor=default;verticalAlign=top;aspect=fixed;imageAspect=0;image=https://encrypted-tbn0.gstatic.com/images?q=tbn:ANd9GcTDT44RWYtckWChEbAMrDfi3juWg3h-mdfiBw&amp;usqp=CAU;" vertex="1" parent="1">
          <mxGeometry x="480" y="220" width="91.76" height="65" as="geometry" />
        </mxCell>
        <mxCell id="OTqlcqx55g9iVUikdxtE-12" value="&lt;div&gt;eBPF Verifier&lt;br&gt;&lt;/div&gt;" style="rounded=0;whiteSpace=wrap;html=1;fontFamily=Times New Roman;fontSize=20;" vertex="1" parent="1">
          <mxGeometry x="-456.5" y="360" width="490" height="50" as="geometry" />
        </mxCell>
        <mxCell id="OTqlcqx55g9iVUikdxtE-16" value="" style="shape=image;verticalLabelPosition=bottom;labelBackgroundColor=default;verticalAlign=top;aspect=fixed;imageAspect=0;image=data:image/png,iVBORw0KGgoAAAANSUhEUgAAAo0AAADSCAYAAAAv6vpGAAAABHNCSVQICAgIfAhkiAAAABl0RVh0U29mdHdhcmUAZ25vbWUtc2NyZWVuc2hvdO8Dvz4AAAA9aVRYdENyZWF0aW9uIFRpbWUAAAAAADIwMjPlubQwM+aciDA25pelIOaYn+acn+S4gCAxNuaXtjQ35YiGMDfnp5Krufx6AAAgAElEQVR4nOy9aZNcB5ae99x9yX2pfQMKO0CAZHMnp3vUs6oVGlmy/MlWOBT2L/Av0WeHIxwO2yEvM5JDamms9qinZ7qnuzlNNncQ+1L7kvty980f7q0EqgmSIIgCQPI+ERlZQFTeuplVmefcc97zHmE0GiXk5OTk5OTk5OTkfAHy0z6BnJzPI05i3MBm5HQZuT1GTgc3sAAoanWqhSlqhWmKevUpn2lOTk5OTs63nzxpzHnqJEmCH7q4gYUbWDj+GNcf4wQjbG+E5Q2x/QGWO8ALXRCgoJQpGjWWGmc4NnWRkl5DEISn/VRycnJycnK+teRJY84TI0kS4iQijAOiKCCMA8IoIIhcxu6Agd1m4LQY2C361j5Dp4UfOg88Vje7t7w+ulKiMFNGEvI/55ycnJzvJglxkhyKLWHsE8YBSRIBApIoo8kGulJAltSnfcLfSPIom/PEiOMQyxvRsXbpjney2xY9axc/dIiTiCRJSJKYhIQk+XK57dBus9W9zvHp55CewHPIycnJyXn2iOMYP3ToWnt0svjSGW3TtbbwAgtRkCkbTVamLnJm/mWmSotP+5S/keRJY85jJ0kSLG/A2O0zdLoMnQ4jp8PY7eD4I/zIww89gtDFj1yC0CVOokf6WWOvx97wDo4/QtKqiGKeOubk5OR8m3EDexJfRk4njTFuB8vtE0Qufujhh272tUuchAgIBJGL4w+J4oDTcy8xV1192k/lG0eeNOY8MnESEYQejj/GCSwcfzTRIlreENsbZprEAbY3wAnGhJH3WM8hjHxsb8DQ6aIpJppoPNbj5+Tk5OQ8eZIkIYoDHN/CCcZpnPFHOP4I209ji+0Ns1gzwPGHeKH9+ccj1c77oct6+zJFrcJUaRFJUhDI9fAPS5405jwUE41I5Gdf+3ihje0N6NsdhnaqRRzYLYZumzDyH6q9/FjOLQroW3tUzSk0OU8ac3Jycr5JxEl0KL4EkU8QurjBmIHdYWC36dsthnaLvrOHHziP3J0C6I132RusMfYGlI06gpB3qB6WPGnMeQgSxm6P7niPzmg704tsM3D2cf1R+h1JQkICB/dPkCgO6Vn7LNQfbxUzJycnJ+focXyLnrVPZ5TGls54m761w8jtwkTfnjy01v3L8COHodOiNdykoJURpTxpfFjypDFnQhgHuL410SEOnTYjp8PI7eIGVqoRCV2CTJMYxh5x/OhXe4/zvHvWHn7oPu1TycnJycl5AHES44cuI7fH0E517gOnzchp4/gjvNAhCL0svqRxJoqDIzsfL3ToW/vEjTPkU5QPT540fkf5XZ2Ie79OxB9lesQhtj/E8UfEcfjEK4gPSxQHdK2dPGnMycnJeQYIIi+NMf5oEmPSuDLA9kc4XhpvrCzGhJFHksRP9By9wKFv7xN9jTb3d5E8afwWkyQxURwSRD5h5Kf3cfr1wOkwtNvZfYuh08Zye3if44v4LBPFIUO7hRuMieIQScz/rHNycnKOloQojiYa9yD0CWOPIPKxvWGqRXTaWZxpMXa62P4QnpHigxfa9O09oiggIcmHYR6SPLp+iwkin7HbpzPeoTPaoTPepjvepmftEMZ+aniaHLyFn4038qOQJDF+aDOw29jeiJJRe9qnlJOTk/OtJl3zatEd72YxZjuLMVs4/vDeoMozGmO8wKZv7eCGY8y4nBcbHpL8VfoWkCRxqhNxugzte1rEsdfD9obpJFqUakXC7Osn3Qp4EoycLpY/yJPGnJycnMeIG9iZzj2dZB46HcZOB8vrZ16798eYVOv+rMqZ7pEQxiG98T4FrYaplp72CX0jyJPGbxBRHOKHLraXelU5QaoXsb1Bpg3JPKy8VKPohhZh5D/t035ijNwetjd62qeRk5OT840jSZJMi5hq3Q/iieMPJ36IB9pExxvhBGOC0PkGJIefTxxH9K0WU+XlPGl8SPKk8RkkSZLMq8ojzK7gwtjH9S3GXp9BVk0cZpPNI7tF9AwPqjwpxm5aWc3JycnJ+TxSLeJBB+pA7x6ELpY3YOR0J5r3odth5LRxA+uhu1OCIKBIGrpaRFMMkiSZDFY+a8RxSN9u4X8DtfxPizxpfMZIE8aQgd2+z7MqvR86bdzgWaykPUhA/OQT2JHTxfGfvQ+mnJycnGeFOIlx/DGd8Q7tLMb0xtv0rF0sr/+1TLMBREGkUZrn2PQlFpunCEKf61vv8Onmrx7TM3h8REnEwNrHC/Kk8WHJk8anSBD5WN4wvaK7b3/mwE7/iA+uAg+uBI/Ss+pRqBVnWWyc4dj0eUy1hChKhHHAyOnx8dovaA838YLPX+v0uLH9AeNsAjzfDJOTk/NdJkkSHH/M0O1mMaadefC2sL1B6rU7cdXwCKOA+DFo3RVJY7l5lldP/SmaYhDGAe3hxmN4Ro+fOI7o2btfuH4w5zB50vgEiOIQN7DvaRH9caoT8YeM3X62uzn9/4Pdzc+CafaDEBCQJJlzi2+w2DjFVGWZqfICqqwjCiJREuH6FgWtzFrrChvtq+z17z6Rc4viANsfMXb7qAUdQcgtFHJycr7dJEmc2dyM7tMhZj6Ibj/7v/Ek9rjBmCByj2zNaxiHKLJKpdBEFETiJMbUSsiS+kCNvSyp1ItzTFeWKJt1JFFJJ7N9i761z1bnBm5gHcm5Jkmc+RMP8EMHNS82fCl50vgYiZP4nj4kmyQLQg/XH0+mm0dul7HTZeR2sLI/1GcBSZQx1BKGVkTO3rR+6KZJrD+efJ+qGExXlnnpxB8zX19FkTXiOMLxx4iCiCJpVAtTVApNGqV5NMVk5HRx/fFjuYr9MtzAYmC3qRVmct+tnJycbxX3PBE9/KwT5YVpQWJkdxgc6NydDuNsk9fXbTd/5XOMfLzAJQg9NMVAFEQMtUTZaNAb706095KoUNDKTFWWWJk6z/LUOZrlBRRJJUoiLHfAXm8NXTHZ7t1iaHcfe7ctISGMPEZuD8sb5UnjQ5AnjY9IMjGfSiYeVH7oMrBbtEe79Kx7t+54mzB6NvciCwgIokhBq3Js5jlWZy5RNht4vs3+YIO11hXutj4iiWMSoF6c5a1z/4yZ6gqqrBNFaXXvzt5lFFmnWZ6nWZpDEETm66tEccj+YIP11idPRDfi+GMGdguS5MFSy5ycnJxvAGmMuRdfkiRh7PToWXt0rdQbsWft0RtvY3m9I6scPgp+6GJ5Q1Q57fhUCk3maifoWXvpZzNgaiXOLLzGa6d/RKM8h4Bw7zkIYKpFpsoLHJ95jndu/oT3bv+Uod06kvMdu33G7oBaYfpIjv9tIk8aH4Eg8hi7B1PMHUZOl6HTZux2s5VIPmEUZNtXgmdGiyhLKpIgT/QbkijTLC/y+ul/TL00S1GvoisFJEkmiWMWGic4OfcCe/03+Pvrf4ntjZiurLA8dQZN0QlCj7v7n/KzT/4PvMBBEASmyss8t/x7nJi9iK4WqJdmeWn1D9gf3H0iSaPrj+nb+9/5SfKcnJxvJnEc4Qb2vQlmJ93TPHRaWXfKnWz2Oogzz1LCCGB7I7qjXaqFJgISJb3GVHkJQRBIElAklWZpgddO/4iK2UBAwAsduqNdLHdIxWxSL80iiRKGWuDC0puIgshff/yvj+R8x24fy+sfybG/beRJ4xcQxSFOYOF4Q+yD/ZnekLHXzfSJY9zAwvUt3GCMF9iE8bPhi2hoZQQgjAJ0tcjqzEVqxRksd8C7N39CnETM1lZ5buktTs69iKkVJ474ByuVDIoUtAolvcp29zaWO2CmujLxs2pb2+z07mB7Y6qFacpmg6nyYqZLSY9lKAVmqisU9RqWOzhy30gnGDGw95+5D9GcnJyc38UN7Mxrd4QTDHG8MZaXJjB2pnF3A+s+LeKztZhBFERmqseZrixRMZuIooQfukiiwsjppUVFIa0q1opTE8nQbPU4F5beoF6aRRRE9geb3N2/zEb7Cl7gYmollqbO8MKxHyKKIrXiNPP1EzRKCwzs1mOPI2O3x9jtPdZjflvJk0YgTjLPqtDL9IipHsMNrEklceT2GLk9xpkm8VlJDu9HlQ2KRo1aYZqK2cQNbCx3wGz1OJeO/4BmeZ6d3h3ev/NTNNFkZeo855ffoGRUgQTLHTCw000yZb2BoRaJk4jOaIcEKJkNKubU5OdFcYiuFjm/9CbTlWUapVkqZhNTKyGJMnEcZZXWCFXSkUT5yJNGP3QnO7RFUUIUxCP9eTk5OTlfRJIkREmYxRcPPzzQu7tpXHG66c3rZXr3Lm4weuYvfFVZZ6FxipOz32N56hxT5XkkScb1bbqjXZzA4mAWUVMMikZl8tiZ6gon519CFESSJGGnd5tP1n/JwNpDUwu4wZiCXpl0jGRJoVKY4sTMC3y6+UvGjzmOWF4Py+0RJ3EeM76E71zSmCQJSaYPOdCJuMGYgdOhN96jZ+3Ts3bpW7sM7TZuOP7SYz5pBEFEFCREQQAEEmKiOKJiNjm/9CZvnf0nqIrOdvcW+/0NLiy/gSypmemqiixpzFZXma+foGI2AIiikPXWNd67/VNu7LzL+aW3WG6eJQg9fn393+MGFidnX+T4zHOT85irHWeudhw4eF3j9D4bCPICh6HTY3+wjhuMn8hEeJLE+JHHwG6jSCqqrB/5z8zJycmB+3WIySTWhJGP44/ojvbo2rv0xnv0rT161ja2P3pm5EsAoiAhCMLEeSJJEuIk/kx1M9UpTvGjF/976qUZZEmdfH9RVyjq1UPuFbKkoslm6rAB6GohK1akXoljp4cX2JxZeI35+gmmKktUzSaSKKVaRxKKepXzS69zZ/9Dxu7jbSU7/gjL6xOE3kSHmfNgvlNJYxgH6d5MuzvxRBzabQbOPq5vEcap/vBAh/gsvZkPkESFenGWc4uvMV8/iSKrtAZbvH/npzjeOG0JZFdnzfICFXNqkjD6oYfn26iiyonZS8xmCR/A7b1PuLzxazbaVwC4s/chW53rJKTWB0kSIwjCZ67CUruHgLHTpzveozXYYG+wRhj5iIJMHIeM3B698R7hE3o903VY/hOZ1s7Jyck5IPXd7Wa+u5k3ot1i5HYy/WFAdHAfB8+UtZosqSw1zjFbO0bJrCMiMrDb3N77iPZw81A8rJfmObPwKiWzhiQqQNp5Gjk9bHeErhaoFtJ29QGKrDFVXqE92gSYtKolUeLSsR9wav5FVNlAlXVkSUUWZQQEwjjA8cZ0Rjvc3v8Y94i08W7o0LdbNEvzSMJ3KjX6SnwrX5kg8g75ItqZFtH2Boy9XqZBtFM9YjDGCyyiOHzapw2kbyRF1qiY05SMGoIgsN66QpBNX4uCiK6WmK+f5Nj0BURRpKjXuL79Dt1xOq19cFWoyjqqrJOQcGPnA7Y6N9jr38UNbQy1iK7csxfY6d2lNVif+GE5v2O1AzCwO7RHW5zhpcn/9awWl9d/RW+8y8jpY3kDvMDhheP/gIrZREBg7A3ojrePzGvrdxEQkEUlv1rMycl57MRJhB969/kiDrNYM2Cc+SKmMcaaxJhnxVrtQVQK08zXTrAydZZacY6SUUdXTQQEXN9ivr7Kbv8Om+0bbHauE8UBzdI8ZxZemVTlxk6f7d5trm29g+tbqLLOdHWZF47/cGK7o8oGi43TjL0eqbVF+vksIFAyaphamSB0GXtDRnaHvtWiP97D0MoEkc/AbrHbu3tkCyO8wKZv7VMvziJ9+bd/Z/lGJ41xEhOE7iGdiJ/tz0yFrf3sluoRba+fJV9PVytyUG5/ELKscmL2eeZqJ6gUponigL3+XYLIJ22nx3iBjSyr6KpJksRUzCaKrKW7Q90+QeSjJukbNYpDLG/IlY23ubHzW0ZO99553Fc19EOX4Et0mgOrxV5/DT/0UCQFQRCJIp+R06Mz2sELbRRJY7FxkgvLb1IrTBNEHvuDTVRZ+8Ln/bhQJJ2CXk11lfnVYk5OztcgjHz8zG/3IL64gTXZ0XwQX8aZ3t0L7WeiACEKIrKkoirmJA54gU0UBZPPYCHzTzw+fZELy29yYvbSA/V8c/XjLDZOUy3M4ocu3fE2Jb3GfO3YZOCxPdrm47s/59PNt4niAFEQmaosM1tbZa66gq4WUJVUA3m39TFRHBJEHpqYFi7CKGBgtVlrXWHodumNdhnaHYLIZ7FxGllW0tc1k5UdBWHkY/ujZ2rQ6FnkGxFVD3Qi8X26uTiOCCIv80Js0bf3M53IHgN7H/8ZWgskCiKiKGf6DBFREEhIW7txkhDFIXESkSQxhlrkjy79N9Qzr8O+1eLXahHbT7fEhHFAa7iG44/SKWdBRFMN5CyJi5MI20vbA6Kk4ocu6/vX2O7e/J2E8bCNYa04TVGv0h1t3ztvUUIS5UnyFSchI7tDZ7hDozyLKus0y4v8yQv/grX9q9jeiKJRYbl5FlGSSJKEgd3m5u77uIF95AmjIIhUzCkW6mcoG/cmuHNycnK+iN/VZCfZBfrQ6dCz9tOql53Gl561y8hpP+1TfiCiICFJMppsUjYaNCvLqJKO7Q9pDdYYuT380CGOI2RRZrFxhueP/z7Hps9nPokxYdY2FwQBWdIQBYFacZrnlt4gikI+uPPTLDakbemEhP3BGp9u/nqSMMdJzNjtc3XzHUp6BV0toEga05VlVFnH8UcM7A7TlUUAHN9irX2Vn3zwPxPHMQjQLC3wvdU/5tzSqxT1Kr3xPp+s/5LhzQ5+6B7J65d3p76cb0RU9QIHyx1MdCIDu5PpRNo4wXiiQQzjMNMiPv0rvQNEQaReXODU/IusTJ3LbAnSq7m05N7h6ua7rLcuM7Bb2b5QizBKVzHJksJs7SSObzN206QvSRKC0CMMfZSsglc1ZygbDaI4pDveo2hUUSSVJEkI4+Azk3hDu4vljTC1MgAn556nNdxgs3OdOHv9FutnOLv4GquzF9IE0Gqz1bnJX773P/Enz/+3zNWPp96PosJi8xRxEqUDOpl4uT3a5srmb/jtzZ98ptV9FJT0Bsenn+fcwmuIQt5gyMnJ+XKiOMTxrXs6RLvDINMiWl4fP3QOxZZnUesOaayZq53k3OIrrEydw8hW9wmCSBxH+KHDTu8uH979GWutT1FlnZdO/iGz1RUEBOI4om+3+eD2z9jqXMfUSrx1/p/RKM6hyBqaYnBh6XXu7n90+AcnWQHkd/SZfuCw3rrMheXXAZAlmUqhgSyp7HTvcHXzN0yVFxAEgYJW4tTcCxT1/4Gtzi00xWS2usJsbQVdKZAkCX1rn9/e+issd3Akr58iaZhq+VAHLuezPDNJ44EtwUSH6I0mOyFHbhfbG+IGNl6mRfQCK2sFRDztdvPnoSsFpirLXFz5PkvNU1QLM+iKObmaieKIenGOol6lYta5ufsBI6fDwO5QLc6kSaOoMF8/wf7g7iRpBLLXyUKRNQAa5QWqhRk6oy32+mvMVJYoaGUkUaZiNpFl9dC53d37hGZpnqnyAsBkMs1QCrSGWxhakYX6KZanzlIvzqRT5r7NyO2z27vDr679e45NX2C+fpKp8iKyrCAlMkHk0R5ts9m+wVbnOpvd64ycx+t/lepjCphaOb2pJUy1RLO0xGztOBWjmV8x5uTkfIZU6z7MdO4j7EyHOHY798UXGy/TI4aR/7XW8KmyTqO0wGztOEW9iuOP2e7eZLt786GPIRy4ZHxB21SVDRqleb534g85NnWOSmEKWVIOfU+SxJhaGUEAUyvTGe3QKM6hKSZJkmD7Y35z4//l1s4HDOwWiqSRkPDq6X/EUuMMoihRNCpMVZbRFCMbjhTTpE+vMVVZoT1cvzeAmJ33wSexIIhoisFUZZm7e59we+9DpsqLrEyfxdTKFPQyy1PnqBamkUUFUy+jKyZxEnNn/zIf3f05Q7t9JAOOmlKgYk7RKM0h5QWHL+SpJI2pnsEnCF38TCfih6nJ6dDpYh1oEb0+ltvD8gYE0VcvR4uChK4WKBsNDK2IlA1HpKvvxoydLpY7eOi2qSCIyKJCtThDQaugyRqiKJGQEIQ+tjekb7XwAhtBEKmX5ri48gMuLL9OQStnbfUQJ7BRJBVF1jC1EitT5yYDK59uvE1ntMNMdZmiXkGSFGaqyxiZofYBQ7vLyOlRNusANIqzVAtNdvu32erc4NTc88AssqRQL06jZsnlATu9W6y3rzJXX6VRmkUSZRYbp6gX59jvr2PqZcpGHVNLf67tDdnp3WG7d4sg8ri29Rt64z1awy3masdRZBWSVBs5tLvc2f+E9nATxx995d/boddbUlGldKBHkTRUWUdTTIp6naJeo6hXKWhVilqVamEqt9jJyfmOk7ZYw2w/s5vGmex24IuYxpZMj+j1sL2jqV6psslC4xQvHPsh5UIju4BOvjBplCUVUytTK86gywaSlMatOI6Jk5C+1c7izL3BwpJR4/zSm5yef4mSUSVOsq0yVhtRkDC0IoZaIIpDZFGloFcJoxBV1u9p390B17Z+Q3+cbtTyQ5fLG79ieeo80+XldDhGEKkVZ0gSsNwhBb2CIAg0SwucXXiVjyN3IoOqGE1OzF6adLMEBCRRYnXmIn1rj832dd6/89d4ocN8fZWSUUNTDJrlhdQ6LfRoDbfoj/f5dOPX3Nj57WPdoy0IIpIooytFpsrLLNRPUzYaCGJeafwijjxpTEhI4pg4iSZ+T7Y/Yuik01EDu0XP2qNvp1rEx+F4Lwjp9KyplZmprnJu4VXm6quYWhFRlLC9EVvdW9zYfp87ex/ihfaXWh8ICKiyRrUwwwvH/4CVqfPUizNpC5iYod3lbusKH9z+G3b7t9AUg6XmWV459ceTnZp+mL6h9vrrlIw69dIsBa2EIIjM1Y7j+jb7/S1ag02sbHm7JEjUizPo6uFF6ql2s81C4wQAlUKTklEnCD02O9exvTRZEwWJgl5Np4nvG0TxQof11hWKeo1XT/9DFElNryT1CsXZi5Pf3YGOcqN9nTt7H7HfvwukmpXd/h12+3e+1u/q3u9MRBTE7MpVREREkTWKeo2qOUfVnKZamKJqTlE2m5T0at5GyMn5jnOgQYyTmIT0Pgx9LG9A325nWvcDvfsujj98oosZZEmhVphmsXkSAEMxKRv1z/3+tDM0xbHp53hh9YdMlebRsu5UQoLn23yy/ms+uvu37PZvE0Q+oiDSLC/w6uk/Rc2qg17gsN9f5+P1X6HKBgv1VWZqK9zc/oCP137O2O2zOvvi5DM0jAPczEXk/iJKkiQM7Q4jt4eumtlzKDJ0uuz07nJ85gJyVtjQFQPHH7HWukwCHJt6jrfO/RdosjHZMgZwev4l9gdr3Nx+j+vb79AebnJq/iVOz79EozSHIAiEkU9v3Obu/mWubP6KvrX/tWRngiBk8wT3YowiqZhqhZnqKidnXmSutooiqV9+sO84R540BqFHZ7RDa7hBz04TnaHTwvFHxHGYaURCoiS9fxyTS4Za5uzCq3xv9Q8p6OVMhKsiCBICadu4ZNRYbJzkzMLL/P31/8Bu/+5Ey/cgNCXdoPJHz/8LTL2cekmJMuk4iUSl0GQxPsnAatGztlmon2J15uLkjeL6Fjd23ufnl/+cIPaRRYXV2ef5/vl/TlEvIwoSjdIsF5Zf4++v/+XEvFQQRQp6ZWKeekB3lC6rP8DUSuiqSZxEeIFFEHkTjaEkSRhqEUXWD1k/tEdbfLT2t1jekAvLrzNdWUZXzEO/u+5ol5s7H3Jl89cTf63HjShIlPQmZbNJxWxSNhqUjUa2XaaMImnpQE52EwU5Txhzcr7jJEmM5Y8Y2gd+ux0GTlqIGNr792LL/fHlCfsijpwOltuftHJlSc104PdC70HSCzBfP83Fld/jzMLLmGpxUmWEtHBxoCucrixyfec9PrzzM0pGg2PTl1AlDUEQ8UOPu3uX+asP/1ecwEJE5PL6L1BkFS9wcH0LTS0QRve0mZIoZ8npAz5XhXv2OACiKNIabrLVucFi4wSSKCMIAiWzzvcv/Je8FvwIEFCVtCvkBy6CkBZd0uqeOOkYuYHFwG7z8drPub79TtoNJC1YRFGYTat/eVHnyzCUMiXjIL40s/iSxhlNKaApRp4wPiRHljRGcapPvLH7W3Z6t+jb+zjZfmY/dI5ETCwgIEkKzy2/xXPLbzFbO3ZI13EwDCKLErKkoMoGulKkb+2nlbPe7c899lLzLC+u/iHNTLg7dgfsW23G7oCiXqFs1HB9i83ONfzQpVqcZqq8OHn8du82N7bfoz3auneuokLVnObF1R9iaiUMtchUeSF7jexJ0ieLCrXCLGWzydBOp/bKZoOSXpscX5ZUmqVFlqcusNm5iuNbeIGLoRYQEKiXFqiYd2gNNyaPCSOfvrXP9a136I23KRo1NNlEkTW8wCYIXRx/THe8R3e8QxB6X+v3I4kqulLA1CoUJnrEMqZWoqTX0ZUCmmKmN9lAUwxkUc31iTk532FSX0QX2xthecNU6+4OsfzUVs3xR3iBjRc6E13is+KeEcVhJsHy0JTU0/D4zHP86Yv/EkmU2e7eZqN9ldZgA0GUOLPwMidnn6diNkiShL3BOvuDdYLQY662SrM8j6EVma0dQ5E1NtvXMNTSoc7L0G6z279Ld7z7ueclBCIDa28ShyVBxlSLLNZPE0YBlttP/W4llbJRp6iXJ4/tjffZ7d3B9ga8e/OvOL/8OvXiHJIop1XUSVMsIY5jLm/8mqHdoWTUmamuMHb77HTvTH52FAfYXoDtDb/Way0KUjrMolXuxZgsvhT1GqZa/kx8SdvzuYbxq3BkSaMX2Gz1bnJt+ze0RutPxNxUVXSOTV/k/PIbLDROIYkScRIzsFr0rRZjt48AlMw6tcIMRb2KJEpID7GjeLqyxLHpC1npPGC7e5ObOx8ycnqUjBoVs4Hl9dlsX8OPPDTZwFCLk8cf6P8OSEgYWC2ubb3DheU3Ul9BSUHP9j27gY0fuOhqAUEQWGycojPc5qZvUTYbHJ+5yExtZXK81BdribsodVEAACAASURBVDPzL7Pbu5WazHojDLUAQMWcoqBXDyWNkCaOqW3RblaVVFAlHTcYP3I7QEBAVYyJu78qGaiyhqGWMx1iLdUh6hUKWgVTK6PJRp4c5uTkEMcRTmDh+mPcwML2R4zdLpY3ZOwOsO7TI3rhwy5mELLPoBKmlnaK9gdreIH9WAcrTK1MQatkHrqgqyYzleVD3zNTPcZ0ZTlrRX+I7Y0Y2G1mq8c5Nn2eWnEaP/Tojfe4svE26+2r+KHLYmOD54/9Ps3yQmqeXVnm2PRzhFF4aNDRDewvdasII4+hkxY9CnrqtKGrBc4vvYGqGHRG25BAtTDNXPV4OsGcVf86o22642380OGjtZ8TJxEr0+kAi64WERDwQoex06cz2uLjtZ/TG7co6lXmascZuV1ag41Dlc6vinygb89ijCLp6GqBglpJ44tey+JLlYJWRlcKnxkMynk0jixptLwB13d+S2e89UQSRkEQKOo1fv/Cf8VUeRFJlDJj6wFXt97l02xFXnql9zwXl3+PY9PnaQ03ubz+S3a+oMoIaSXvYMjCD1w22tf4dOOX93aMJglxEhLE/n3/vvdhlJblD1/R+JHLwG5N2uIHs2YCMHYHjNw+epb0HZu+kK4JdLucnP0e5xZfo1GaJYyCSXugXpxhdfYiv7z6b+ll1UFDNSc2EQJfnJTFSUQcRgQP6YElIKT6wyzpPtiJLYky9eI81cIMFWOaiplqEStmI02Cv+Q8cnJyvpvEmeZ9q3ODveEardEG3fEWA7v1tY4rCgK1whxLzTMsNE5RNhv8zSf/F3v9u48Yn9Im6u8yW13l2PRzTFcWieKIZnmeqtlEu2/7liiIxKS6cl1NW6NFvcYrJ/8htcI0giBieUM+Wf81V7feZuz2EAWRkd1mprpCQa+iyhqiIHJh+Q1aw61DbeW09Wt85tzSwdC0BZ0kqcfvbu8uBb0yGSK8sPwGs7Xj9MZpe//Y9LnJ1pcwCuhb+/Ss3UlVsDXc4BdX/i139lN7ttnKCggCfWuftf1P+Xj9b4miVCc5sPfY6l77aq9yFlPuxZf030WjTs2cpVqYyWJLk4o5Rcmo5ZXDI+bIkkbbH3K39cFk/d1Ro0oGZXOKslGf6P9GTpf//OG/PmRsnSQJm+2rDK0279/+awZO6yF9n+450etagVdP/YjzS2/gBy5e6GB7I/YH61zf/i39rOwfRvcE17PV1FV/q3t98n+GWmK2dgIpO984sx1KgJ3uHWYqxyaWOKqscXbxFY7NnJ/oQQZWh+54j6XGaRRZzQaAZEy1zGb7GgOrhaaYtEebmZXE403eFdnIBlVmqJhTh3QiulpElhQkQU6NYIUDc/M8YczJyXkwI6fLnf2P+c2t/0AQedmO5q/vuytJCq+c+lNWps9T0mvEScjy1Hlsb0hntPXlB7iPg0QmPa/DieP5pdc5t/gagiBOJqX9yEPjnlY8TmKGTpcrG79hbf8Tdnq30VWTSqE5iV1xNs18cfn7VIvTVMwGBbVEwaihZcULQRComlN0R7s43j2XilphmunyEqIopUbZJFnruMEfXPqvKRpV/MBlYHf48O7fIEsKhaXXJ0WRaqFJyagCqXehIAhpx87p8Fcf/G9sd28des5RFLDVvU57uDE5/yibXj9IGB8FSZQxlBIVMy083B9jTK2CpphIWZEiLVzIecL4BDiypDFO4ie6b7NSmGJ15hJKdlXk+GP2B5tsdq4xcrqHPnj80KVn7TF02g/tLN8b77PTu8NC4ySiIFLUq5haeSK0DiOf2doxFhonub79HlEcs9u/S6XQBKBemuHYzHPsDzfY6lxHlhSWp87xvdU/mrSQ3cCiNdwiikP2BnfZ6t7g1Pzz6EoBQRDR1cKk8mh7I9Zan/LJ+i+5WV6kUUqTy/3BOpY3JIp9xu4AURAn22MeDSF7vvWslXxPK5La3VQmQmJNNlCzezFPEHNycr4iQ7vNVu8GI7f72Ne5hVGALCroqkkYBcxVj7PZvvqlSaOuFmmWFjkxe4lCNrQ4dvu8ff0/4Pr3bG9EUcLUihT0crp8IfJZb18jCD2a5XnOLLw86TY57ohP1n9Bf7yHG9gYajEz4k4/Mwt6hUvHvk9BK2FoRTTZQJbULK6m+s6h06U93GKt9SmGWuTSse9P1gcuNE7xh5f+BTd3PsALbGqFGU7Nvcix6QtoioHrWwiCyNjt8cGdn2F7I07NfY9aMfV3PBjUiZOYodVlu3uTGzvvsdm5fug5A5nlnPfImncBAV0tUtBqWXs/jS8FvUpZr03iiyqbkzgjS0qeID4ljixpFAUJTTbxI/eJ7HIsGTXm6ycmf+yWO2Svv4btDR94pZq6+z+8pmK3f5eP136J7Y+omlOTiWxJlFFlHV0xKRk1pitL6EqR69vvstG+xonZS0iigqEWmK+v8sLxH9IoziBLKovN0xPLgiSJ6Y/3ubnzAX7o4gU2m51rXN54m9nqMUpZBTUIXbqjXTqjbW7uvs/t3Q/Z7tykXpojAYZWCzcYZ0M/X+1NLIlKqkGUTTQ59UZUFQNdNimbU5kWsTK5GWrpM/6POTk5OY/K0O2wN7iT7Rh+fCRxTGuwyWLjFLXiNKIg0ijPpVrybHK4UZrPkjeFOI6wvCHd8Q5JAoZa5MLym9SLs4iCSM/aZ6d3m432NWxviCiI6Ip5KNkaewPWW5fpjvaYqR3jxOxFRNFIt68kIb3RLm4wfqCmUldMVqbOYvsjHG9MZ7SD5fbxQw9VNhAFiZHTZbt7m53ubUytyHb3NtOVpdQarjjNi8f/gKJexfVtasVpjk1fmEwIj8Iuu727E6mV61vY3pB6cQZNKSCK6RaZMAoY2m02uzdZ27+MF9qf2S72sAiCiCJqk8JCGmvSgZSCVqNsNChkhYj7h1hyni2OLGlUJJWyMUXf3n0iLerU068yGWhx/DGd0e5jEznvD9boW3vc2f+Y03MvMVVepKCX0ysfxaRoVDHUIqIgsjJ9luvb77DZuUZnuE2tNIsiaVTMBs8f+z6XVt4ChMlVZZIkmXfkDa6s/3pS/dzu3qI33ufU/MssN89iaiWGdodP1v+O1mADN0jFzrY/xO48/OSZIAiZTkRGFA80IxKmVqJsTFMrzGYakSaVzKbgwBg9Jycn56iwvD7d8fZjP+6Br+zIeR442FPfwFCLmFqF+fpJXjj2+0xXVzDUAkHos9W9ySfrf8dG+ypdawc/TD2ERUmhZNT43uqf4Po2G+0riKJMUW+gSOlFdBSHjJwu3fEue4O7IKTeiYqULoSQJY2K2SQc+/ihm1ql+XbWTs48cpOY3e5dNjs32OreYLN9jTiJODn3IquzL6AqOpVCk/2hSc9q8d7N/8xrZ35EozSHLCmYWpHnj/3gM6+D61tstK/z/u2/nngzHnjuCoKAoZQQRTkzRXceoUuVdqfSlnF2E0UUSaeo1akVZ+61nLP4oquFzMIu51nnCJNGjVpxjpHbeSJJY5IkRHE0+QM/cHt/nGlOaji6w7u3fjKZuD5Yo/TW2X/Kyyf/ZGJMLSCw073Nj9/9H/nTF/7lxCLh4Nwm501CEPm8d/unfHT357ihNanMJkmM44+4uvlrbu78FjHbCuCFzqNPNgsiiqRRzUTE6Zu3ScVoUDJq6Eohe27SoTd9njDm5OR8U4mTmP3BGmOvlxpNCwK6YlIxpzi78Arfv/DPJ5XCg6rhybnnma+vcmXzbd6+9pe8c+MnvHLqT1hsnEKRNI7PnOfW3ge0R9sEoUvZbKJkusAoDhla7UnLNo5Dhk4vtXsR0+ra8vRz2P4IP7M2u7r1DiWzlg6rZInXte13uZWtlw2jgLMLr3Nx5Qccmz5HAux277LXv8NO9xZXtt4GUeDiyu+x1DyNLH52jaDlDnjv1k+5vPErBk7rM/6HSZLgBONsEUT8SLImSZQp6DVq5mymRbznv1vSa4iifC/GZHEmjy/fHI48adzuXYMnsN89jiOC+0b4Ta1EszyP8AW6h3Rw5GAIJfrSRKxRnuetM/8UP3KzNX594iSiWZpjvn6Cg4k6L3QJ4wA/ctkbrPE3l/9vZqvHma2lN1mUCaOQodNht3+X9nCDrc4NetbeZ1r5SRKnHmTBV/cdU2Ujs7ZJV+0d2EEU9RqGWkCTC4daBcrvmM7m5OTkfB5bW6kWcGFh4bEdU5UMTLWC7Q950HTyo5MQRj5+6BFGIYqkIIoSZxZeIoxDykY9TZCyHymKIqoooUgqJ2dfJIoiPl77BVudm1TMJiWjhirrnF98Hc+3uLb9LkW9dmgQpDfem3SNgiigPdyiYjYm/oAL9RPc2fsQSDtj17ff5dT8C1TMJnJm6n1h+U1mqss4/hhV1piurKSWO4pBFIXc3f+E9mg7s2kbc2v3A/rjXZrlRRrlhWzoJ8Zy+3THu1hun73+Gj1r73OXWSRJ/FCvvChImfawdq+lrFUmen9DKU7az+p9MSbnm82RZQiyrFErzHzmaueosL0RrcEGc7WV9EpHKzFVWURXzM9dOq/JJsvNcxSMCkmSMHZ77A82sN0B4e/oHXWlwEzlOM8f/32C0GPo9LKkMaZZmqWgl0FIxdZr+5fpjfdIklQgfGv3A/YHG+z07zDXP44sKplWpMPuYI3uaPuRzc4PTMLvNy1V5TQRNLUypUM6kUpmqF36Ul/KnJycnC/i448/Zm1tjdnZWRYWFpiZmaFer1MoFB75mLpapGw0cYLh45Y1Ttbreb6Fkk0HT1eXieMYxxuz0bmK7Y3RFZNmeYlacSq1DyvNcnrhJT7dfJu11hWKRpVzi68hCiLz9dXMhqZF2axPvACjOKQ73r0vafTY6d5moX6CklFDkTVma8eYqS5jqAUUWaM72uP23scoksp8/QSypLIydZbZ6gpB5KPI6qT9PXJ6rO1f4cbO+/TH6WawJEkYWPsMrH22u7eoFeco6jWSJMLyBvTGu3ih85VnDA5Ms7Vs+cKBP2K6We0gvqR+iAdaxIPtLznfPo5U01gvTCM9IUPNnrXH7d0PObf0Coqsoikm9eIsM9UVwm6A4x2eIJZEmWpxhldO/aN0FZIks9O9w88//X/YDq8T+oeTOFNLjakd30KRNeqlWRqlOQASYqIoxHKHjJwOv73908/YEoycDiOnw+3dDx75OR603A+8EEUh3WxjqCWq5gzVwmzqWWWkK/lMrZRf2eXk5BwJH374IX/+53+Obdv84Ac/4JVXXuG5555jZWUFwzDQdR1FURDFh08eTLVEpTDN3vAOj7fSmGJ7Q0Zuj2KWNIqChBvabHVu8rOP/k9aoy3qxVkurfwDXjj++xT0ctZurbBQP82t3feRRIml5hmKehVV1pmrrXJ+yTlUSYvigIHTnkiz/NBlo32dC8tvAKBICs3SHKfmXkr1+EaVT9f/nqubv8H1x8iSRtmoocj6ZH1qksSZ4bnNeusaP7/8Fwyd9iFrtwPcwGKnd/MrvjpC1jaWD0mUNNmkpNfT+FKYTte9Gk3KRj1z9shby98lji5pFFUqRvOJtTsdf0RruI7tDicj+RWzzo++99/xVx/879zc/YAgumevUzGnOT59kaWpk2iywcGuTMvtP7DqN7Bb3Nx9D0XWOTn7PI3SLKqikyQJXmjTGmxzZ+9jPt38FWOnR/CAN/LXRVcKVAtz1LM3b2Xy5m1kXlXyxPxUFMX8Si8nJ+dI8X2fnZ0d/t2/+3f8p//0n5ienubcuXO89dZbvPzyy6yurlKtVh/6eOkF8FSmqXv8HHjbztWOA2n1cbt7i5+8/78wsPeJooDOaJv37vxnZqorLDZPYqhFVEnj9MJLtIZrbHdv8ZvrP+H3zv0TdLVAo5ROYXfHuyiSli52iGOiKJhU9cLIY3949z6ZkYAoSpxdfCV7rgnmyTJbnat8sv53rLeuMFtd5fTCK9SLMwgIOIHF7d2P2OhcpT3cxA0skvjxOZOIokTFnM6KD/ebZjezIc/7de5ipunPE8bvGkeW0QnZUvKS3mBgtfCOeBdoksSM3T7v3vwrvnfiD5mpZmuaClO8cfbPOD5zkZ61h+NbVMwGjfICM5WlbH2diBvYDK02Q7v1wPVGURwysFt8uvFLNjtX0BUTUZQggSgJcXyLkdOjP97PJrYf3ZZAk83Jur2iXkt1ItmuZkMtoclmZleQ3hRZyz0Rc3JynjhJkhCGIePxeHLrdDrcuHGD//gf/yPHjx/nwoULnDt3jlOnTtFoNJDlzw87ulqkYjY/b+HK16Y73qU12ICl19Pzj2McfzzR+CUk6SYxt8/tvY8omTUMtYggihT1CoqkMnQ63Nn/iBOzl5irHUvX12lpRTItJMRZ4eHeE0iSVFPZGe0yY3cpm3WAe1vGMp/DKInxAodutIvjW/Ss3bSokW1kGTldxm7/a3kgK5KKrpQoGg1K90mXDjSJmlK4zxInveVa95wDji5pzK6kKuZUupHkCSyQ90OHa9vvUtArCILAdGUJSZRZnjpLs7zA0O7iBhYlo05Rr0xWLXmBw1b7Ble338EJxp+r+QhCj85o6ytvEHgwAgIykmAgiQamVqCoFynoRUp6NdufWZ0YaptqCU3Jl6vn5OQ8u3iex/7+Pvv7+wDU63U+/PBDTp8+zYkTJ1hdXWVlZYXZ2VmmpqbQdf3Q43UlbYUqooafPH6P35HTZWDtZ2v0BBAgLZYdnhNOt7b0JppEASEbThEJQpfOaItP1n+BpujM1Y5nxt6pp2AQeQSR/8DJ49t7H6LIKkuZhVoY+YycHp3RNvuDDcZuD0iLFGO3N/n3oyAgoKlFdDnVIurZQIqplSlq1WyApZoliyUMtZQ+x7wAkfMFHOnlg4BA2WiiKwUeZlHf1yWKQ/rW7mSJuirrmFoJWVIxtdIho9CDK0ovcGgNNvl4/e/4eO1vj8iIXMxWHMkoUtpGjiIRYgNZrKNJDWZKcyw051lozlErVD+zpzonJyfnm0a326Xb7fLuu+8CcOLECd58801efvllLl26xNzcHKZpYhgGqqqiSOqk4hU5IWHyeGU+fmjj+COiOEAS060iqmxQ0GuM3e7EgkYSJMpGfVIJhDS+HCSCrm/zwZ2fMVVZomI2KeiVe98XpXHlQZM8N3Z+y9gdMLS7TFUWU3/ezg3W9j+lb+/zKOXVg7WGB9rHe3p3lXphLms3T2crXpsU9eoDd1Pn5DwMR1tzFgTKegNdefRpukehO97mt7f+P7Y7N3n51D9koXECUysduoIKo4CB3ebG9vt8svYL9ofrRPFnJ6y/PgKSUESTG1TNOeZqi1QLU7Q6It1+AqTaw8BVsUYF3IJMpIM4uQLOycnJ+XawtrbGzs4OP/7xj2k0Gly6dInvf//7vPrqq6yurlIqlZAljWZpETewCP3Hrw0P4xDLG1LUq0iCTMWc5tzC63y09jc4/iiVCKkmZxdTPSGkCeN+fwPHG2dHSYsOl9ffRpNNXlz94eT4QeTj+NYDK41JkrDXv0NntIUoSOkQZRwSRZ/dY/2wqJJByWhQL85TK8xQLUxlxtmNdJDmwGtXzHSI5Fr3nEfniCuNUDSe/FVNHEdY7oDNznWcwKJk1CgbdQqZj5bl9iel/6HdpW/tP/LezAMEJARBQ6KMLJSQhBKSUEAWTEShgKEWaBZrLNanKGgm1mjMQLAmHxNhKNC3AqTWGBColw0MTc6FxjlPHdu2+eijj/iLv/gLer0eUXQUF1c53zSuXLlCq9X6So8Jw5AwDLFtG8uyGI1G3Lx5kx//+MecPHmSc+fOsbw6h2QWEZOjCU9e4NAZ7WGoxdRFo9DkhdV/wFRlnqHTQ5YUpsoLTFcWJ9PQfuByY+e39K39Q8dqDdfZ7Nzg2MwFKmYTURDxQw/LHXzuur0oDr/ycgYBAUGQkCghCiVksYQqlqiXGszUpmiWGxSN4sQDUpVSrXturZbzuDnySmNRr6EpJoIgPPLOykchTqJ0vV57iCTK6EoRUysjSQqON8TJnPgfBVHQEclugo4oaIiCgSQUECkgCUUkoYCEiSQYCIKCIasUVJOSVkVVZCTRTUuJ2WsSxQmuF9IZ2GmFMUmoV8w8ccx56liWxdWrV/k3/+bfoGla/veYA0C/38e2H12rHgTBIf1ju91GFEUq9SKL03Ps2lePZDGEG9js9deYqS6lnoOKwWx1mbJZx/UtJFGmZNQnEqGR0+Pu/qdsdW7g+KPDx/LHWG4Px7coGw0QUm392O0/+o5m5KwAoSNLJgWtSMksUdBKtHsCQaAjCQVUqUhBrlFSG9TMKtWSjiyKeYcq50g5ck1jQS1lV3Qq4RNYJ/ggojjE8vpYXv8rPEpAQEQQZEBKK4nZTRaryEIVmVr2dRlJKCEK2tc7zyjG9QJaPSttpAsCU1UTVcnXLOU8PRzHodfrMRgMeOmll1haWqJUKn35A3O+1bzzzjvcuHED1320i29N0zBNk0KhgGmaXLx4kTNnzrC8tML83DS3B2/Dow8Jfy6ON2K7e5Pzi6+Clg69RHGIIqloBQMpGzYMIh/Xt1hrXeH92z9j5HQPVQhFQUSSVFTFQBaVifjJ9W0GVvsh9PHpMGTapZIQkAERSTCRhAqyUKWgNpmvz7M8tcBUZYbffLpFd5i9KAlYlkRL9BAFC0WWKOgKspQnjjlHx5HP0UuSQlGrUzYaR7KI/qhIJ5uLyGIDhQaKWEMRashCBUFQQJAyjaSY3X/9d2lCVnH0Q1p9mzhJVTEzNRNFzhPHnGeDP/uzP+OP/uiPnvZp5Dxl/tW/+lcMBgPW19cf6fErKyu88sorvPnmm7zyyitMT09jmiaiJBIRTLafPG4cf8Rm5xp+5tvrBw7d8T6uP6ZSmKJoVEiSmJ7V4vLar7m58x6t39G8C4KIppg0y8ss1E/TKM6kFmyQreq7+8AtZPcQEQUFWagjCw0UoY4s1lCoIAkFBEFFEEQMVaWcOWikrebDMSCIIgZjjzhOiOOEldkyBUNFytvSOUfEEzFfMtQSBa36zCaNUlYplIUyEiVkoYgoFtLWMhoiKqKgIqAiCgo8qpD4vm6FkKWav9vASIA4Sxy7Q5ckSYdiqiUdXVUQBSG/isx5qmiallcac9A07Stte6lWq6yurnLx4kXOnj3LiRMnWFhYoNlsUq/XUVUVURRJSEjidEClM9rK9lA/PuI4wgss+uM2AhJ9q8V66wqbnWsgpNtakiTd4jK0O4zd3mc0iIZa4Hurf8xS8wzT1WXEzMfQD1xGbo+h0yHO2tOioCFRvC/OFDMJUxFBOIgvWhpfUBAEiYMYIwpyVoX8/A/9KIqxHJ+97hhRgLlmkWrRQBTzQJHz+HlCSWORgvbwWwGOAkmUUSUDXS2iKwUUySRJVGxHII5MBApIFDJdooGIhoB8T5eS3aWr3B9yECB7zwqCQBInRHFCFCWI6v/P3p0Gx3Veid3/37X3Ri9obARA7CBAEBQ3UeAiiSIVWhtH1tga2ZY944nLk6SSmiyTlJPKpOZLUpWUqyaet2ZSyYw9suPxIjszI8uyJZPaKFMbKZIixQUksRAEAWJHN9D79n5o9hUhgAIpgiApnV9ZZrEb3fd2g/fec5/nPOco2AwNu6mTyeUWXjSnQCabYyaWYmwqiq6p6KqKaSztryydTjM9PU08Hp+3wEHXdex2Oz6fD12fm1uZzWaZnp4mEpl7Qtc0DdM0cTgcOJ1ODGNuG8lcLmflMmUyH58M7vf7cbvdH1sMWAhxe1IUhUAgQF1dHVVVVdTX19Pc3ExzczMNDQ0EAgFstvmjiQoKiqoVOpHYvEseNObJk8ok+WDgtzhMN9FkhPHwIGMzFxZsybfwZ9Nw2n2UldTid5VZxbv7R84xND6Kmi/DodlRsV2ebr4cKFJYGKkpDlRlaRaI5vJ50pnCtUJRoqhKYearxG273LVlSTYjBLBcQaPhxm0rWfwHl4CiKGiqgaYa6KqBrhmXF8K4cNsClLgK7ZHsup9U0snF0RyxRIZM9sPILZvJkMmkyWVT3HBbAgV03SCjqaQyWRKpDC6HicdlEkw7SaUzC5XzsqiqQiKVJZ7K4MrmMPT8kk5Tx2IxPvjgA/r7++cltZumid/vp7a2lrKyMkpLS3G5Cr1G0+k0H3zwAR988MGc1xiGgdvtxufzUVVVRUVFBYFAAMMwUBTFCjZfffVVZmbmJpV/1ObNm1m1ahVut3vJPq8Q4uYxTRO3243L5cLj8bBq1Sq2bt3KunXraG5uvq6Wgh57AKfpYeIm7Gcmm+L9/lc/0WsVVHI5GJkaoqJkCl11k8nmiCfjnDx/juGxJG7trkLeu+pBVewoLE3dXQUWXFSay+fJZ3NEoknr77qm4rAZ6JoiqU1iySxL0Gg33TjtNz9otLrQuMoJulYQcFcScFfgd5XjsfuxGY7LpQtU4skMY1MxFGWKwsjhhwdhMh4lHo2QSsRuuNi3oig4PD7y+RKips7UbByf20bI56LEbSeRKoy2XWWw0WIzCyedwsli6U4A09PT7N27l1/96lcMDc1NH1CUwslG13X27NnDU089xdatW1FVlWQyyYsvvsh3v/vd+ft9+XWtra3s3r2br3zlK1RVVWEYBplMhkuXLvGd73yHCxcufOy+fetb36K8vFyCRiHuEJWVlWzZsoWtW7dy9913U11djWmaaJqGpl1f4OS2B7Cbt18ahKo4UPN+hkdnsSvnGTBmiczmiMxCOlOOQykDnSty3W/sfF0MEJXLtXuv1mGxMNpZCBzz+Ty5fJ7qUAluZ3FxjASO4sYt0/S0C689gMP0kEzHFkkQvjaGZsNl8+FxlOJ1BPDYA7gdfjx2H+ZHezNrNnTNmNOCT1XyKFdJFh4b6mN0qI9YZOqGywQpqkqwvJby6gZ0TUPTdFRFxe+147IbOG2Xp28XOZ61y4VZlzJghMKJJp1Ok0gkSCaTBINBNm7cSDwep7e3l4GBARRFYd++fQSDQYLBIO3t7QCkzDoycgAAIABJREFUUini8TiqqlJeXk4gECCbzTI0NEQ0GuXMmTPE43GGhob4t//231JbWwsUpqgTiQTxeByn00lpaSklJSXzLiqBQECmpoW4jfl8PtatW0dnZydtbW00NDRQXV1NMBjE7/djt9s/cbDisftxLnNjiCJFUbDpTtz2IF5HEI8jgNcRwNA8xGIao5MZUmmdyUknqpohk8mTSuXI5XKFa8aNlpdTCgMgmYxGKp0llc6gqjZKfU40TSGVzl51E4oCuqaSSGWJJlKYhoa2xKV4IpEIIyMjhMNz61EqioJpmgSDQUKhEKZpWs8V+5T39PTMm2UqjlB7vV58Pt+8tKZMJsP09DR9fX0fu1+aplFfX18oEi/XjptiWb5VXTMpcZaywt/KhclTJNPRa3ylgqZq2A03dtONw3TjMAo5iQ6bB5dZWFVW6M98uX+m4b7hO6pEfJbZ8AQzU+Pkcjc20qhqGg6nl3QyQTqdIRZPMZLPE0ukLpdH0Ar9Txd5H13X8LpsBL0OVFW76gkgn8+TSqXo7+9naGiI6elpUqkUJSUlVFVVUV1djd/vX/A7crlctLa28rWvfY1kMklvby/vvPMOL730EsPDw3R3d9Pf328FjUWaprFp0ybWrVuH1+tlaGiIw4cPc/LkSc6dO0csFmPPnj0L5jBVVlayc+dOWltb55xgANatWyejjELcptrb29F1ndLSUpqamqirq6O0tHTBPMVPwmUvwWX3YWh20tlPVtZnMYWe0ib2y6XhHEbhOmM3XJevKcXrSwkumxdydsamksxGpsmlUyRThYApl8uRjM6SiM+SSadueLBB1TRsdheKx0s0ZhCJmpS47QS8Duw2nfTHBI2FftoKuqaiaZcXFi3xDNWlS5d4/fXXOXbsGOn0h8U0FUXBMAzretPe3k5HRweBQMAaLPjVr37FmTNn5ryfYRg4HA7cbjeNjY10dHTQ2Nhonf/T6TTnzp3jmWee+dj9cjgcPP3007S0tMhivZtkWYJGVVHxOkppqdxENDnF+OxF0h8prK0qKppqomsGumZezkc0sRtOvPYQJa6yQmskZykljlIcNje6alxlizfG7vTgKSlFVTVy2RucnlZVXF4/ht2Boqpkczlm4yliiZS1Iu5aYlyHzaAy5MHjNDGNhUccs9ksMzMznD59mv3793Ps2DEGBweJRqOsWLGCNWvWcM8993DPPffg9Xrn3c25XC6am5t59NFHgcLdZF1dHS+99BJQKPIcDs/vIq5pGuvXr2fPnj00NTURj8d5/vnn+d73vsfIyAhTU1P09PTQ0tJCeXn5nNdWVlaye/dutm3bhtPpvJavVAhxG+jq6qKrq4vS0tKb8v52w4nb7sdl9zEdvXTD71foy3z5GnP5T0MzcZgeSpwV+JwhSlwhSi7PXtkN57zZqHgijbJAxfFcNktkapSp8WESsdkbDhp1w8TrD6GqNZimgW1Gx+kwcNpN/EZhgWZ+keuGgoKuK6iKcqOZ+fOMj4/z1ltv8fzzz5NMJnE4HLhcLrLZLLOzs6RSKfx+Pw888ADf+MY3WLduHTabjXQ6zb59+3jjjTdQVRWbzWalLSWTSbLZLG1tbTz00EM88sgjbNiwAVVVSafT9PX18Xd/93dAIcg0DGPeaKLX6+X+++9n5cqVEjTeJMs2fuu0e2muXEcqG+fEhd8yPH1uzvOG7sDnqiToriTgLvzpd1XgcfjRVP1yLuLlQjXFP2+SiuomguXVZLOZG5+eRsEwbRimHc0wCwdvPk9h3c21v7eRy5HP5T/2NdFolKNHj/If/sN/4MKFCyQSicLJJZ/n7NmzvPHGG7z00kv8+3//77nvvvsoKyv7+G0axpxRA7vdvmhgpygKdrud7du38/LLL/Pmm2+Sy+UYGRkhGr3WEWYhxO0uGAze9G24bD78roobDhoVRcFh+gi4Kgh4qgi4qgh6yvG7ynGansszL4V898K1Bq5nZC6bSTMxcpFLF84QnZkif4MzVKbdSSJWi93lxeZwMRkxSKQzlPncuB0mpqGx2BSVAmRzCrqqYug3r26jpmk0NTWxYcMGZmdnOXDggDXL9dxzz9HQ0IDf76e1tXXO6+x2O/X19YRCISYnJzl//jzhcJju7m5GR0e5ePEif/7nf77gNae40DIQCMx53OVy4ff7ZWr6Jlq2b1ZBQVdNGsvWEnRXEo6NE0sVmr+7TA9Omxeb4cTQbVbfzGIu4s0MEBdi2O3ol6dKb7j1ocLlsgfqVXMor9Vie9Ld3c0//MM/MDg4iK7r3H///ezYsYNAIMCLL77IwYMHGRgY4C/+4i+orKycd8DFYjEuXrzIkSNHiMfjnDx5kldeecV6fuXKlaxevXrx/cznSSQSVkkdRVHweDzzpp+hMDqaSCQWbEdmmqYc/ELcppZjYYXXEaTMW0v/6Pvkr+EmW1U1bLoTryOEx1HIRyzkvPuxm25sugNDt2NqNgzdjqGZaOqNn2MURcG02TFMB4aZIJe7sbx9w7Rj2Ozomk4+r5DOZJmJ5UilImhaYfRwsSkqBbCbOlWlbsqDbgz96guRMpkMU1NTvPPOO/T29jI+Pk4mk2HFihWsXbuWlpaWqw4yhEIh7r33Xr72ta+RzWb5/Oc/z9///d/z85//nEwmw8WLF5mYmL8GPhgM8vnPf55NmzbhcDjo6+tj7969vPbaa0xPT3P+/HlOnTo1Lx0KCqlLe/bsYc2aNXMe1zSNmpoaXK5bkwv7WbCsV2RFUfA4AjhtXkLeGpLpQjskm+HCpn/yhOmlpioqebUwpK8sQb9sRb35JQ/i8TinT5/m9ddfJxaL0dXVxUMPPcTnPvc5K2CLxWLs27eP48ePMzg4yOzs7Lz36O7u5v/8n/9DMpnkwoUL9Pb2oigKLS0ttLe3U1lZueD2c7kc2WyWeDzOxMQEr7zyCv39/UDhQK6qqlpwuuDixYs899xzHDlyZN50+e/8zu9cU5AqhPh08tj91ARXMTk7zFT0EjOJCZLpwg2mzXAVctwv5yM6i3nvpvfDPHezkOvuND1oqnHTzsOabhAor8aw2Ukl4zdcdUPTDVwePw53CZqukcvnyWXyZDLXVkcSCjGl02bi99rJ5q5+HYvFYpw6dYrf/OY3HD16lIsXLxIOh8lms5SWlnLo0CG2bNnCrl27qKmpmXcjb7fbqaiooK2tDYAVK1Zw/Phx6/lsNrvg2gC73U5dXR0dHR2EQiEaGxtxOp0cP36c8fFxIpEI/f39NDQ0zBtwCAaDtLa2sn79+mv+PsTSuCXDOIXckkLtxNtRJpMim06TzSzB9LSioJsmmm6gavpNO2lFIhEGBgbo6ekBCnd/drud4eFhhoeH0XUdt9tNPp8nm80yMTExbwVbsRzOyy+/TDqdJhqNWqujKysrMU2TmZmZeXdxuVyOgYEBjhw5wsDAAIODg/zsZz/j7NmzOJ1Oamtrqa+vx+v1ztvvgYGBq7Yha2pqkqBRiM8wu+mi0teAphpcmOxmLHKeaGIKUHDb/XgdpXidhTzEEmfwcmm15c+N1nQDf9kK/GVVN1za90qKujQtaj/O4OAgL730En/1V39FMpm0qlkoisLAwAAnTpygp6cHRVF48skn5938ZzIZYrEY09PTVvWMqakp6/lQKERJyceX3FMUBa/XS2dnp3V9yWQyzMzMzGs6AYXZrOJAxUepqpQXuplk7m8BsZkws+FJkvHoDZdOUFQFV0kQl8ePzelC027OVx4Oh+cEgc899xzPP/+8dfAUD7Ki2dlZEonEnNE9VVWpqKhgz549jI6OcvToUbq7u8nlcuzfv59UKkU2m+UP/uAP5mw7lUrxgx/8gB/+8IfWY9lslnw+z+rVq/na175Gc3MzTqeTeDx+Uz6/EOLTyWY4qA42Ux1oWmCK2lpOePl/ty5YKOZF3sJd+EQOHDjAvn37iEajlJaW8vTTT7Nr1y5UVeUv//IvOXDgAMePH+dv/uZv2Llz57wcw0gkYlXaiEaj/OY3v+HNN9+0nl+9ejX19fWL7kcmkyESiViBoGEYV81PzGQyxOPxeXnyiqJYDSjEzSFB4wImRi4wMthLNDJ1w9MMqqpSWrGS8pomdMO8aUFjLBYjkfhwRbrb7cbtdl+1/EWxNeCVSkpKWLduHf/0n/5TUqkU09PTvPPOO3z7299mdnaWEydOcODAAb7yla/M70iQK9QoK9bpampq4p577uG+++6jq6trwVFGKJxQnnjiCVavXo3dbp/3nBBCfLgA8vaVzxXrNOZufLBBKbRSVG7iqFkulyMcDnPs2DG6u7txOp08/vjjPPDAA7S1tZHJZHjyyScZHh62FjIODQ3NWwAVjUZ59dVXOXHihDWLFQ6H8fl8bN261Row+KjirFc6nWZiYoLjx4/zwx/+0Goy4XQ6aW5uxuFwzGs5u3//fs6ePTvvuuLxePgf/+N/sHLlyiX+tkSRBI0LSKeSJGKzxGbDSxA0aiSTMXKZzI0XfP0YH100UmzddbVyGBs2bMDv9zM9PT3nPfx+P42NjUDhpGIYBi+88AInTpwgHA4zOjpKMpmcM2pZrNPY3NxMWVkZDoeDsrIyWltbaWpq+thV2j6fj87OzgVL7sjdohDiTpDLZohGpohFZ8ikkjd8rld1HZvDjctTgmGzo6pL04bwSrlcjomJCcbGxohEIjgcDs6dO8dzzz3H/v37rQBwdHTUKsw9MTFBMpmc9z7F8jmzs7NEo1ESiQSapjEyMsKRI0cIBALzRhsnJyeta4uiKFy4cIG33nqLcDhMfX09mzdvpqamBtM05wWNo6OjjI6OzvtMgUBAqnTcZBI0LsDl8eMPVWGzO5ckaCzxl2NzulCvs43W9SgpKZmTa1JfX8+DDz7I2rVrrSno4hR1Op3GNE1UVZ0TNBbv/DKZzJyuLcVuLTabDYfDMS+pWdd1tm/fzmOPPUZ7e/t1FfdVFAVVVa3/hBDiTpPNZJgaH2ZiZJBEdObGgkYFdNNGSaAcVW0o5MPfpKBxamrKmqFKJBLs37+fN998c94Nu8vlwm63k0ql5p3/HQ4HnZ2d7Nq1i6mpKY4fP86JEycYGBjg0KFD6LqOz+dj5cqVc2aoJicn+cUvflH4yJfb1bpcLlauXMnOnTt5+OGHr9qrvKysjPLy8gVHGqXe780lQeMCKle2UF7TSL7YEuoGKIqCquk3PTk3EAjMSTbeu3cvoVCI+vp6AoEAiqLMWd1cXl6Ow+GY8x7F8jczMzMkEgn6+/t5+eWXreLetbW1VpX+K1deF/NIPm46XAghPq2yuQwzU+NMDA8U6jTe4GCDaXeSz+XwBSvIeT5+EcknlcvlrELcUEilKl5HFiqPFgqFcLvd89q9lpWVsX37dv7ZP/tnQCHH/W//9m/5r//1vzI9Pc3bb7/N3XffzZ49e666L6qq4vP56Ojo4Pd+7/fYtm3bx04x79ixg69//ets3rx53nPX2+NcXB8JGhegqCqaqhTuFm8kZizGiMrNX81ls9nYuHEjTz31lFWr8ZlnnuHll1+msrLSqtSfSCQoKSnhW9/6Fp2dnXPeIxwO8+qrr/Lkk09aI42Tk5PW811dXezZs0dGBIUQ4gqqquF0l+Dxl6Lpxo0NNihg2uyFTmKmDfUG6/tejaqqVn9wKHRT+ef//J9z11134ff75/28YRhXLZ320Z+rrq5mzZo1HDhwwMpb/Oi0dmVlJY8//jgbNmywBjFcLhdlZWVXzYG/ct9VVV0wQJS0pptLgsYFKEpxdkG5poKyi7wb5PPXdBJRihvn+v/hq6pKS0sLX/jCF8jn8/z2t7/lwoULDA4O4vF4rILbhmHQ3t5u3V0WXwuF/p5jY2OMjY0BhUTkQCDA+vXraW1t5dFHH7VqcSnK3NqT17O/H32tEELcyYp1Gm1ON+lU4kZnp9F0HbvTg8NdgnqTFk9qmkYoFLKmc7PZLMPDw2zbto22tjYrmMxms6RSKdLpNG63e96gQfH5WCxGNptlbGyMc+fOcenSJfL5PKFQiGAwiGEYcwJHp9PJ6tWr2bJlC1VVVdc9QijXkVtDgsYFpJIJMqnkktRpvC6Xu8fopolhc1z3SutQKMSWLVtwu934fD66u7tJpVJkMhkURUHTNGsKoNgNxuFw0NzcTFdXF+Pj43Per6SkhMrKSurq6ujq6qKhocGaAtd1nebmZu6//35M06S2tvaackk0TcPj8bB582bq6+utfZEpBSHEnUrTdLyBMryB0BLVabxcQugmBkXF6eiVK1dSUVHBxMQEe/fuxe12MzU1hc/nI5/PE4/HSSQSmKbJtm3b5qUgxWIxzp49y759+0in05w/f55XX32VM2fOANDZ2Ulrays2m21O0KiqKna7HZvNJuf/O4gEjQsIj48QnrhEPDZzwz1Er4eiKGi6gTdQRqC8Gqf7+nJZiu36tm7dytatW0kkEkQiESKRiFXc2+v1zslXKS8v5xvf+Abf+MY3rmtbTqeTP/qjP+KP/uiPrut1pmnS2NjId7/73et6nRBC3M7utDqNiqLgcDjYtWsXo6Oj/OhHP6Knp4dvf/vbeDweQqEQqVSKyclJdF1n06ZN3HXXXfOCxvHxcX784x/z4x//eM57F/P4H3vsMbq6umRk8FNCgsYFhKdGuDTYQzQ8SZ7lCxpBQTdsZDJp3CXB6w4aP6pYQsfr9VoHsfRyFkKIpZfP58jn8oU/l3OCSinWdVRRPkH+Y2dnJ4qi4PP5+MlPfsLk5CSxWIyhoSHy+TzpdJqKigpWrFhhTU0XrycLCYVC1NTUsGrVKrZt28a2bdusma2PBo7Xkx8vufS3B4kgFqBw+R+2qkB++e6MittdqhK2xWThj/Z0FkIIsXSymTSRyVFmI5OkkollTWtSFNB1E6e7BH+oCt28vgoWXq+XNWvW4HK5qKurY2pqing8TjqdRtM07HY7paWlNDU1WSlItbW1PPHEE6xZs2ZeDUWPx0MgEKCiooLm5mb8fj+GYZDL5XA4HPz+7/8+DzzwAIFAgDVr1uB2uxfdR7vdTmdnJ3/2Z38GQHt7O7W1tdf1OcXSkKBxAe6SUkozadwlgWWdnkZR0HWDkkA5ps2++M8LIYS45bKZDJOjQ4xe7LncFGI5g0YFm92FP1SF2xe87qBRURSrG9i6deuIx+NWhzHDMKwajVfmHa5YsYIVK1Zc13aKOYxPPvnkdb0OCrNmbW1t1kJMcetI0LiAUNVKguXV5HPZeYVMbyar0LWmo0hisBBC3BHy+RzJ+CyxaLhQpzG3vEFjJp3G7vIsyfXK4XDMq+ErRJEEjQtQVRVFVSF/i74eSRgWQog7hqrpeINlZLMZEr6ZGy7ufT0UVAybA2+gDF2XVCRxc0nQuBBFmVMzUQghhLgaTdPxl1bicHrIpFPLOz2NUuhVbXehG9KRS9xcEjQuIBGbJZWMkUmnl33biqJiszswHS65axRCiDuAqmk4PT4crpJCM4elKdZ4zRSlsHJaUWWgQ9xcEjQuYOLSAGPD/cyGb7yH6PVQLpfcCVXWUl7bhLskuGzbFkII8ckpiooiqejiU06CxgVEZ8OEJ0aZDU8sb9CoKOimDbvTRSBVs2zbFUIIcWPy+RzkWd4uYhalUK9RahmKm0yCxgWYNgdOj+9yz+hlLrljmNgdbjRNpqaFEOJOkEmnmBq9SGRqjGQituxVN0zTjqvET6iyDkPKtYmbSILGBXj9IVRFJRmMLnPpBFB1Hbc3iGmXkgdCCHEnyGYzTI4NMXz+DNHIJLllHGxQFQW700NpxUp8pZUSNIqbSoLGBfiCFXh9peRy2WVfBaeoCqpmoEqdRiGEuDPk8+QyGXLZ7OWGEMt33cjn8+SyGTKZNMvav1B8JknQuIBCnUYTjfxyHvsFhVo/UqdRCCHuEJpuEKysRTdtJOPR5Q3eFAXDtOHxBTFMGWUUN5cEjQtRlMsHvcIStYG+6bLZLBMTE4yOjs55vNi6ye124/F4pNK/EEIsMU3T8fpKsdmdZDPp5R1sUArbN2wONCnTJm4yCRoXEJ2ZJhGbJZNKLnsPUVVVsTndOFxejOvoIZpOpzl16hR79+6d87iqqjidTjweD5WVldTX19PY2IjL5ZrTS1QIIcQno6gqNocL0+4oXDOWOWhUFOVyncbrWz2dy+UIh8PE4/E5j2uahmEY2Gw2bDYbui6hgiiQfwkLGBvqZ3Swh5nwBLlsdtm2qygqhs1GWVUDK+rbMAKha35tOp3mvffe4zvf+Q5QOOhVVS30Jc1kyOfzVFdXs337dr7+9a/T1taG1+uVaXAhhFgKioKiaCjLntMEn2RKLJ/Pk0qlOHnyJP39/XOes9lseL1eAoEAFRUV+P1+7Ha7DDQICRoXkoxHic2Gic+GLyc1LxNFIZO2kYhGClMcN6C8vJzy8nIMw6C3t5dwOMylS5f4zW9+Q09PD3/2Z3/G3XffjWmaS7TzQgjx2ZTP58mkkmQzaXK55RtoKFJUtTBFbdqvebQxn8+TTCb5x3/8R37xi1/MfT9FQdM0NE1j1apVPPjggzzyyCOUl5dL4PgZJ0HjAtxeP4HQCuwO17IHjbph4vGHrmtqeiEbN27kvvvuo7a2lsnJSd58803eeustzp07Rzwe5/Tp0zQ0NFBeXk4ikeCtt95ifHwcv9/Ppk2bOHHiBD09PUxMTKDrOi0tLaxevZqampo5o5OpVIqJiQlOnjzJ4OAg09PTZDIZysvLaWpqor6+nvLy8jn7ls/nSafTnDt3jnPnzjE0NMT09DROpxO3243T6bR+trq6mjVr1uDxeOjr66Ovr49IJEJNTQ0ul4uRkRFOnz7N9PQ0wWCQtrY2Ojo68Pl8KIpCLpdjZmaGM2fOMDg4yPj4OJFIhFgshtPppKysjIaGBtasWWNN2U9OTnL06FGmpqYIhUJomsbhw4dxuVx0dHQQCoXo7+/n5MmTlJaW0tbWxqpVqzAMQ0ZuhfgMyqZTjA2fJzw+TCI+S25ZS7UpmDY7Hl+IypXNmHbn4i+6LJ/PMzU1xdDQEJqmEQqF8Hq9pFIpxsbGiMViTE9PMzU1xejoKN/85jcJBAISOH6GSdC4AK+/DE03SSfi5FnGoBFQNQOnu+S6DvyFrFy5ks2bN9PZ2Uk+n6eystIKnqLRKIODg0xOTlJaWkokEuHFF1/k1KlTBINB+vr6OHr0KGfOnGF8fBzDMFi1ahUPPfQQO3bsYMWKFQBEIhHOnj3L/v37OXbsGBcuXGBqaopMJkNFRQUtLS1s3LiR7du3U11djWma5PN54vE47777Lr/97W85duyYFWw6HA68Xu+coHHLli3U1tbidrs5c+YML7/8Mr29vdTV1eFyuRgeHubkyZPWZ1mzZg07duxgz5492Gw2stksQ0ND/OQnP6Gvr4+xsTHC4bAVNBb3s6enh127dlFeXs7ExAQvvvgifX19BINBVFXl4MGDuN1uNmzYQHl5Od3d3Rw/fpxQKMS9996L0+mkpqYGm+3Ggn0hxJ0nm80QmRxlZLCH2cjkstb3RVGwO92kU0lCK+r4pHNHNpuN9evX097ejmEYDAwMcOLECfr6+jhy5AjxeJzdu3fjcDhwOBxEo1F6enrIZrMEAgH8fj/Dw8NMTEyQTCax2+2UlZWxYsUKnE7nvMGGcDjM8PAwMzMzJJNJVFXF4/FQXl5OIBCYcx2Ay6O5mQxDQ0NMTEwQiURIJBI4HI55eZcVFRWEQiF0XWdkZITJyUkASkpKMAyDsbExJiYmSKVSeDweampqKC0txW63W9uamZlhdHSU6elpYrEYyWSSTCaDaZr4fD7Ky8sJhULWOX9ycpJLly4Ri8UIhULMzs4yPj6OzWajrq4OgPHxcYaHhykvL6eysvKODMAlaFyA0+vD4fIUqvovZ0cYCsnMqqYtWZ3GQoK0QkdHB/X19dbj4XCYaDRKLpcjFotx5MgR3n33XRRF4Ze//CWapmGaJoqiMDs7y9mzZ4nH47hcLj7/+c+Ty+U4e/Yszz77LH/1V3+Foig4HA5M0ySbzdLf38+bb77JO++8w/T0NF/60pcIhUJkMhlGR0f5X//rf/HOO+8QjUbxeDzous7Y2Bjnz58nmUwC4PV6WblyJel0mnw+z9DQEEePHuXdd99F13Wy2SyGYeBwOMjlcoyMjHD8+HFOnjzJ9u3bKS0tJZ1OMzQ0xLPPPouqqui6buV6Fk9ahw4d4oUXXqCyspKSkhIikQiHDx/mxIkTzM7OYhgGLpeLmZkZTp48iWEYJBIJdF3n7NmzhMNh66QjQaMQn1V5UBRUVSOvLm99X1VVb7jSh8Ph4P777+ehhx5i5cqVTE1N8fOf/5zvf//7HDt2jNHRUU6fPk1VVRWapjEwMMD3vvc9otEonZ2ddHR08Oqrr/L+++8zPT1NIBCgq6uLxx57jObmZuvcmEqlGBoa4tixY7z++uv09vYyOTmJYRg0NDSwZcsWNm3aRGNjoxXEASQSCYaHh9m3bx+HDx+mt7eX8fFxQqEQgUBgTmWQhx9+mPvuuw+32827777LoUOHSKVStLa24vF4ePfdd3n//fcJh8PU1dXx0EMPsX37dhobG611AL29vezbt49Tp07NCYa9Xi+rVq2iq6uLbdu2UV9fj67r9PT08Otf/5qBgQE2btzIhQsXeO+99/D5fPzu7/4u+Xye9957j/3799PV1cXu3bu55557KCkpubFf3DKToHEBmqqRVzUKYdvyF2oslGpc2mnOWCxGIpGw/n618jvFu7nOzk62bNmCzWbjhz/8IRMTE5w4cYI333yTxx9/nFgsxq9//WueffZZoLDw5oEHHmDt2rVcunSJf/zHf2RiYoKenh6eeeYZNm3ahMvlIhaL8f7773Py5Emmp6fp6uriX/7Lf0lVVRVvvPEGv/rVrzhw4AAAX/3qV/niF79IRUXFnLux4j7m83nuuusuHnzwQWZmZnj++edYPtWuAAAgAElEQVTp7e1lZmaGY8eOsWnTJpxOJ6WlpezZs4c1a9awcuVK/H4/hmFw8OBBnnvuOQ4cOMD09DSnTp2isbFx3ndSX1/PU089xXe/+12Gh4dxOBxs2LCBuro6jh49SiQSobu7mwceeGBJf2dCiDuDbpiUVzfhdPtIJmLLXnXDMO24S3yYS9QNRlEU3G43O3bsYO/evRw7doxMJsPIyAjxeBy3283IyAj79u0jHA7z+uuv43A4iEQiJJNJstksmqZx7NgxUqkUjz/+OGvXrgXg1KlT/OhHP+If/uEfiMfjpFIpq+3iqVOneOWVV9i5cydPPvkkO3fuBAol5U6ePMm3v/1tjh8/ztTUFOl0mmw2y+DgIJqmzRnJbG5uZvPmzdjtdrq7u9m/fz/nz5+3Bhji8bi1nwMDA7z//vv09PTwp3/6p5imSTKZ5ODBg/zlX/6lNcKYy+XI5XJomkZPTw8HDhzg9ddf57//9/9OMBjk4sWLvPHGG9ZnyGQyJBIJNE3jzJkzZDIZpqamiMfjDA4OWt/j1q1bl+R3tlwkaFyIolxx03Zn5qjlcjkymQzxeJzJyUleeOEFDh8+bD1fWVlJMBic9zqn00ldXR1f/epX2bRpE5FIhKGhIfbu3cvExARDQ0Pk83nOnTtHT08Pk5OTmKbJl770JR5++GGampqIRCJUVFTwi1/8guPHjzM2NsaZM2eora0lk8lw4cIFotEoTqeTxsZGurq6cLlcAFy4cMEKGsvKyqioqMBut8/LFczn8zz66KM89thjbNiwgXg8zqFDh+jt7SWdTjMyMkIymaSkpITa2lq+/vWvU1paSklJCTabDVVV8fv9dHd389vf/pZsNsvY2BgzMzNzttPW1sbu3bu57777ePbZZ7l48SKVlZU8+eSTAAwODnL27FmGhoZIp29s8ZIQ4s6kahourx/T7iB7+YZ2uSiKgqppGKYNTVu6Oo3FEnDFc2+x5q+madaN++zsLDMzM8zOzuJ0OmloaKCjo4PR0VEOHjzI5OQk+/fvp6WlhTVr1hCPx/l//+//8dJLL3Hp0iU0TWPnzp14vV4GBwd56623iEQiVhC6bt06vF4v4+PjHD9+nLfffpvp6Wm2bdvG9u3b8Xg8vP322xw8eJALFy7gcDj48pe/zD333IPX6wUgmUwSjUaZmppienqaXC7HPffcQ21tLVNTUxw4cIDh4WF6e3vp7e2lqakJgGAwyMaNG2lqarJGMlOpFN3d3bz++usMDQ1x+vRpTp06xV133UUmkyEajTIzM0Mul6Ojo4Oamhpeeuklzp8/j9/vZ+XKlZSXl3Pw4EH6+vro7e2VoFHcPNcTvp4+fZpf//rXHDlyhKmpKfbt28fp06dxuVw0NzfT1NSEz+eb9zqfz8eOHTu47777aGhoYGJigocffhjDMBgfH6ejo4NcLkd/fz8TExPkcjkMw+Chhx5iy5Yt+Hw+MpkMTqeTkydPcvz4cbLZLOfPnyccDuNwOMh+pIxR8e7NNE0M48OTntPpXLCepKZpuFwudu7cya5duwiFQmSzWR544AF8Ph+lpaWUlZVhmiaapuHxeGhsbOTixYv09fXNmZofHh623jcej5NOp+cEqI2Njdx9991WTiYUTibbtm2jv78fu91unSxyy7loSghx21AUFcO0oRsm+VvQSayYhnS9dRqvlM/nrdG0RCLB+Pg4b731ltUwQtd1Kisr5+UaAtYAwBe+8AXWr1/P6dOnrTSfM2fOcOHCBRKJBP39/bz99tv09fXh8/nYvHkzX/ziFyktLeXcuXPYbDaOHDnCxYsXOXr0KL29vaxatYrx8XH6+vqYmJjA4XDQ1dXF008/jcfjoaKigomJCS5cuIBpmuzYsYPVq1fjdruJxWJzPp9pmmzYsIHHH3+c1tZWBgYGOHLkCLFYjEgkwoULF6irq8MwDNra2nj66afnBY2nTp2it7eXixcvEolE6O3tpbm5ec73UV9fz44dO6itrWXv3r2kUinq6uq49957KSkp4ezZs0xNTc25/twpPrNBo6IU/lPvkNWuqqIU9vkaf/7ll1/m5ZdfBi5PX1zO/WttbeWrX/0q7e3tuFyuOVPW8GHQWFwA4vP52L59O2vXrrWCQSgk9M7Ozlrvv2LFCis3Q9M0qqurrb/ncjkmJydJJBIEg0GrbMPMzAxnz57lzTffpLm5mUOHDnH69GlUVcXtdhMIBKwRyCvpuk55eTmNjY2UlZVZj331q1/liSeeQNM0fD4fbrebbDbL1NQUR44c4bXXXuPw4cPWqnBVVclkMtb75vN58vn8nKDR6/VSWlo6Z/s2m41QKMTg4OA1/jaEEJ92iqreofNSBblcjomJCc6fP8/U1BRnz57lBz/4gRXMlZaW0tjYiNvtnjerUlFRwf33388f/uEf4vF4CAaDjI+PMzo6SjqdRlVVKzWpONpXXV3Nt771LVpaWvB4PKxfv57m5mb+43/8j9aN/cmTJ1m5ciXRaJRIJAIUzsmhUIjS0lI0TaOtrY1Q6MOaxg6HY8GakqqqEggE+Bf/4l+wZcsWgsEgAwMDfP/738c0TTwej/W5bDYbra2t1NfXE4vFSKVSzMzMkMlkWLFihZXalc1mmZycJJVKzdnW9u3b2blz55wR5/b2dh566CGGhoaw2+3EYjHC4fDS/QKXyWc2aFQVBUPXsJsasYRCZvlLa10XQ1cxjULB7uuhKAq6rtPY2Mi9997L7t27ufvuuxcMxhai6zo+nw+v10s+n0dVVWvxzJUHSjHno5hb4na759SAzOVy5PN5/H4/nZ2dVoLz4cOH+Tf/5t9gGIY1jeDxeHjiiSdoaWm5rk4EZWVl5HK5OdMqY2NjvPbaa/yX//JfmJ2dJZlMous6tbW1OJ1OxsbGuHTp0jVvQwghPo0ikQh//dd/zf/9v/8XVVVJp9PMzMyQSqXo6OjgS1/6EnV1dTgcjnlBY0NDAzt27MDhcKCqKrW1tXzxi19k69at5PN5amtrSaVSXLx40RqocDqdtLW1WdcCp9NJS0uLFZAlk0mGh4dJpVK4XC5KSkrI5/OMjY1x9uxZ+vr6qK2t5dixY9Y5vBgYLpSvX0y96ujoIBAIoKoq5eXl/Lf/9t9IJBJ4vV5WrFhhXbeKueqvvvoqx48fp7+/31qFPTExYb3vQqkIFRUVBAKBOT/n8XgoLS1laGjoE/+Obgef2aBR01TcDpMVIS+qqjIbS5HJ3l7Ti8XRUEPXKQ+4CJY4MXSVaxlvvPfee9m0aRP19fXY7XZ8Ph+VlZVUV1dfVyeY4rTHlcFqPp+npKTEOjCL07yNjY34/X7y+TzhcNg6OVx5IM/MzNDT02OdCPx+Pz6fj2g0SjAYpKamho6ODh588EHq6uquq+5hsRjtlXp7e9m/f791UtmxYwePPvoolZWV6LrOs88+y09/+tNr3oYQ4jNM4XLbvlu9I9dCsWbTrmV3c7kc09PThVcqCna7nZqaGjZs2MD27dvZtm0bLpdrwXOyYRg4nU7rOuFyuaipqbFq9NpsNkZHR4lEItbszkdzJnVdJxAIWAMFuVyOVCpllYwrVv/IZrPs3buXvr4+3G43AwMD9Pb2UllZyY4dO6xSOx+lqqrVGrF4nbDZbFbKVTFFSlVVRkdH2bdvHz/96U+5ePGilYpVLO9T/JxXy129siPbldu/08rrLOSzGzSqCg6bQchXqB8VTaTIZG6voBFAVcA0DIIlDjwuE01Vr+mEtWrVKnbv3s369euXvAyMoihUVFRYicbZbJaDBw8SCoVYtWoVqqryzjvvcPHiRaBwANXW1uL1epmYmODIkSMkEgn8fj/r1q1j48aNpFIpSkpKqKmpsYqCL0W3mpGREc6ePWuNkq5evZonnngCr9dLd3e3lMgRQlwzRVHQNRWboRFVlUJFtjwsf5WNRSjK5WuHhq6pqOriFw3TNGlvb6empgafz4fT6WTFihWsW7eOVatWUVFRcc2b1zTNqudYpKqqFZRBofXt2NgYZWVl2Gw2q61hMRDTNA23223NbhVz4R0OB9PT07z//vuk02lcLhd1dXWsXbuWRx55hEAgcM2DDcXakB/V3d3Na6+9xiuvvIKqqmzevJn29nYrV/6nP/0pp0+fvubv49PkMxs0Fg5+BZfDQNc1MtkcuXzuNjz2FTRVvXzwK9d8MNhsNpxO500JihRFoaamxjrYM5kMe/fuRdd1IpEINpuNn//855w+fRrDMAgEAjQ2NuLz+RgdHeX8+fPWwV5fX8+9996Lw+HAMAx0XUfTNMLhMG63G7vdft1T8lfKZDJW3UeAaDTK0NAQw8PD/OxnP5uzolwIIT6Oqqo4bAZet514KkM6XUi7uc0uG6gK6JqGx2nDaTfRr2GEy+Vy8dhjj/HQQw/R0tKy5NcO0zSpqqqypqOj0SjHjh1jw4YNBINBotEoZ86csRavFEc6bTYb/f39nD59GkVRCAQCtLa2UlZWRiwWo7Kyks7OTqsw+Y1cL4o++OADTp06ZbVT/PKXv8zjjz+Oy+UiHA7z1ltvSdD4WVSY/lWxmyq332H/IeXy/98uUyKqqtLU1MRdd93F4cOHOXnyJN3d3QwMDPDMM88AhRNCMpmktraW3/md36GlpQWXy2WtZDZNk97eXv72b/+Wn/70p1YwbLfbCYVCbN68mYcffpjOzs4bKn4aCoVoamri6NGjZDIZfvKTn/DLX/4SKNSujMfjN/x9CCE+GwxNxeexo+sqhq4TjSdJZ7K312CDcrnChN2gMujB67JhMxYPGhVFweVyzctHXyo2m42GhgZr9HF0dJQf/vCH5PN5q0zP3/zN31ipRG63m7a2NhwOh1XaTFVVqqur2bNnDzt27MBut2Oz2az/liJghEI+Y3GhJ2ANwIyMjPCjH/2Ivr6+JdnOnegzHTQWFVYl3yYR2Sf00RHIm90DuVjaQFVVfvnLX3Lw4EFrdRsUTlqbNm3ic5/7HJ/73OesxGO3283KlSsxDMNKpi7uazweJ5fLMTY2xtjYGH19fTz++OP83u/93if+PM3NzTz44IOcPn2anp4eZmdnrZPBli1bcDqdXLp0iRMnTiz4+o/m3Vz5+Mf9XQjx6VPIMVfxOEyqyzykMs7bstRWcaGn025g6NeW0nTlue5mnM+cTicdHR10dHQwPDzM5OQk7777LmNjY/h8PhKJhNVhq6Wlhe3bt1NbW4vNZqOkpIRgMEgul6Onp4e/+7u/45VXXrFyB+12O+Xl5bS1tdHV1UVFRcUNjZRWVFRQVlbGuXPnyGaz/O///b/55S9/SSKRoKen545fzHIjJGj8lDAMg7Vr1/KNb3wDgM2bN88rFbMQTdPwer3s2bOHzs5OKisrr7mHckNDA3a7Hb/fT0dHB5OTk2QyGTRNw+l0sm7dOjZt2kRLS4uVlzI6OsqhQ4dIJBJUVlbS3t7OmjVrgELQODw8zJkzZ6yyODU1NezZsweHw0FbWxuPPfYY69atIxAIWD2wP05paSn33HMP4XCYs2fPMj09TT6fx263c8899+B0OhkdHaW7u5stW7ZQVlaGoig89thjbNy4kbVr11JeXm61T7z77rtpa2vDZrNRXV3N7t27aW9vt0pRCCE+3QoBmYrXZbKMNbyvW2EmbfEAcLlueA3DoLS0lN27d5PL5Xjrrbfo7++36kAWg9b29nZ27drFP/kn/8TKNwwGg1RVVZHP5xkfHyccDvPBBx9YeZCGYRAKhWhpaeHixYt87nOfo729/RPv6+rVq1m/fj09PT2MjY3x7rvvAoV8yqamJmpraxkfH7/q66/2vV/52M0Kzm82CRo/JWw2Gzt37rTaLl2r4sH2x3/8x9e9zWLpmtraWj7/+c9bjecNw6CkpGTeSrFMJsOpU6f4/ve/TyaToaOjg9/93d/lK1/5ilUz8dChQ3z/+99ncHCQmZkZq1m83W5ny5YtbNmy5bo/38qVK/nmN7/JzMwM0WiUfD6Pz+f72OmMhb6PP/mTP5nz99bWVlpbW69rf4QQdz5FUdDuwAv+lYrl2Kqqqli1ahU+n49AIHBNU9PFRSrNzc3MzMxQXV29YNHvhba5e/dugsEggUCAffv2WaupiyOGTz75JA8++CCrVq0C5hYdL5Zzq6qqIhAIkM/nmZmZIRwOEw6Hee211zh58iRlZWW0traiqiqhUIj6+nq8Xi+1tbVzGkhczerVq5menmZ0dJTjx4+TSqVQFIXS0lIeeeQREokEp06dYmxsjGAwiGEYeL1e6urqyGazhEIhHA4HbrebVatWkclkKCsrwzAMPB4P9fX1pFIpq87wnUSCRrEkiiOWRQsFY6lUikQiYU1LJxIJK/fRbreTTCaZnJxkeHjYOpGYpklJScmS3JG53W6rPuWdepcnhBBLoZjD+Cd/8if8q3/1rwqLfByOawoaXS4XmzZt4mc/+5nVacXhcFxTXV273c7mzZtZu3Yt//pf/2smJyfJZrPWrFUxT/HKVdYvvPACzzzzDJqmsX37dr785S+zbds2oDAY8corr1jtCUdHRxkdHWVmZgafz8fv//7v89RTT5HL5dB1fcHV0gvt4/bt21m/fj0TExNEo1EMw8Dv91vXuWJt4uL+hkIh7r77bqsJhmma1NXV8fzzzwNYq8kDgQDr1q0DuCm5ozebBI1LaHR0lLfffpt9+/axadMmdu3aRWVl5a3erWWzWBKy3W6noqKCtrY2enp66Onp4Qc/+AH79+/HNE1SqRSjo6NW/+jdu3eza9cudF1fkgBPAkUhhPiQoih4PJ5rCqQ++jrTNAkGg59om6ZpWl1YikW7i3USPyqZTBKJRIhEItaMVHFkT9d1q9FEMVc9l8ths9lwOBwoioLT6bymUdCP7qPNZsM0TdxuN5lMxqrzeLVai5qmLZjW9dE0seJnv1NJ0LiEYrEY3d3dvPTSS1bOnPiQrus0Nzfz5S9/mbfffpvz588zPj7OwMAAUAgqPR4PdXV1bNu2jUcffZRNmzZJoCeE+NSKRqNzVuoWVzB/FhSLiH8cXdfx+/2UlpYyMTFBf38/L7zwAn19fRiGQSwW47333mNgYADDMNi4cSMNDQ1LEphdGeCKAgkaxbKqr6/n61//Op2dnRw9epRz584xNjZGJpOxkp0bGhq4++67qa2t/cycPIUQn03hcJhz584xNDSE3++npaVFzntXcDgctLe309XVxXvvvcfY2Bg///nPyeVyqKpqjQAWf+4P/uAPWLt27ZKV3xFzSdAollUx93H79u10dXVZCc7w4eo5TdPQdV0OeiHEZ0J/fz//6T/9J5566il8Pp/VMk8UPPDAAzQ0NPDGG2/wzjvv0NPTw+TkJLlcjqqqKurq6lizZg3btm2jublZgu6bSIJGsewURcEwjGtaxSaEEJ922WyWaDRKKpW6Les+3moOh8NaAd3V1cXs7KzVctDhcOByuaxajlf2wBZLT4JGIYQQQty2VFW1FrTU1NTc6t35TJNwXAghhBBCLEqCRiGEEEIIsSgJGoUQQgghxKIkaBRCCCGEEIuSoFEIIYQQQixKgkYhhBBCCLEoCRqFEEIIIcSiJGgUQgghhBCLkqBRCCGEEEIsSoJGIYQQQgixKAkahRBCCCHEoiRoFEIIIYQQi5KgUQghhBBCLEqCRiGEEEIIsSgJGoUQQgghxKIkaBRCCCGEEIuSoFEIIYQQQixKgkYhhBBCCLEoCRqFEEIIIcSiJGgUQgghhBCL0hd68NKlS/T39xMOh5d7f+5oIyMjnD17lmQyeat3RQghhBBiSS0YNL755pv8xV/8BUeOHAFAUZRl3alPA/nOhBBCCPFpctWRxtOnT5PL5WhtbaWkpGS59+uOV15efqt3QQghhBBiySwYNKZSKaLRKACPP/44nZ2dy7pTnwa1tbWUlpbe6t0QQgghhFgSCwaNV+rq6mLnzp3LsS9CCCGEEOI2JaunhRBCCCHEoiRoFEIIIYQQi5KgUQghhBBCLEqCRiGEEEIIsSgJGoUQQgghxKIkaBRCCCGEEIuSoFEIIYQQQixKgkYhhBBCCLEoCRqFEEIIIcSiJGgUQgghhBCLkqBRCCGEEEIsSoJGIYQQQgixKAkahRBCCCHEoiRoFEIIIYQQi5KgUQghhBBCLEqCRiGEEEIIsSgJGoUQQgghxKIkaBRCCCGEEIuSoFEIIYQQQixKgkYhhBBCCLEoCRqFEEIIIcSiJGgUQgghhBCL0m/1DgghhBBCiFsnlUqhKAqGYVzxaA7yWQD+53f+PwYGLkjQuJCRkRGGh4cZGRlhYmKCeDxOJpO51bslxC0xNTXF0aNHyeVyXLp0iZdeeokLFy7c6t0S4pYxDINQKEQgEKCqqorq6mp0XUdRlFu9a0Jcs1wux8zMDMePHyc6O0v1ijI62ushH0fJJyGfBnIA9HS/w+nuXgkar5TJZIhEIhw4cIB3332X48ePc+bMGSYnJ0mlUrd694S45fr7+/ne9753q3dDiFvKbrfT3t5OY2MjmzZt4t5776Wurg673Y6mabd694S4JtlslvHxMX7y4x8xPT3JrvvX09n8IOSmUbJhlPyHcc+G1T7KA/USNF5pamqKF198kb/+67/m9OnTZDIZstks+Xz+Vu+aEEKI20QymeTYsWOcOHGC1157jV//+tf85//8n2lra8Pj8dzq3RPimmUyaS4N9zM1MczMhBM13Qj5PDA37nn6ye3kcnkJGosOHTrEL37xC1555RXSqSy7HniEjtVrKSnxy92jEEIISzabJRyepq//HMeOH+bo0aP86Z/+Kf/u3/07tm/fjsPhuNW7KMSidCXKimCEP/7mvSi5JNVVfiuH8aMcdrPwmuXcwdvV+fPnee2113jhhV8xNDTEF574Cvdue4Cmplbcbi82mw1VlYXmQgghIJfLMjMzw8WLF6heUctrr+/l3UNvsnfvXoLBIOvXr5f8RnFbU/IJ1NwEJbYptv7/7Z13cB1Xlp+/7n45A3gBDznnRIAgwSBKIqUJlDRKkzW7np2dKdfaLtfaLnuqbJfXds2u7bWnNti79o7HM1uzu6OJkqiRSIVRpJgEEiRBIuecw8v5tf944CMhkiJBAQxif3+RwOvb5zb6dZ977jm/s70IlQqkm/BzFKcR+PDDdo4ePcr01DSVFbU8dvBp6mob77RZCgoKCgp3IaIoYbXasFptuN25ZGfnMDk1xvHjx3G73ZSWlmK1WhXHUeGuRUisIiTmEWUvWs3NB8WU8BnQ0XGGgYEBnM5svvXNPyA3J/9Om6SgoKCgcA9gs2VQX9fEo488htcb4Pjx45w5c4ZYLHanTVNQuD6JJYTE8oYPu6+dxkQitcUwOjqKgERTQwsNDduURGYFBQUFhZtCEAQMBiN1tU1YzFaWlpYYGRkhkbh2bpiCwp0ikUgQDgch7kFIehHk8IbHuK+3p+PxOAsLC6ysrGAyWSgrqyIjI0spelFQUFBQuGm0Wh3V1XVYrTbm5ieZmpoimUzeabMUFNYxPz/Phc7zjI92s6NOR1WJGaNRu6Ex7utIYzweZ3l5mVgshslkxm53KjkoCgoKCgobQq1Wk59XiMFgJBQKsbKyoki1Kdx1zM3N8eZvf8tf/fXf0HHuAqHIxvWn72unUUFBQUFBQUHhfkGjVlFemkdpsZusDNOGj7+vt6cVFBQUFBQUFO4HSktL+eY3v0FkpYpC9621vVScRoUtRZZlksnkNbdqREFEEAUlJUBBgfXfFUkUU9+Lu+S7Icsy0UiEeCKBKIpoNRqESzYqKCjcE5jNZiymUqTQCkJiCeSNb0/fM05jIpEgFouh1WqVB9U9RCDgZ3p6Eo/HQyIRX/c7h8OJw+HCYrHeIevuH2QZZDmpiNTfAnJSBoEtf+54PavMzs2wurpCbm4+WVl29HrDlp7z44jH4/gDPpaWFvB5Pfh8PqKxKCpJhd5gwJ2di93uuKM2Kigo3F7uGacxEAiwuLhIfn4+arX6TpujcJMMDQ/wwx/9L9rbj+MP+Nb97guPf5GnnvwKO1p33yHr7h/kZJJYLIZao1Ycxw0gJ2VisRiSStpyVYWL3Z08//yP+eDEu/z+7/1TDn7uSUpLK7b0nB+H3++jo+NDXjj0M9rbjxMI+q/4rcDvPPdtnvzCl6mqrLljNiooKNxe7hmncXBwkJ///OeIokhVVRX19fWUl5djNBqVl+BdjMlkpqK8GmSZcDiEx+thfGIUn8973W1rhc1jcLCPo8feYXR0mO3NO9m9+0Gysux32qy7nsnJcU6fOcnRD95he0sbu9oeoKioZEvPKcsyiWSCRCKOfAe/G7KccpRfPfwih4+8xMjYIIGgn7zcQlxON5JKZHl5BaslA0lU5MkUFO4n7hmn0efz0dvby/j4OB0dHRQUFFBYWEhVVRWFhYUUFBTgdCqSOXcb9iwHD+zdT31dE/F4nPGJUd5//y06L5xBcRe3ntm5aTovdNA/0EtuTh7RaOROm3RPsLyyRE/vRY6ffA+Hw0ljw7Y7bdJtI5FIMDExxvkLHXT3XkQlqXjmqa9RVVlLVqYdURLx+f0UF5YoCxAFhXuIkZERjh97j9nx0zz+SDl1Ve4Nj3HPOI2QyrGZmppicHCQ48ePo9fraWxspLGxkbq6OiorK7Hb7dhsNsxmMzqd7k6bfN9jtdpoamxJ/7+3t4upyXF6+i7cQavuHwLBAH6/n2hk48r/9zPhcAif30s4HLrvouGJRJzh4QHmZqcRgMKCEr7x9W9TXFyqpAYpKNzDTExM8NKhVzh39jTlRV/+9DuNHyUUCnHy5ElOnjyJKIrY7XYee+wx9u3bR3NzM8XFxUrkcYu41ot0a6+1zLXe3alTftx5Lx10+TNX2n7j468Y6QbOw0bG2mrStsoyXBHTlZGvmsfH/d2uN+eb+VvLsnzV59aNJ4Bww+t17b/7Rmy5lfnKqcqhSz9E3uA4m8mt2JgkLDQAACAASURBVH/lZzZ6vyeTSRYW5wiGAjidLnbv3ofdblccRgWFexyLxUJFRRmSvHJLGo1wjzuNVyLLMisrKxw+fJjjx4+TnZ1NaWkpLS0tNDQ0UFRUhM1mu9Nm3tOEw2FmZqY4e66d6ZkJZmdnCAaDGAwGsrNzaGxoprqqDrvduWnnXFpaYGCwj4GBPianxpibm8Hr9aLV6XA5s6kor6KhvpnKymrUKvU6iZL29hP09F0EWebzn3uShYU5Llw8z/nODqZnJsl2uamuqqOpqYWGumYE8eqXaTwWY2Z2mtMdpxgc6GVyapxwOExmRiZWWwYqVeorJIoiTkc2bTv3UlZWuWnz3ygjI4N0XuhgYLAPgL7+HgYG+/D5PBx54zdMTo1fVa3e1LidbU2t6a3GZDLJ0uICnRc6GBkbYnp6isXFeXx+H1arDZfTTUV5Fc3bdpCbm49Go1k3nsezSld3J6fPnKCkuJxtTdsBgXOdZ+jt7WJmdgqNRkN5WRUPPfgo2dk56HX6dWOEQiGmZ6Y4efJ9RkaHmJubIRqNkp3txmAwIEmXH121NQ3U1TaSn1+U/lkkHGZmdpr20ycYHR1ifmEOWZbJzc2noqKa+tpG8vMKEdbyoWdmJunuvsDZ86cBGJ8YpX+gl1gsytHj77K0vEh2ds46G4uKSnlgz36ysuzp+2CzEESRlZVl2ttPcL7zDANDfSSTMrk5edTXb2NbUyuZGZnrjvmw/Tjt7SdAhKef/CqRSJiLXefp6+tmeHgAmy2D2poGWlraKCosRveRa34JWZbxB/xEo1GMRjOFBUWo1ZprflZBQeHeoaysjO/8/jeJeurIdd7aovdT5TTGYjHm5uaYm5tjbGyMgYEBent7OXr0KCUlJZSXl1NUVERBQYHiQG4AWZaZn5+j/fQJPmw/zsjoICsrS3i9XqLRCGqNGpvVRjwWIzMja1OdxomJMY689jJ9/V0sLi4QCPiJxmIkkwmsFiu9fRfpH+jhkQMHqa1tIMN2+UU6Nj7CqVPHWPWukEzKDI8MMDjUx/j4KCury9isNoaG+5iaHker0VFYWLxOPiQej9Nxtp33j75F58WzzM/PIggioigyONSHpJLSER2VpKKstJLS0oo76jQuLS9yvvMsx068C4DX6yEY8BNPxBkdHcKzuoz6I06eVqujsqIm7TTG43HGxkf4xa/+joXFeVZWlgkEgyQTCSRJwmy20NV9np7eCzz15JcpLirDaLy8ag2FggwPD/DWO6+xvLLMqmcFn89L++kTTE9PsupZQSWp6O/vYXR0iGef/ho1NQ1pxysQ8HP6zEne/O1hBgZ7CYdCJJNJkskk/QPdqNQqxCsKMERRIi+3kPx80nM+0/Ehx46/S0/vRbxeD9FoBBno6unkwsWzDAz00rZzL2079oAg4PF66Ovv4c23DqdtCPj9JJNJpqcn8Pu9V0nLtDTvpKlhOxkfcd42g7GxEfx+H3Nz04yNjzI3P4OclMnIyKSn9wIBv4/tLW3k5OSljxkc7Of1N18BZGyWDJaWFzl79kOmZ6eZn5/FaDAyNNxPb99Fnn3665SVVWIymUkmZTyeFeLxOCATDAZZXVkhGo0iSRLRaJSlpUXC4dDamVL3vNlsRqfV3y3BdQUFhRtgMpkwGwuRQgtbp9M4PDyMw+G4JQM3k6GhIXw+3003gQ+Hw0xPTzM9Pc3x48ex2+2Ul5fT1NRETU0NJSUlWCwWVlZWUlIkKmXr5VrIskw0GuXD9uO8+NLPOHuuHbPFQrbLjcPhQhIlEsk4wWCQWDxGeJNz5/wBP7OzUwDk5OSi1xtQqzX4fF6WlxcZGxtmdGyYYDBIVqadDGtm+iXm83mZnZtmZHSQQCCAZ3UZo9FESUkZgiAwNz/L6NgwHs8qTkc2toyMtGMgyzKLSwsc/eBtXn7lV4QjIUqLK6moqMJgMDI6NkxPzwWWV5ZQq9Xk5haQmXlndfUAdDo9WVl2ctecCZ1WxzwyoVAopYtpd6LVrm9Qb7NmoLri/k8mk/gDfianJzAZzeTnF6HT6dBq9Xg8y8zPz9Lb10VfXxfZrhxMJss6pzEej+PxrDI6OoxWo2NwqI9IOEQwFMTpdGG3O1lcnKevv5ve3i7Ky6rJzyskIzMLgNGxYd5+53VefuWXZGU6qK6qIy+vEFEU6eo+T/9AD16vB4PBSElxOVar7XL+sgw9vRc58vohPjj2DmaTmYKCYjIz7CSTCSYmx+jq7kxX8JeXVWK1ZqDVaLHZMtLXzePxsCDOEV2KkJmRhcPhXDdHSBV5qdXqLdmm7u69QDKZJBjwk5dbQEV5FaFQiKW1exKZVITf5UZckwJaWVlieHiApJzg8GuHiEYjBAI+sl3ZuLPdLC8vMTY+TF9/F9nZOZjMZkqNFUSjET5sP8bq6goAkUiE4ZF+AgEfsViUixfPEY1F0WmvzBEXaG1po6ioFFFS1CsUFO4Xruk0CkKqS4csy/zkJz/hlVdeud12XcXS0hKDg4PEYrFbOn5xcZHFxUVOnDgBQEVFBTt27KCkpAS/30+GTRGovRbxWIyV5WX+4ac/4kLXWRx2J3v37OfLX/oGZaUV6PUGEvEYA0P9xONxMmxZm3r+/PxCnn7qq+S48ygoKMJqsZKUZQJ+P+++/yavHH6Box+8zW9e/RWfefQxKitqrnqJhUJB+vu7aNm2k6ef/CqPHPg8kiTxqxd+yqtHXmJkZIDfvnWEvXsfJtuV2oKU5SSdnR10914gHAlRUVHDv/03/5mK8moEUWR1dYU//e//kROnjpKZmcVXv/JNPveZJ7DZMjZ1/hultqaR2prGdD7e62++wq9f+CkjY0M889TX+MJjz+J25647JtV55PL/VZKK4qJSfu8f/QG11Q3k5RZgMluQ5SQLC3McPnKIw68foq+vi/c/eIeKihqKCq+Wo4lGI1y4eBZRFGmoa+Zbv/tPeOTA54lGI7x65CX+5od/ide7wsjoABOTY2mn8cTJo5zvPIPZbGX/w5/jq1/+XcrKKonFYiwuzPHv/sO/4FT7MXJz8vm33/0e5eWpiJksy8hJmVcPv8jJU0cxGc08+/TXeeKxZ3C7cwlFwkxOjvPH//Xf09nZwdlz7XR0tLNjx26KisooKirja1/5JpDa6n3p5V/w2hsvc+DAQZ584ovUVjesn+AWCn6Pjg6S7cpl7579/ONv/3NcrmxGx4Y4/NohfvS3f837H7xFeXkVu9sexGA0rjtWlmXOnW9nW2MrT3/hK3zhiS+hUql4+53XeOGl5zn54Qe88+5vKSutoqS4HH/Ax//5wZ8zMNibHuOSHJYgCLz0m18gvHL1PP/o3/838vIL0UjK1rWCwmYiy3L6+3e31WVc02l0uVxUV1fT29vLwMDApufr3ArxeJxwOHzTkcYbsby8zNDQEHq9nnBYqSy9HksrS7z19mGWVxax2Wxs397Gt7/1T3E4nOh0egRBQFKpKSosQZblTb9Xsl1urBYrGo0WjUaLIIqIsozRaGRH626GhwdSkRfA5/UQDPoxmS3rxjDojRQVlfK1r/4erdt3YTQaEQSBxsYWLnado7vnPEMj/Vdsv6W+tFPT46yurmDPcrD/oc+SZXcirc3PaDSya9cDTE6PMz8/y9jYMNHYxkP9m036+bL2j0sOoQCIgpBq23iN3M0rkVQS2dluHn7wMxgMhtR1F0AQRDIzs9jespPZuSm6uzsZnxjB61392PH27d3P5z77JHv3PIzJZCIpGykrq6SpoYUTp97H6/Xg918Wfh8ZGWRycpwsu4N9DxzA4UhJaanVauwOJ83bdjC/MEc0GmFiaoz8/EJMJjOhUJDR0WGGRwZIJBJUVdTwxOPPprbdBQGtRktuTh6Pff4p4tEoM7NTnO44QW1dA1arbf0FvMIhFNeu442u22bidGbz2c88zrPPfJ3sbDdqjYaCghJ2tO7hpUO/YHV1meXlJSanJ6gor1p3rCAI7Nyxl8cfe4YH9u5Hb9Cn7/fZ+RmOn3yfkdEBZmamiITD6LV6Pv+5p2iZnwUgFovSeeEsk1PjaDQaKsqqyc8vuip3tay0cssFzxUU7jdkWWZycpK5uTlUKhXV1dVoNJq7xnm85hu+ubmZP/zDP2R2dvaukZsYGRnhvffeY3Jy8paijYIgYDQaqaqqori4mJKSEnJyUlGlDz74YLPN/dTg93u50HWOQNBPcVEZO1r3UFi4vipdEIQt25bVanVoNFri8The7yqBQIBIJEw8HiMWixOJRhAFiaScIBqLEovHrxrDbLGwd8/D1NTUY7c70rbn5eSTmZFFIpEgGAyQSFxekMgyRMIR4vEYkqTCoDeiUl1u8C6KEhqNDpWkAkFI9dHexHlfytE9efIoU9MT1/1cTXU9hYUl149w3kJFtyAI6eseDodZWVkmGPSnF22rntU1G5N4PB4ikWtrP0qihNWWwY7WPezYsTudMykB+XkF7HtgP3q9nvKyKkymy45+MBggFA4hiuK6ohdBENBotKjUGkRRIpFIrIuSRiJhxsZH8HhW0ag1WCw2otEos7Mz6bFlOYleq0er0+EP+BkY7LvmonFd9FW4cY33ZtNQ38yO1t0UF5WmHbPUdnQOFeU1XOw6SyDoZ3Vl+apjBUFgV9sDNG/bgeOK/GKHw0V+XiE6nT4tKRQKh7BYLDz84KOE1hZNoVCQRCKBz+dFr9fT2rqb5m2tGAzrI5p5uQVKYwUFhU1GllPpREePHuXChQvk5uZSW1tLaWkpBQUFuFyuO2rfNZ3GiooKKiruXPuqa/Hee+8xPDzM7OzsTTuNKpWKzMxMMjIyyMzMJDc3l7a2Nurq6igrK8NkMtHT04PZbEZRmr42wWCQgYE+wqEQ+XlFVFfW3dYVTzAYYH5hjtHRYebnZ/F4VwkFA+moXl9/d+rlLl8O6X8Ug95IXU0DFrN1ne1Gk/m6FaSCIGC1pXIc5+Zm6O27SH1dExq1BnFte7qvv4ul5UUMegPunFxUmyhJIssy0UiYd997k1MfXn9R86Uv/g4Wi21Tt8VlWU71DJ+ZZHx8lMWlebweD8FggHgiFfEfHhlAllNRqUQicc1xREkkM8NOcXEZ7uz1W+J2u5O2nXvJyyvAYrbicl3WC8vMtGOzZhAOhbjYdR6bLRNRFFMKCavLTE6O4fWuYrXacNpdaNYqe6Nr0cNoNEIimWB+YZY33lyfWiPLMnPzsywtLRCNRJibnyN+iykvW0lZSQX5eYVXRfK0Oh1FRaUMDvcRjUYIhgJXHSsIAmWllTgd2et+rtFoMBpNGA1mYrEY0UiESCSMSpVF+RXRykAgwNmz7RgMBgwGA8VFpdTVNmIymbdmsgoKClfR29vLL3/5SyRJorW1lYaGBmpra6moqMBut5OZmYnZbEavv/Y77Fp4vV5mZ8aIrAxQmKMmy6a98UEf4c7vO28yoigiSRKiKGK1Wtm7dy979+6lra2NmpqadQ/hQODqB67CeoLBAAODfcQTMQwG41VyLVtJUk4yOTnOkddf5qfP/y3BkB9BEBBTe6VAqnuFLN9ayoIoCtcNwgmCQGV5DS6Xm/OdZ3jx0M/IduWwvaUNjVZLf183r7z6AnPzM7Ru30VtTeNHCgU+GbIsk0gkWFpeZGpm8rqf83o9xOOb6/TE4zGGRwb52c9/wrvvv4HX60GSxDWHW4C1dnc3QkBArVIjCldHo4xGE8XFZRQXl131u8aGZkZGBjjdcYp/+OmPEQWRbdtaScQTnDx1lDMdJ1lZWSY/r5jiorJ0lDsWi7G0tJDKfVyc58TyEqfaj13XPrVanWrZdw+tGEVBQKNRIwoC8Xic2AZTIiRJQqvVIQoCiUR8rWJaQUHhbiWRSKT1qHU6HW63m/3797Nnzx4aGxspLCxM+z03yoEcGhriFz9/nqG+dv75dx7i4b3VG7bnU+U0arVaSktLaW5upqmpierqanJycrBYLJhMJmUr5RZQqzVkZTlYXp4nFosSuY2dRSYmxnj73dd54aXnCQR97Nn1IE2N23G7c9by7AROnjrGq0deJBj0b+q5BQF0el26qj4Wi/HzX/6EVw6/gCAKhEMhFhfnaWneycHPPUVlRTXaTXQaRVHEaDTz7d//Zzz95Feu+7mCgmJczuzr/v5W6Orq5Mjrh3jv6JskEkkeevBRWrbtxJ7lQFJJhEIhzp0/za9e+OmmnvcSWq0WtUZDPB5jYXGWn/z9D/jVi/8AMvj9PjweD207H+CLz34dW8ZlrUxJkjCZzEiSRI47j/q6bexo3X3d84iihN6gx7nJ128ricdjLK8sEYvH0OsMmE0bW8RFImEWFmeJxWPo9IartpwVFBTuXqLRKNPT07z88su88847ZGdnU11dTUtLC42NjRQVFWGxWK57vNfrpb9/kHPnh1ha2X5LNtzTTqMkSVgsFkpKSigtLaW4uJjy8nIKCgrIzc3F6UzJi9wtCaT3Ijqdjry8fPwBD8vLS8zMTlFRsfHVya0wMTGalldpamzhM48+zram7Vgs1nSe2/z83JYk4yeTMl1d59Mi4Lt3PUg0Fkv1bpZTkbKsTDu1tQ3U1jRu+stXEARUKhXlZVWUXCMadwm1WvOxxUeiICKKArE1Z+NmopKDQ32cPn0Sn8/Dowce48D+z1NX14jRkFp4+XxePJ6VW5rXx3Eputrdc4HR0SEyM+zs3/9ZwuEQ4XAYQRAwGc24nG7qahtpaGheJ3mjUqnJyrCjUqtJJpI4HNk89OCj1z+hICCJIibj1duuVypIeDwrmy4ldSskk0kCgQBDwwOEQkEMRuOG0hICAT+rqyvp/uN6nR6T8da6QigoKNx+kskkkUiEhYUFFhYWmJ6eZmxsjO7ubt566y2Ki4upqqqipKSEoqIiMjMz170fi4uLee65L/Pog6XUVRfekg33pNNot9txOBzY7XaKioqor6+nrq6O8vJyHA6HUtG3iRgNRqoqaxkbH2Z8YoTznR3U1TZhtdrWOSuJRCJdmLBZ7cYWFxdYXl5Eq9VRXVVPfV0TJSXlyLK81od8gqWbdIQ2SjKZ5EzHKcbHR3A6s3lg7350egPJRAJRELFaM3C7c7HZMraux7nAJx5bq01FS0OhIH39XXi8HnLWRLqvx9zcLOMTY0iSRFPjdhrqt5GXV5BO0B4fH2FurdJ2M0npEgbo7+9hYnKcosISHj1wEBCIxaKIokiGLYu83PzU/feR+0yr1ZKXV4BOq2NhcZ7V1VSRSFaWHY1mY7k7Go0GrVZHIhFndGyIpaUF4vHYOj3L24oss7qyzPDIIOPjo0iSCkeWM11cdCMSiQTj46MMDPYiiiLZrhzsdsemRscVNodwOMzq6scrEih8ekkmk2uNM26cehIOh5mammJqKqVlnJmZSXV1NXV1demi35ycHLKysrBarRQUFFCY70AK5W6duPfdgiiKaLVaLBYLra2tPPTQQ+zYsYPa2tqrpCAUNg+LxUZryy5OnjrK0HA/kiRRUVFDU0NzSqZEEJCTSfx+H4lEAq1WR2bmZa3GRCKRjmwAhCNhYvHYWlQpTiQSJhQKAqnIsSSp0g5NMpkgmUgiy0mikchaxCmUEo9eXeHQb37Ju++9QTC4+bmpsiwzOTWe6hxjy2RxaZHGhm1kZmShUWtRqdSo1CoSa4UhKpUqnVNyN2GzZWA0mvF6PZw89QEjIwO4XG5MRhOCIJBMJlGpVKhU6nT6RiweIxqNIogQDocIXXHdxydGOfSbX/HW20c23dZEIsHK6jKxeAyQicVjBPx+iovLMFssqFUa1Go1kiQRiUVJJBNpuy9V8FdU1GC12BgY7KPzYgdvv/s6D+zZj8PhSuWwkooeJpOXFjiaa/7dTEYLVouNeDzO+c4O+vq7qa9rwmrNSF03WUYURDQazZakvUSjl+93QRCIx+J0dZ/n/fffxO/3UFVZT0lJxXW7L6X+bsG1OYPf5+PEyaMc/eBt1GoND+17hNKSCqWby11GNBplcvL6OcwKn35kWWZ6eprl5auVEW7E8vIyx44d49ixYwiCQHFxMY888gi7d++mqamJ7Oxs1FIMTSKBSpZv6et/zziNbrebZ599lu9+97s4HA7MZjNGo3HToloK18ZisdK6fReNDS34fF5Gx4b5sz//HgX5xeTk5GEwGPH5vAwO9bGtaTuPHDiYdhoT8dRW46Hf/CI93sLiAj29FwmHQpw9exqPx8P7R98CoLS0ksaGZmqq6wHIzSnA7c6l49yHvPn2q3j9HnJz8gkE/XR2drCwMIfX592SeYuiyLamHSwtLTA5Nc6PfvxX6PUGJJWUKuxYk2FxZ+dSW9PAzh17qalpwGC4u0Ti83ILsNudiKKKZDLOX/yvP+WVwy9SkFeE0WhmenqC5uadPLjvQFr0u7i4jNraBs6dP80/PP8jevu6ycsrZGFxjr6+LmZnp7bkuqtUKux2B1mZDgx6I/PzM3z/L/4YrUa7LslbFFXk5ubT1NjMvr2PkJubh15vQKVSYbNl8OgjjxGOhOnpvcj/+/Ff8d57v6WoqBSnIxuNRoPHu8rU1AQGg5HHH3uGysoajB9JL3A4XOTm5COJapLJOL/41d/T3n6C0tIKTEYLy8uLuN25PP7YM+Tk5G36c+jQb35JX383VdX1mIxmxkaHGBzuZ2JiFFGQ+Oxaqsa1FinJZJK/+b9/yftH3yInJ49kIsnZc6cZnxghGAyS487j4Yc+R0lx+abarPDJOXLkCEePHlXea/c5sViMlZVPlgIkyzJTU1O88MILvPHGG+n8x52tjbTUSBTmaLEYN74re884jS6Xi7179+J2u7esdZfC1ahUKqw2G08+8SVcLjdnzpyku/ciHs8qg0P9aDQaItEIsViM2uqGlG7hGkk5ydz8NO++92b6Z5FoBJ/PSzwRZ3FpnmAowMjIAAChcIjcnPz0Z0uKy2jbsZep6Uk6L3Rw5sxJenovkkwmCYeCNDVuRxQlhob7GRkZ5KNhk3SRtXDpP1fP73oKfIIgUFRUQlaWg7GxERYW5lO6dIJIKBYkFAqxsrrE1PQEE5NjDA7188VnnqOmpn5LehHfKmazhV1tD+DxrNB++jhz87N4PasMDQ2g0Wjwej04nC6i0ctb/LU1DTxy4PMEg37GxkdoP3085eiHg+gNRvbsfphoLMLrb1y7U9RHO8zcLIIgoNPqcGfnkpllZ3p6Er/Ph8qWuqci0QjBQAB/wMfU9DiTk6N0dXXy3Ne+RXV1Xdpx3LP7wZQDmuWk4+yHXOw6z8joECaTCUlSpaJwoRAlJeUpuaBryTQZDNTWNPCNr3+L9tPHGZ8c5cLFS4LXWkJr918kEtk0LdusLDu1NQ0sLi0wOjZE58WzTE5PoFFr8XhW0el01Nc1sa1pB/v27V8nU3Qlsiyn+8ObzRZkZDyrHhwOJ7va9rG9ZRdVVbVXdZJZT1qkcu3vqTxvtwqr1Up1dTUHDx68rnyVwv1DSvIssKaV6rvxAR/DpeeT0+kkPz+fmpoaamtrsGfOodWkdnQ2yj3jNJrN5pSeosJtRxRFWlp2Yrc7yMstID+/CJ/PQyQaSXeBycyws62pFYfjsvCoIAhYrRnU1NTf1HkK8ovWSfo4HE5aWtqIJxNku9z4Az6QU3l6DruTB/Y+jCSp6OrupLe/i/y8gnW5a4WFJezcsZdoNILT6U7r+V2el0RZWSWPPnIQQRDTRQXJZJJwOMTS0iKBYICMjCwaG1qoqqxFq9USjoQJBgPMzc8wNjbM1PQkU9MT5OcVYXc47yqnUa1W01C/DZPRhNPhYnJqPJVKkEzlZkoqieKi0nWFPAX5hTyw92GSySR9/d34vB5kUvmVJSUV7Nr5AJFISuhbFCTy8grWnVOvN1BaUs6B/Z9P587dDIlEguWlRcKRECpJhdORze62fbiy3ahVasKRMD6fl8XFeQaH+ujt66an9yLbmraTk5OXlt4pWpuP0+HC6cxmZWWJUDglWC0KKWkKvd5AWVklDofzmnmKKpWKoqISvvylb5Cd7WZwqI+VlWXiiXiqC5IkUVlZg9ls3rTtaZfLTVvbPkxmC4NDfayurqTb+RUWlpCbk0d9XRO7d+3DZLJctwBKEASqq+qwWm2IoogoSljrbZSWVtBY30xjQwsqteq6C2+VSqKkuIxdbfvQarVku9zrFoMKm4vRaKSyspLnnnvurmmmoXDnSCaTzMzMcOjQoXSu4ka4JDdot9vJysrC5XLR1NR0Oc+x0IUUOn3LOY2Cz+e7b+/SQCBAT08P3/3ud0FW88VnnuOxg08p0jw3QTwWIxQOkUjE0Wn1aLTarbtuMiSSCbxeL3IyicFgQKvTbVm0ORIJMzMzzb/81/+Ynt4L7Gzdw5987y9w2J2o1/JnZVkmGo3y6xef54WXnmdgoIddOx/kd3/nO+zetW9L7NoMEvEEoVCQaCyy1unGgOpjIvfRSJRAwE9SlrFYLOu64mw2fr+Pkyc/4Af/7y+ZmBildftu/tMf/Q+sVuu6e8vjWeXv/v6H/OCH/5NYPMLv/aM/4LGDT1Nb03DNcWPRGIGAj1A4hEqlRq/Xo9PpNlTUkkgkiEQihEIBJEmFXqdPtfbawmdFfC23NB5PYDAYbtii86/++vv877/5MxBk/vz7P2Rb03bU6lQeqFarU55rt4E//FffobvnHJ/5zGf43ve+h8mkVKcrbIxkMsng4CDf//73+elPb07WTBRF1Go1arUag8FAQ0MDu3btoq2tjcbGxvTiNh6PEw17IHgag8qPWrXxyLayfFS4JSSVCqPRiCxf6mm8hS8kIdWS7pL+1FY3cQ+Hw0xOjhFda1GoUWsxm8yIV1Qcp1raabBZbVjNNgRBxGQ2o91gle7tRpREDEYjelkPCOkikuuh1qixqKyAjChubaFPNBplbGKEYDCAXm8gMzMLrfbqQhO93kBmRhaZmZnML8yi0+quiiJfiUqtwmyxpjqaCDeeL4qBUgAABf1JREFU87WQRAmdTodWqyF13QSEa4iWbyaSpEKnkwB5w+dK2atP94dXHEYFhU8nkiThcrlobm5Od465pNdoNBrR6S4vGAcHB3n9tVeZHGnnuWeaad1WtOHzKU6jwi2Rctxuo7SRwG2TUpIkCfOaSLRMkunZSX794s8oKSkjIyMLjVpDJBJhcnKM9z94m5GxoVRj+aq661az3i1cdrhvzom4tBV7O5AkCavZilqtxuvz0NvXxZHXDpGTk4/FYkUlqQiFQwz093Di1FFCoRAmk4X8/CIyM68vPZOewyeZh8BaZ5vb53x9osWRAMLaVryCgsKnC5VKRUlJCVVVVZSVlVFWVkZBQQE5OTm4XK7rNjNZWlri9JmzXOw8x8O7i4CijZ/7E1t/D5PqumFEkiRCwQiBgF/JKVFI5XFl51Jb04jf72NxcZ4XX/45pcXlKc0/dSqvcXR0iMmpMURRZMf23TQ1br9p3TyFq9FqtVRUVFNRXs3S0iIDg7289PIvyXHnYrVmoFarCQaD9PReYHFxHrvdQW11A+XlVbe1vaWCwkdJJBL4/T5isWh6i1Ap1lTYTGw2G06nE4fDgcvlora2loaGBioqKsjLy7sp6UGr1UpNdSV6lR971q09M+9rp1GtVuN0OtHr9czNLjI9PZlKlr+F7SuFTw9qtQaH08UXn3kOnU7PsRPvsjA/y9zcTLrPtSiICKJItsvN9u27eOLgs5SXV6LT3XzzeIX16HR66uua+OyjT6T6rZ46yuBQL/0DPaSq/FLbwqIgkpdXRNvOvTz71FdxudyKRAmp62e1ZoAgKwoTt5lYLMrI6BB+vw+TyYTL5VJSAhQ+EZKUSonRaDRoNBrq6+vZvXs3bW1ttLS03FJhcF1dHfW1pZ+oEOa+dholScJms+F2u+np6eNi13kW5mdxOF0b7iCh8OlCFEVqaurIzyvgy198jtm5GfwBP+FQEFmWMRrNWC027A4nmZl2LGazcs9sAoIosnPnHiqralhcXGB2dhq/z0ssFkOlUmGx2LDabGRm2snKzMJstt6wQOR+4cF9B8jNyScpJ6goq1aaHtxGItEIg4P9+Hw+suxW8vPzFadR4RPhdrvZv38/O3fuZNu2beTn52Oz2dDr9ej1dy44cV8/bS/lOlVUVHDhwgXGJ0d5+ZVf88QTz5KXW3DjARQ+1eh0enRaHbaMTNzuPGKxKPF4HBkZtVqDTqNDq9MpUa5Nxmg0odcbsGc5yc8rJBqNpOR9RBGNRotWq0Or1SrO4kfIzc0nIyMLGRmL2ao4LbeJeCzGwvwcr71xiKXleWrrKikuLlbySRVuiUuteA8cOMBDDz2E2+3G5XJhMBjuintKeeoCO3fuZGBggNeOvM4bv301pfOmN3xscr3CfcLaF9hqtd1pS+4rLrUN1WqV6O3Notcb0lqVCrcHj2eVoeF+jh17l3PnT1NdXcWOHTuUSKPCJ8JiseB0OjF+rAD/nUFxGoE9e/YwPT1NV1cXPT29vPPuG6hUKhoampGkS23j7rSVCgoKCgp3BWvasb29Xbx6+EVeOfxrjEYjzzzzDI8//jh2uxJwULg1BEEgKyvrTptxXe5rce8r8fl8dHR08Cd/8l8YHR1FTgpk2LJwulyYjGbUylaYgoKCggIQT8RZWJxndnaKxaUFtFoN3/jGN/jKV75CdXW1kjqhcNciyCGlI8xm4fF4OH36DK+9doTz584zPT1DKBxeCzIqoUYFBQUFhVQ0SKvVoNFqKCjIZ+fOnRw8eJCSkhKl3a3CXcvi4iLDQz0Els5QV24hx7XxjkXKcugKrFYrBw7sx2IxU1tby/j4OMvLy8RiMZLJ5J02T0FBQUHhLkCSJKxWKzabjeLiYhoaGigpKVEijAp3NTMzM7z55tuMDp3hO8+1keMq2/AYyh1+DVpbW2ltbb3TZigoKCgoKCgobAoej4funj46z/fx1GdrbmkMZXtaQUFBQUFBQeFTzsLCAgP9XfgWT9NUlUGee+OpFIrTqKCgoKCgoKDwKScWixEMLCP7T2PRBdFqNu7+/X9F9RAmZMV0dQAAAABJRU5ErkJggg==;clipPath=inset(0% 2.67% 0% 0.33%);" vertex="1" parent="1">
          <mxGeometry x="-710" y="620" width="404" height="133.27835051546393" as="geometry" />
        </mxCell>
        <mxCell id="OTqlcqx55g9iVUikdxtE-13" value="C ELF" style="rounded=1;whiteSpace=wrap;html=1;labelBackgroundColor=default;strokeWidth=2;fontFamily=Times New Roman;fontSize=20;fillColor=#fad7ac;strokeColor=#b46504;align=center;" vertex="1" parent="1">
          <mxGeometry x="-306" y="720" width="256" height="33.28" as="geometry" />
        </mxCell>
        <mxCell id="OTqlcqx55g9iVUikdxtE-19" value="&lt;div align=&quot;center&quot;&gt;Virtual Machine&lt;/div&gt;" style="rounded=1;whiteSpace=wrap;html=1;labelBackgroundColor=#CABFFF;strokeWidth=2;fontFamily=Times New Roman;fontSize=18;fillColor=#fad7ac;verticalAlign=top;strokeColor=#b46504;" vertex="1" parent="1">
          <mxGeometry x="-625" y="980" width="200" height="90" as="geometry" />
        </mxCell>
        <mxCell id="OTqlcqx55g9iVUikdxtE-10" value="" style="shape=image;verticalLabelPosition=bottom;labelBackgroundColor=default;verticalAlign=top;aspect=fixed;imageAspect=0;image=data:image/png,iVBORw0KGgoAAAANSUhEUgAAAX0AAACECAMAAABLTQsGAAABNVBMVEX///8BAQEAAADZ8f3/4QDp6ekAru88PDxCQkJvb2++vr6urq6lpaX29vaioqIuLi40NDTf+P//5QDX19e4uLgAsfPGxsbh+v//6AB5eXkAqu6cnJyEhITU1NRkZGTOzs7v7+8cHByCgoJPT0/h4eGSoqrI3ulRUVEmJiYODg5ycnKMjIxbW1u6z9kAmtRFTVHS6fXUuwA8Q0anusMAibxdZ2wBKTgAeKQBUG4BOU7O7vxeUwF4hoz32gApJAEzODuFlJxpdHqJ1PcAXH4Als4BJTOfsbqNnaW2oQA7u/J5awHLswDiyAAAbJTBqgA1LwFFPQEhGxY/jbCy5v8BFB0ma4iE0/dfw/MxufGk3/mYhgAARV4bFwEALkRxttaGdwGlkgByZAFxlKZPRgE7NQGVw9lgVQGq5+vfAAAUHElEQVR4nO2dC1caSRaAoRBEEBGQhxKxUYK0+H5EYyQ+4pjEmGR24655zGySze78/5+wVd31ruru6hYDG7jnzJkTpIvqr25X3Xvr1u1Y7CFkugPSSw/S8lgCZRkgyQy6G6MpJQDi8ThoDrofoykNBD8OwKD7MZLiqv6Y/mBkyoEfB91Bd2QUxSKqnxt0T0ZR6mPVH6B0XNW3x6o/AFnCE8/yoDsykrKMZ/3SoDsykpJ26U8Ouh8jKUk88dQH3ZGRlOx44hmgLI/93AHKikt/fdD9GEnJxV36M4PuyEhKDi+649j+IKSFwwytQXdkJKUyXnQHKHNj+gOU7Jj+AAXTH2/pDkQwfXvQ/RhNGc88g5TMmP6AJGdZVgbb++ONrZ8ouaVuYyXftO0mpr846B6NjmTWAZW4S3/eMrludbZr8r2xeMu0zahTAWA1MNSzhq6zrZ/QxV9WKnmFPMYPZud8r3STrsD8T+roryjLevZ4ANIV7ysbOBqa/3md/cUkl/aB7+j/lIfxk5zEV46336OKZfvCd/lrrZ85slIAMP2ze/2LSC4dwN7Fq25zWVPUNgKNAXT8/0CSpaW5end5Hslyd2ZuabElzSJTQZqPAcvr6ow9hu8ji9n5dAeo0pxdr2doqkjWCL6CeLpJr1MHZtSlNLMieU5sCscy2a3k6A5uOPytLtcuGKdcCVLq5lXsMkpHVmfmTeGja9Zg47mWO7D0U9vHHh09ya4EkBfHwBg++nq33sgLF8EBTA76hodIMp1wREOJPJMBnSk0umKtKuyVRbefY9GwBn3HQyQVES6xcU53t7a21uF/u3m7b2MA21jva46tlTQQy/LfcghuJKCBmEkv5CadC7PSrAB2D872NtrbiULVlcR2u72xd3a+1bzvCCC973Pwf15jHKtiT67PZ71HPR3cQmel8WjOO00sb9QNQZAxgvx+yiYOmid7EHshoUoBjcLVyW7EEXAvq/d9sX0U4n5nH3kMwKppC/kpj9D5ZCjwjiB3Z5G5no5s68izIYADs3fiPAOh4ee7D5HW/yiM7QtAWvvorRg24hCq6yahydAKiejn8hT+0/1N2PZJ1Y8+fgo2TvIh+QP7gUzMEPTj7tSn6YhJzIq1ALoq/2j06yTc+Le/l8vlI9j0RiB9NACJjYNQ/B+saEk4+qgjGj8vBH2nibxSACcafRvDz7c/LKTKSPl3TeijAWifh+H/UEcqwtJH8LL3o68LjUeiX8F7TPZ2IvE6lSq/NZt7XKludMzxP1TtgPD0Nc9hWPqwCelEciT6XZz/tAfXWqj8qfITiP+xKf5EIh9C+f03enWSSy5mMpWW5fedqUj2l2Q6hqaPwif3p4/P124hQ6fwGs098TD4CxshlH8qHPpSd5U4eZPz3iG5KPTjYOW+9CEmQZsi0Xfzn8CZY2YeI+W/RLd7DpdVaF1CT6uAPC1XoP+FfC/BGaiemtMPk9qcq8+KxvGkMlffi770IEagD9vgjadI9PGae+USvUD499HNdq7ae49Ptk5tkYGd3zo4e7zXRna/c0nhJMTEbxmz72qck7TeZI1EPw7S96YfF/aNItHHhwwfY32+W4Bm56WBn9Y5OLtqb8On4ywEfdM6hTMeP6q9PiJ98UB3NPp8hyLRxwVdTshs8nrz8Og3t6wdL/I/3f81D042zkPQN9tPKXkHXXQNKPTVy7S9EXbWItEXlD8S/XVu1U1U24+3uE4/OXrx9nD/cnMf3dCTy83N/f3Dty+Ont4G35v+54z8rWlP9vCnNFEumb7HlUpnhKlHoW/ShDDzK/R9bgPLPC4lBQCayfcY+i9v9zfhEuDIJpr7X6TK+J/lciq1uf8WPSHh4MdVJ0eryn6yortA+hXlAbHmVtRuiocMZPpganqGl3l9YIXbJJLpB8MHa7FFvOyeJ17iBfb26eGmyxgLwvyW/ROJOwqXhy+ehKIfbPDnVnz7q5t7gunHYsSpFL5n+dFXsrysGf8HSKFvNM1ikxO4OST20X6KJw9Bo9DPPz5CgZ8uOMKNwWWYiSe4QzkpSm43phdbrVKmQT9JK9cY0dfgF5bdYPqxWFJdHLgHSKFvNM12SU4fFEfrHbCI8eu7FLY/D46JfPj0z7u7jyk6Br+FirMF2Tw50ca3py3ylxZdiZVwhRl9zeLM98aEfsxSV1aWKRmNfoumVB5duugh2Y93Fx8SiU8L7rzT2ZZd3ONPF3flhQX4XJjDV917RcRpR/TkyVOhsDWkX7k/fVJ0jv8eXcqi0YfKj+eew7KDPnX36di1P1HU7RDe8JV2v6Vw/OEfISP8AT1p8OwnpaGq4M+VlduQvnXvmSem2YRhy25E+jly2Arslx30BC8KuqXgsnrqEeOpvgy5vxKQtVnn4StJhrl70o8p4Pg5zJD+tNIIjXRGpB/L0Lnn8OKYo3ux4AZ99KqfKJyF3FwMMHmWePhqug+hrzQSUfcDLE49fWXqYRoVlX5sje4tnvGxzbsFN9yv1/zCeVj4/qd4c/7w6eAo27KG9JfkrwmugyH9lkKfbhlFpk9/G4Atbk/9oxvt1+61FNoeB7Z86PsXSF3j4OtunXhhmj8Y0ZcTT8URNqRvPQT9ZIdcCpp7BDYKN6fg7e7pNP+xH3sXk/Khr8VT4eDrcpuT+G/q9qQZfVlrxfBwdN2nexbR6ceSTYofnLerZNF1jH3F3ExUN7b84TcPtuJKP/1Vn4usaRdnknCjrh1G9BVTXfqVyPP+vVddJEnuQAk4QVsryNpH9mZTYb/Nkhk0Oh4HHZQUsX0l/gU0Lb/fz3Kqr/s7sYfy6t6wQl/j02VtZc0VU4si2zz3tThdsfI80ZN2oXDhLrpb4nwvJJIA8Oyz5pTFhrNNud0B/Mf+UYYmg69ziDPkj5o4nUJ/vi5KV5ciLD2JhvTVUOh9vS0iDe5kAwAHexdues85W4YLBTcCzb72tVj7Jibg3t7SlJTtU+6b/udUMgy+bvOXGqOaEKdJfF9dhORwUWRflz5CCv25nLdo2q5zbcMO33453PyCTB60iVioVtsbZ1vCjQDwqjYxUdt5zo/HPucct5v0cQp4FwKL7+gy3pgnoFu4I+xtgbwVhb56StMvytbJe8pkOq8+GS0hO8chDRX55dXV1cuTg1NbQg9+3ED4ExPF3jWbtF6Uy7/RtYImPATtpyeZkmqGiT0YWnctNH0A0jJ8M/qrfs9QyN0V3a3UxYdU2lEU/mK/qhUnXKnt/IEp/1l27SS8TVwlhmmA7rMYQ1zhwv1R30hI+vp2DOgvaQ6HcxNquJ1FvSK1ptRJUnsHX3u1CSLFHgnU/QvlRDyFQ0PsowMSxPA19ln2tWKWWqz8jEc6UCj6sJmGrisK/bpwnmIx29Vl7fG31Q/6sVipEcQfsb9h7KHuf8aMz6uvU4LyJ7ZJCE+3XhLhJh6ZzBzLaPGK0YWhDyZn9GkpEfd1ubvqD32o//Pe+FEv/vjWo5OOS5+ofttNRoTK3yFm0h75m48BxvzcjjQsXMzZM0Aain6nkdU+hREzSjiG/aIfmyHE1HkOgOs3xaLAfqL4Bn8fGaevsYdMAqMFMvdo/CQiLHVKsEtz/KmUR55Xh515wIpGEaLR5wus9I1+HsO3Ff7gfU1Ue0f1v+PvbyQSVPlpGnrbxn/1PiPKNJzztJJCOptPNkRYmwe2NqsESqNlEvIeZL/ok6Ty697Oqx+yJ1uT2UN57n7fBf7aDVDQMxhVvA0Amp7Kzw5N0a9UhMSSWb8TR1HsfUUVItFf41voF/01rKw3xSJZT1m3dxTVL+5gvC8LCaL80OE9oD4yWXi93N0cNXmwW7C0LKY2rHlc6EojktpKbUbJYRYXqT7RxzuN4FnNmdKlq64V5ccjRLS9QM5gtMnCexXw0lGLBnnSsVxlWj4+2PSPEJU0sWwDa0XCHyV/X1y++0Qfn2EE74rMkmdX2T1Z+WvP3O+fYmX/hPcFaGooSTL3qkNl2SovJgExipyyy6NvRoUnLCXhz67Yku3UJ/okt9Bl+7t8b19l5e+9xxYP2Zb5iFOw6NRDrE6PeENSz8uRqaAklHmFLKiXJFnMrql+qri9EpI+XIrkjvWJPi7V+MOhXLtWNEua+Ys3OOOZbr6T3Xi2Kbbra/N7018LfINIVtVr7Y1ZdRU/v00Wij78yYZiQvQhzoMET/vfarwtzzX6XJx78NLAHTQ9RnlBfwKwRR4GOvPrHV4270tzTvAB30XNrOJxY4vqDMXZneHO6zY1aqTGOGd9pOO1mHHTPjMn+WbfT/D4i98wfbYFQ5Ih2vSTU/wdrS7LyZuOrJscsUvq5nQvtcooX+Ryhkzpo5/Laz2XaFm0suC8F2hvumvqV3XB+p3XfvwF0GSpDx9S7sFfEuyhqT8eS6ict2x7hANkIWmfZvSVRDTQYdOHWX1Fp28eVO+5t4WlhNW0J0zrYi/e77ClF68MYJdLPPno+rtbdN3dxvQ7Wo+Lq6INmlP1RcuspzlimxrSzypTD3PiTKJsoNnoLnm6jP2hvyTSJ3EEqWufaayHxBkOOPoX2N+lU0/1HLeqVRxW48U7mqMR+sgY0lfTQZj/p56eyAoyN1cJeBz7Q78i0dcoP/rzH696NWcEitjcP+HyDY+x1UOnngTe5dLXgGQJDWHqc3oUT/Smn/SZ+A131X3kYXRfNToJ/+t3N71esfdDpQ/9XbjsxrloQ5Uc0tD9ZIk93MbdzHnBD0OfDfaw0C+Jqy7yd+VkGMIfgOfvf39vq/Th1FP+E20K00ysAj5Yqj9AwWqvmpzsQtLiihFFp88s4GGhT2yed9SuKb7y2m3h7l6kf7yw7+wJM4er7Wf1sBzOWbNOLrFV0V43nXkyyjgNH31i738WzJpAg4zP+0FWD1J9YUh2faINXPK4kfLzh0orSnqsvxM/5PRn+UgDlvfB9Lf4VOfqvyGXW+iYUPq4ooCHw8W83aYV2EGLP+MypeayedBXTB4+1jA09El4n/OotHaP9GN5nj40ccATMQV3A4eDtJ3iSgMEmj0VvkI3dCBM6WuOvLEo89DQx5mi4A2PfycIPxfShIIAXYrp5zi7QW9z8kcn/EPKOT7P3/GXzOhbGm+W+6mhoY9NA2d3hU39Qfj5cm7bp8A5X/0E4MozzmSEaxLo19VpQ/xS/QxkQRnQzy0ua50WBmho6JOCSczmdPHr7U52K8S1KrQR/C/lVPkFF+ckNqdXaUK+nKXX21py09JrARzPWaGfT0vihIN0XWZdGR765Py0uI9S7L33VX8CuorCyeBpyj1tarPVYA9P/PpStPzZFW0EN9aqy69kcH0HkxxmfY+5gPfw0G8BnfJPFCe++55YsVFUp9pG6f0QfhlXuWJRZmLxe9iUywKuyTlR/5NzSrXYJraeotXniYt7i8NDH1eNiYO/pC3c2isvNXJu5nG14LIHL9xyAyjKzJbdAk4T8jpBJJfSXZ2pWOjzXMlJopRllQxPZPo2N8BDRJ8k9HD+Lsbf++7NH+zi4j63+6TKxhM+0Fbdclv1MilzvpvrsrClOTJ9fpNkiOiTvgAgJzAUizvPPPljLqiSDxQU4/8C2F47OuDrfMszn7Zlzr7DhYsi0heNr2GiT3JkRIeX8P/uAPDg/2LTrfbwCcX4j/gdlsJjvx0WJMb4hcnrQeqyDZI+OVoMNMlTE8Va79t/MAbCHP/g031X7xc+Hhc+4c3dAzrxX2Gjx/L82ZxBGXwA0mJeYcSKkCKcoaLPKmd81iVuFms3765/PCc44uToyhfM/sItbAtNTnT8vV0QTU6/VIXgYvrKqzMjVAKOKxkdQ0WflnICOLNEnYBqtd7Nzc6bN2924P/IMr1fXoDsHdYf3HMUjjHknP+lkR7fRJEl//cQaLK/o1TBtmWnY7jok6o9XtqPhwALTiaMg9vU3Sc8zxyTsrZQOmftaoGcofOnH4tlvKefR7oAafgK8GBNWXqGjD4x+mFnv08oecvyMNwQ5WclNTD9+JEL7vRsz5A+XPTnNcan7VWKORR95/nR5KMr2SYDpk+bA+A/N57qj5+Bz/RJ2aM2Dk7q2bx8SgnGzehDWaqvszO8zfSUzwtrTOm7beWXtRsMq8NGn1VDQceifdSfD0GAJonoFzD9y3J5/4ixN6SPJFlaysxlKiX/AvBSiMJPJqdm5BelElFmu9BvY1MS8u75qg3+CPpf3upf2+HDb9TAZ/RT5XJqH1XuxLNTn9+/spQ1kLlMybJ8GpmbEaUe+v08WbkFo3Q8TylxjxJwDujq9L828RUA4ZvYu6X0afnUQxObZyyuiNVQEP8b5bQidLyA5PbSHRVM/793Kbd2J7L+nbnJGvSd/T9IV15GAHj26qZYY3Zmb+c6zi0OdOV18WOLc6NwfIEGgBTv1FSTHYsqml1oKL9fv0L+1c3Ou29/PQf80rDGXARkdxKL0wnwH3+4+OedW7c27Ps/RlS0gTRpXec+rrMKP86BxWPX16V1bKmzNX63q4EkffZRBPLOJ3nHdV+lLsJp+4O7tUhLqZIAM3iIt/39cpIRTR6/PUX25jvqMoL4v6Gdw22rU9U3zBUccZnhltPm9LLXAKDPuZortIAQyqZC8X2c1l9o4ypt41fZGwnZ3IU4kdeNyyZo5iCx3s06ww+e3ALwsuq8OWqDvFDQ/L1DIy151zUCHRrxqDQ6dMony256Wnbdu7wNGgfnL6/2rs5O6ZiEOp0ysmK5jPNCtClXmplaIRmv+fVHGZ3bOif5vvwaLeQRjMVTnJOwzawGlhX0nvGk5h0zZCgiHaMcPYEabJseJFEkq1+i9eWtx6LKVHT2UHJq+QQ0B92nyZGS+04RrXmpspWYhDOWBxaLVNpxV96OYh2N5WHFynTX89DS76zX9ZnLIy7/A7bF4EmDp9/fAAAAAElFTkSuQmCC;" vertex="1" parent="1">
          <mxGeometry x="-582.7299999999999" y="1020" width="115.45" height="40" as="geometry" />
        </mxCell>
        <mxCell id="OTqlcqx55g9iVUikdxtE-20" value="" style="rounded=1;whiteSpace=wrap;html=1;labelBackgroundColor=default;strokeWidth=2;fontFamily=Times New Roman;fontSize=20;fillColor=#CABFFF;strokeColor=#9673a6;align=center;" vertex="1" parent="1">
          <mxGeometry x="-306" y="790" width="256" height="33.28" as="geometry" />
        </mxCell>
      </root>
    </mxGraphModel>
  </diagram>
  <diagram id="H3MZS3b8sbk022TFfgPq" name="Page-6">
    <mxGraphModel dx="2210" dy="761" grid="1" gridSize="10" guides="1" tooltips="1" connect="1" arrows="1" fold="1" page="1" pageScale="1" pageWidth="850" pageHeight="1100" math="0" shadow="0">
      <root>
        <mxCell id="0" />
        <mxCell id="1" parent="0" />
        <mxCell id="cQe81ZR_d18F-CRXPFzD-18" style="edgeStyle=orthogonalEdgeStyle;rounded=0;orthogonalLoop=1;jettySize=auto;html=1;exitX=0.5;exitY=0;exitDx=0;exitDy=0;entryX=0.5;entryY=1;entryDx=0;entryDy=0;shadow=0;strokeWidth=2;fontSize=14;fontColor=#000000;" parent="1" source="cQe81ZR_d18F-CRXPFzD-1" target="cQe81ZR_d18F-CRXPFzD-10" edge="1">
          <mxGeometry relative="1" as="geometry" />
        </mxCell>
        <mxCell id="cQe81ZR_d18F-CRXPFzD-1" value="&lt;b&gt;&amp;nbsp;&lt;span style=&quot;font-family: &amp;quot;Droid Sans Mono&amp;quot;, &amp;quot;monospace&amp;quot;, monospace; font-size: 14px;&quot;&gt;sys&lt;/span&gt;&lt;span style=&quot;font-family: &amp;quot;Droid Sans Mono&amp;quot;, &amp;quot;monospace&amp;quot;, monospace; font-size: 14px;&quot;&gt;/&lt;/span&gt;&lt;span style=&quot;font-family: &amp;quot;Droid Sans Mono&amp;quot;, &amp;quot;monospace&amp;quot;, monospace; font-size: 14px;&quot;&gt;kernel&lt;/span&gt;&lt;span style=&quot;font-family: &amp;quot;Droid Sans Mono&amp;quot;, &amp;quot;monospace&amp;quot;, monospace; font-size: 14px;&quot;&gt;/&lt;/span&gt;&lt;span style=&quot;font-family: &amp;quot;Droid Sans Mono&amp;quot;, &amp;quot;monospace&amp;quot;, monospace; font-size: 14px;&quot;&gt;debug&lt;/span&gt;&lt;span style=&quot;font-family: &amp;quot;Droid Sans Mono&amp;quot;, &amp;quot;monospace&amp;quot;, monospace; font-size: 14px;&quot;&gt;/&lt;/span&gt;&lt;span style=&quot;font-family: &amp;quot;Droid Sans Mono&amp;quot;, &amp;quot;monospace&amp;quot;, monospace; font-size: 14px;&quot;&gt;clk&lt;/span&gt;&lt;span style=&quot;font-family: &amp;quot;Droid Sans Mono&amp;quot;, &amp;quot;monospace&amp;quot;, monospace; font-size: 14px;&quot;&gt;/&lt;/span&gt;&lt;span style=&quot;font-family: &amp;quot;Droid Sans Mono&amp;quot;, &amp;quot;monospace&amp;quot;, monospace; font-size: 14px;&quot;&gt;clk_summary | grep ARM&lt;/span&gt;&lt;/b&gt;" style="rounded=1;whiteSpace=wrap;html=1;shadow=0;strokeWidth=2;fontSize=18;dashed=1;" parent="1" vertex="1">
          <mxGeometry x="140" y="270" width="440" height="30" as="geometry" />
        </mxCell>
        <mxCell id="cQe81ZR_d18F-CRXPFzD-3" value="&lt;b&gt;内核IO&lt;/b&gt;" style="rounded=1;whiteSpace=wrap;html=1;shadow=0;strokeWidth=2;fontSize=18;" parent="1" vertex="1">
          <mxGeometry y="230" width="740" height="30" as="geometry" />
        </mxCell>
        <mxCell id="cQe81ZR_d18F-CRXPFzD-9" value="&lt;b&gt;NPU/CPU元信息日志&lt;/b&gt;" style="rounded=1;whiteSpace=wrap;html=1;shadow=0;strokeWidth=2;fontSize=18;dashed=1;" parent="1" vertex="1">
          <mxGeometry x="190" y="90" width="340" height="30" as="geometry" />
        </mxCell>
        <mxCell id="cQe81ZR_d18F-CRXPFzD-21" style="edgeStyle=orthogonalEdgeStyle;rounded=0;orthogonalLoop=1;jettySize=auto;html=1;entryX=0.5;entryY=1;entryDx=0;entryDy=0;shadow=0;strokeWidth=2;fontSize=14;fontColor=#000000;" parent="1" source="cQe81ZR_d18F-CRXPFzD-10" target="cQe81ZR_d18F-CRXPFzD-9" edge="1">
          <mxGeometry relative="1" as="geometry" />
        </mxCell>
        <mxCell id="cQe81ZR_d18F-CRXPFzD-10" value="&lt;b&gt;&lt;font style=&quot;font-size: 14px;&quot;&gt;CPU 频率&lt;/font&gt;&lt;/b&gt;" style="rounded=1;whiteSpace=wrap;html=1;shadow=0;strokeWidth=2;fontSize=18;dashed=1;" parent="1" vertex="1">
          <mxGeometry x="265" y="180" width="190" height="30" as="geometry" />
        </mxCell>
        <mxCell id="cQe81ZR_d18F-CRXPFzD-20" style="edgeStyle=orthogonalEdgeStyle;rounded=0;orthogonalLoop=1;jettySize=auto;html=1;exitX=0.5;exitY=0;exitDx=0;exitDy=0;entryX=0;entryY=0.5;entryDx=0;entryDy=0;shadow=0;strokeWidth=2;fontSize=14;fontColor=#000000;" parent="1" source="cQe81ZR_d18F-CRXPFzD-11" target="cQe81ZR_d18F-CRXPFzD-9" edge="1">
          <mxGeometry relative="1" as="geometry" />
        </mxCell>
        <mxCell id="cQe81ZR_d18F-CRXPFzD-11" value="&lt;b&gt;&lt;font style=&quot;font-size: 14px;&quot;&gt;NPU 频率&lt;/font&gt;&lt;/b&gt;" style="rounded=1;whiteSpace=wrap;html=1;shadow=0;strokeWidth=2;fontSize=18;dashed=1;" parent="1" vertex="1">
          <mxGeometry x="30" y="180" width="190" height="30" as="geometry" />
        </mxCell>
        <mxCell id="cQe81ZR_d18F-CRXPFzD-19" style="edgeStyle=orthogonalEdgeStyle;rounded=0;orthogonalLoop=1;jettySize=auto;html=1;exitX=0.5;exitY=0;exitDx=0;exitDy=0;entryX=0.553;entryY=1;entryDx=0;entryDy=0;entryPerimeter=0;shadow=0;strokeWidth=2;fontSize=14;fontColor=#000000;" parent="1" source="cQe81ZR_d18F-CRXPFzD-12" target="cQe81ZR_d18F-CRXPFzD-14" edge="1">
          <mxGeometry relative="1" as="geometry" />
        </mxCell>
        <mxCell id="cQe81ZR_d18F-CRXPFzD-12" value="&lt;div style=&quot;font-family: &amp;quot;Droid Sans Mono&amp;quot;, &amp;quot;monospace&amp;quot;, monospace; font-size: 14px; line-height: 19px;&quot;&gt;&lt;span style=&quot;background-color: rgb(255, 255, 255);&quot;&gt;&lt;b&gt;/sys/kernel/debug/rknpu/load&lt;/b&gt;&lt;/span&gt;&lt;/div&gt;" style="rounded=1;whiteSpace=wrap;html=1;shadow=0;strokeWidth=2;fontSize=18;dashed=1;" parent="1" vertex="1">
          <mxGeometry x="490" y="320" width="250" height="30" as="geometry" />
        </mxCell>
        <mxCell id="cQe81ZR_d18F-CRXPFzD-16" style="edgeStyle=orthogonalEdgeStyle;rounded=0;orthogonalLoop=1;jettySize=auto;html=1;exitX=0.5;exitY=0;exitDx=0;exitDy=0;entryX=0.5;entryY=1;entryDx=0;entryDy=0;shadow=0;strokeWidth=2;fontSize=14;fontColor=#000000;" parent="1" source="cQe81ZR_d18F-CRXPFzD-13" target="cQe81ZR_d18F-CRXPFzD-11" edge="1">
          <mxGeometry relative="1" as="geometry" />
        </mxCell>
        <mxCell id="cQe81ZR_d18F-CRXPFzD-13" value="&lt;div style=&quot;font-family: &amp;quot;Droid Sans Mono&amp;quot;, &amp;quot;monospace&amp;quot;, monospace; font-size: 14px; line-height: 19px;&quot;&gt;&lt;span style=&quot;background-color: rgb(255, 255, 255);&quot;&gt;&lt;b&gt;/sys/kernel/debug/rknpu/freq&lt;/b&gt;&lt;/span&gt;&lt;/div&gt;" style="rounded=1;whiteSpace=wrap;html=1;shadow=0;strokeWidth=2;fontSize=18;dashed=1;" parent="1" vertex="1">
          <mxGeometry y="320" width="250" height="30" as="geometry" />
        </mxCell>
        <mxCell id="cQe81ZR_d18F-CRXPFzD-22" style="edgeStyle=orthogonalEdgeStyle;rounded=0;orthogonalLoop=1;jettySize=auto;html=1;entryX=1;entryY=0.5;entryDx=0;entryDy=0;shadow=0;strokeWidth=2;fontSize=14;fontColor=#000000;" parent="1" source="cQe81ZR_d18F-CRXPFzD-14" target="cQe81ZR_d18F-CRXPFzD-9" edge="1">
          <mxGeometry relative="1" as="geometry" />
        </mxCell>
        <mxCell id="cQe81ZR_d18F-CRXPFzD-14" value="&lt;b&gt;&lt;font style=&quot;font-size: 14px;&quot;&gt;NPU 负载&lt;/font&gt;&lt;/b&gt;" style="rounded=1;whiteSpace=wrap;html=1;shadow=0;strokeWidth=2;fontSize=18;dashed=1;" parent="1" vertex="1">
          <mxGeometry x="510" y="180" width="190" height="30" as="geometry" />
        </mxCell>
      </root>
    </mxGraphModel>
  </diagram>
  <diagram id="LWr9Al1ruHZxtpBfucPP" name="Page-7">
    <mxGraphModel dx="2210" dy="761" grid="1" gridSize="10" guides="1" tooltips="1" connect="1" arrows="1" fold="1" page="1" pageScale="1" pageWidth="850" pageHeight="1100" math="0" shadow="0">
      <root>
        <mxCell id="0" />
        <mxCell id="1" parent="0" />
        <mxCell id="rkfoRcXAF6cAXRlwlmBC-1" style="edgeStyle=orthogonalEdgeStyle;rounded=0;orthogonalLoop=1;jettySize=auto;html=1;exitX=0.5;exitY=0;exitDx=0;exitDy=0;entryX=0.5;entryY=1;entryDx=0;entryDy=0;shadow=0;strokeWidth=2;fontSize=14;fontColor=#000000;" parent="1" source="rkfoRcXAF6cAXRlwlmBC-2" target="rkfoRcXAF6cAXRlwlmBC-6" edge="1">
          <mxGeometry relative="1" as="geometry" />
        </mxCell>
        <mxCell id="rkfoRcXAF6cAXRlwlmBC-2" value="&lt;b&gt;&amp;nbsp;&lt;span style=&quot;font-family: &amp;quot;Droid Sans Mono&amp;quot;, &amp;quot;monospace&amp;quot;, monospace; font-size: 14px;&quot;&gt;sys&lt;/span&gt;&lt;span style=&quot;font-family: &amp;quot;Droid Sans Mono&amp;quot;, &amp;quot;monospace&amp;quot;, monospace; font-size: 14px;&quot;&gt;/&lt;/span&gt;&lt;span style=&quot;font-family: &amp;quot;Droid Sans Mono&amp;quot;, &amp;quot;monospace&amp;quot;, monospace; font-size: 14px;&quot;&gt;kernel&lt;/span&gt;&lt;span style=&quot;font-family: &amp;quot;Droid Sans Mono&amp;quot;, &amp;quot;monospace&amp;quot;, monospace; font-size: 14px;&quot;&gt;/&lt;/span&gt;&lt;span style=&quot;font-family: &amp;quot;Droid Sans Mono&amp;quot;, &amp;quot;monospace&amp;quot;, monospace; font-size: 14px;&quot;&gt;debug&lt;/span&gt;&lt;span style=&quot;font-family: &amp;quot;Droid Sans Mono&amp;quot;, &amp;quot;monospace&amp;quot;, monospace; font-size: 14px;&quot;&gt;/&lt;/span&gt;&lt;span style=&quot;font-family: &amp;quot;Droid Sans Mono&amp;quot;, &amp;quot;monospace&amp;quot;, monospace; font-size: 14px;&quot;&gt;clk&lt;/span&gt;&lt;span style=&quot;font-family: &amp;quot;Droid Sans Mono&amp;quot;, &amp;quot;monospace&amp;quot;, monospace; font-size: 14px;&quot;&gt;/&lt;/span&gt;&lt;span style=&quot;font-family: &amp;quot;Droid Sans Mono&amp;quot;, &amp;quot;monospace&amp;quot;, monospace; font-size: 14px;&quot;&gt;clk_summary | grep ARM&lt;/span&gt;&lt;/b&gt;" style="rounded=1;whiteSpace=wrap;html=1;shadow=0;strokeWidth=2;fontSize=18;dashed=1;" parent="1" vertex="1">
          <mxGeometry x="140" y="270" width="440" height="30" as="geometry" />
        </mxCell>
        <mxCell id="rkfoRcXAF6cAXRlwlmBC-3" value="&lt;b&gt;内核IO&lt;/b&gt;" style="rounded=1;whiteSpace=wrap;html=1;shadow=0;strokeWidth=2;fontSize=18;" parent="1" vertex="1">
          <mxGeometry y="230" width="740" height="30" as="geometry" />
        </mxCell>
        <mxCell id="rkfoRcXAF6cAXRlwlmBC-4" value="&lt;b&gt;NPU/CPU元信息日志&lt;/b&gt;" style="rounded=1;whiteSpace=wrap;html=1;shadow=0;strokeWidth=2;fontSize=18;dashed=1;" parent="1" vertex="1">
          <mxGeometry x="190" y="90" width="340" height="30" as="geometry" />
        </mxCell>
        <mxCell id="rkfoRcXAF6cAXRlwlmBC-5" style="edgeStyle=orthogonalEdgeStyle;rounded=0;orthogonalLoop=1;jettySize=auto;html=1;entryX=0.5;entryY=1;entryDx=0;entryDy=0;shadow=0;strokeWidth=2;fontSize=14;fontColor=#000000;" parent="1" source="rkfoRcXAF6cAXRlwlmBC-6" target="rkfoRcXAF6cAXRlwlmBC-4" edge="1">
          <mxGeometry relative="1" as="geometry" />
        </mxCell>
        <mxCell id="rkfoRcXAF6cAXRlwlmBC-6" value="&lt;b&gt;&lt;font style=&quot;font-size: 14px;&quot;&gt;CPU 频率&lt;/font&gt;&lt;/b&gt;" style="rounded=1;whiteSpace=wrap;html=1;shadow=0;strokeWidth=2;fontSize=18;dashed=1;" parent="1" vertex="1">
          <mxGeometry x="265" y="180" width="190" height="30" as="geometry" />
        </mxCell>
        <mxCell id="rkfoRcXAF6cAXRlwlmBC-7" style="edgeStyle=orthogonalEdgeStyle;rounded=0;orthogonalLoop=1;jettySize=auto;html=1;exitX=0.5;exitY=0;exitDx=0;exitDy=0;entryX=0;entryY=0.5;entryDx=0;entryDy=0;shadow=0;strokeWidth=2;fontSize=14;fontColor=#000000;" parent="1" source="rkfoRcXAF6cAXRlwlmBC-8" target="rkfoRcXAF6cAXRlwlmBC-4" edge="1">
          <mxGeometry relative="1" as="geometry" />
        </mxCell>
        <mxCell id="rkfoRcXAF6cAXRlwlmBC-8" value="&lt;b&gt;&lt;font style=&quot;font-size: 14px;&quot;&gt;NPU 频率&lt;/font&gt;&lt;/b&gt;" style="rounded=1;whiteSpace=wrap;html=1;shadow=0;strokeWidth=2;fontSize=18;dashed=1;" parent="1" vertex="1">
          <mxGeometry x="30" y="180" width="190" height="30" as="geometry" />
        </mxCell>
        <mxCell id="rkfoRcXAF6cAXRlwlmBC-9" style="edgeStyle=orthogonalEdgeStyle;rounded=0;orthogonalLoop=1;jettySize=auto;html=1;exitX=0.5;exitY=0;exitDx=0;exitDy=0;entryX=0.553;entryY=1;entryDx=0;entryDy=0;entryPerimeter=0;shadow=0;strokeWidth=2;fontSize=14;fontColor=#000000;" parent="1" source="rkfoRcXAF6cAXRlwlmBC-10" target="rkfoRcXAF6cAXRlwlmBC-14" edge="1">
          <mxGeometry relative="1" as="geometry" />
        </mxCell>
        <mxCell id="rkfoRcXAF6cAXRlwlmBC-10" value="&lt;div style=&quot;font-family: &amp;quot;Droid Sans Mono&amp;quot;, &amp;quot;monospace&amp;quot;, monospace; font-size: 14px; line-height: 19px;&quot;&gt;&lt;span style=&quot;background-color: rgb(255, 255, 255);&quot;&gt;&lt;b&gt;/sys/kernel/debug/rknpu/load&lt;/b&gt;&lt;/span&gt;&lt;/div&gt;" style="rounded=1;whiteSpace=wrap;html=1;shadow=0;strokeWidth=2;fontSize=18;dashed=1;" parent="1" vertex="1">
          <mxGeometry x="490" y="320" width="250" height="30" as="geometry" />
        </mxCell>
        <mxCell id="rkfoRcXAF6cAXRlwlmBC-11" style="edgeStyle=orthogonalEdgeStyle;rounded=0;orthogonalLoop=1;jettySize=auto;html=1;exitX=0.5;exitY=0;exitDx=0;exitDy=0;entryX=0.5;entryY=1;entryDx=0;entryDy=0;shadow=0;strokeWidth=2;fontSize=14;fontColor=#000000;" parent="1" source="rkfoRcXAF6cAXRlwlmBC-12" target="rkfoRcXAF6cAXRlwlmBC-8" edge="1">
          <mxGeometry relative="1" as="geometry" />
        </mxCell>
        <mxCell id="rkfoRcXAF6cAXRlwlmBC-12" value="&lt;div style=&quot;font-family: &amp;quot;Droid Sans Mono&amp;quot;, &amp;quot;monospace&amp;quot;, monospace; font-size: 14px; line-height: 19px;&quot;&gt;&lt;span style=&quot;background-color: rgb(255, 255, 255);&quot;&gt;&lt;b&gt;/sys/kernel/debug/rknpu/freq&lt;/b&gt;&lt;/span&gt;&lt;/div&gt;" style="rounded=1;whiteSpace=wrap;html=1;shadow=0;strokeWidth=2;fontSize=18;dashed=1;" parent="1" vertex="1">
          <mxGeometry y="320" width="250" height="30" as="geometry" />
        </mxCell>
        <mxCell id="rkfoRcXAF6cAXRlwlmBC-13" style="edgeStyle=orthogonalEdgeStyle;rounded=0;orthogonalLoop=1;jettySize=auto;html=1;entryX=1;entryY=0.5;entryDx=0;entryDy=0;shadow=0;strokeWidth=2;fontSize=14;fontColor=#000000;" parent="1" source="rkfoRcXAF6cAXRlwlmBC-14" target="rkfoRcXAF6cAXRlwlmBC-4" edge="1">
          <mxGeometry relative="1" as="geometry" />
        </mxCell>
        <mxCell id="rkfoRcXAF6cAXRlwlmBC-14" value="&lt;b&gt;&lt;font style=&quot;font-size: 14px;&quot;&gt;NPU 负载&lt;/font&gt;&lt;/b&gt;" style="rounded=1;whiteSpace=wrap;html=1;shadow=0;strokeWidth=2;fontSize=18;dashed=1;" parent="1" vertex="1">
          <mxGeometry x="510" y="180" width="190" height="30" as="geometry" />
        </mxCell>
      </root>
    </mxGraphModel>
  </diagram>
  <diagram id="_hVuKNEg098JW3deCLBz" name="Page-8">
    <mxGraphModel dx="1360" dy="761" grid="1" gridSize="10" guides="1" tooltips="1" connect="1" arrows="1" fold="1" page="1" pageScale="1" pageWidth="850" pageHeight="1100" math="0" shadow="0">
      <root>
        <mxCell id="0" />
        <mxCell id="1" parent="0" />
        <mxCell id="AyAJT5WzDYHeJAUaNBMg-2" value="" style="shape=image;imageAspect=0;aspect=fixed;verticalLabelPosition=bottom;verticalAlign=top;shadow=0;labelBackgroundColor=#FFFFFF;strokeWidth=2;fontSize=14;fontColor=#000000;image=https://upload.wikimedia.org/wikipedia/commons/3/3d/Neural_network.svg;fontStyle=1;fontFamily=Times New Roman;" parent="1" vertex="1">
          <mxGeometry x="130" y="10" width="589.46" height="393.35" as="geometry" />
        </mxCell>
        <mxCell id="AyAJT5WzDYHeJAUaNBMg-19" value="" style="html=1;shadow=0;dashed=0;align=center;verticalAlign=middle;shape=mxgraph.arrows2.arrow;dy=0.72;dx=15.77;notch=0;sketch=1;hachureGap=4;jiggle=2;curveFitting=1;fontFamily=Times New Roman;fontSize=20;fillColor=#FF3333;rotation=-35;" parent="1" vertex="1">
          <mxGeometry x="280" y="90" width="120" height="30" as="geometry" />
        </mxCell>
        <mxCell id="AyAJT5WzDYHeJAUaNBMg-20" value="" style="html=1;shadow=0;dashed=0;align=center;verticalAlign=middle;shape=mxgraph.arrows2.arrow;dy=0.72;dx=15.77;notch=0;sketch=1;hachureGap=4;jiggle=2;curveFitting=1;fontFamily=Times New Roman;fontSize=20;fillColor=#FF0000;rotation=50;" parent="1" vertex="1">
          <mxGeometry x="456" y="100" width="120" height="30" as="geometry" />
        </mxCell>
        <mxCell id="AyAJT5WzDYHeJAUaNBMg-21" value="" style="html=1;shadow=0;dashed=0;align=center;verticalAlign=middle;shape=mxgraph.arrows2.arrow;dy=0.72;dx=15.77;notch=0;sketch=1;hachureGap=4;jiggle=2;curveFitting=1;fontFamily=Times New Roman;fontSize=20;fillColor=#3333FF;rotation=0;" parent="1" vertex="1">
          <mxGeometry x="460" y="190" width="120" height="30" as="geometry" />
        </mxCell>
        <mxCell id="AyAJT5WzDYHeJAUaNBMg-22" value="" style="html=1;shadow=0;dashed=0;align=center;verticalAlign=middle;shape=mxgraph.arrows2.arrow;dy=0.72;dx=15.77;notch=0;sketch=1;hachureGap=4;jiggle=2;curveFitting=1;fontFamily=Times New Roman;fontSize=20;fillColor=#3333FF;rotation=-15;" parent="1" vertex="1">
          <mxGeometry x="280" y="210" width="120" height="30" as="geometry" />
        </mxCell>
        <mxCell id="AyAJT5WzDYHeJAUaNBMg-26" value="Process Path" style="swimlane;childLayout=stackLayout;horizontal=1;fillColor=none;horizontalStack=1;resizeParent=1;resizeParentMax=0;resizeLast=0;collapsible=0;strokeColor=none;stackBorder=10;stackSpacing=-12;resizable=1;align=center;points=[];whiteSpace=wrap;html=1;sketch=1;hachureGap=4;jiggle=2;curveFitting=1;fontFamily=Times New Roman;fontSize=20;" parent="1" vertex="1">
          <mxGeometry x="276.73" y="400" width="296" height="100" as="geometry" />
        </mxCell>
        <mxCell id="AyAJT5WzDYHeJAUaNBMg-27" value="Step 1" style="shape=step;perimeter=stepPerimeter;fixedSize=1;points=[];whiteSpace=wrap;html=1;sketch=1;hachureGap=4;jiggle=2;curveFitting=1;fontFamily=Times New Roman;fontSize=20;fillColor=#33FF99;" parent="AyAJT5WzDYHeJAUaNBMg-26" vertex="1">
          <mxGeometry x="10" y="33" width="100" height="57" as="geometry" />
        </mxCell>
        <mxCell id="AyAJT5WzDYHeJAUaNBMg-28" value="Step 2" style="shape=step;perimeter=stepPerimeter;fixedSize=1;points=[];whiteSpace=wrap;html=1;sketch=1;hachureGap=4;jiggle=2;curveFitting=1;fontFamily=Times New Roman;fontSize=20;fillColor=#33FFFF;" parent="AyAJT5WzDYHeJAUaNBMg-26" vertex="1">
          <mxGeometry x="98" y="33" width="100" height="57" as="geometry" />
        </mxCell>
        <mxCell id="AyAJT5WzDYHeJAUaNBMg-29" value="Step 3" style="shape=step;perimeter=stepPerimeter;fixedSize=1;points=[];whiteSpace=wrap;html=1;sketch=1;hachureGap=4;jiggle=2;curveFitting=1;fontFamily=Times New Roman;fontSize=20;fillColor=#FFFF00;" parent="AyAJT5WzDYHeJAUaNBMg-26" vertex="1">
          <mxGeometry x="186" y="33" width="100" height="57" as="geometry" />
        </mxCell>
        <mxCell id="AyAJT5WzDYHeJAUaNBMg-31" value="A" style="text;html=1;align=center;verticalAlign=middle;resizable=0;points=[];autosize=1;strokeColor=none;fillColor=none;fontSize=20;fontFamily=Times New Roman;" parent="1" vertex="1">
          <mxGeometry x="230" y="140" width="40" height="40" as="geometry" />
        </mxCell>
        <mxCell id="AyAJT5WzDYHeJAUaNBMg-32" value="B" style="text;html=1;align=center;verticalAlign=middle;resizable=0;points=[];autosize=1;strokeColor=none;fillColor=none;fontSize=20;fontFamily=Times New Roman;" parent="1" vertex="1">
          <mxGeometry x="405" y="30" width="40" height="40" as="geometry" />
        </mxCell>
        <mxCell id="AyAJT5WzDYHeJAUaNBMg-33" value="C" style="text;html=1;align=center;verticalAlign=middle;resizable=0;points=[];autosize=1;strokeColor=none;fillColor=none;fontSize=20;fontFamily=Times New Roman;" parent="1" vertex="1">
          <mxGeometry x="580" y="186.67000000000002" width="40" height="40" as="geometry" />
        </mxCell>
        <mxCell id="AyAJT5WzDYHeJAUaNBMg-34" value="A" style="text;html=1;align=center;verticalAlign=middle;resizable=0;points=[];autosize=1;strokeColor=none;fillColor=none;fontSize=20;fontFamily=Times New Roman;" parent="1" vertex="1">
          <mxGeometry x="230" y="240" width="40" height="40" as="geometry" />
        </mxCell>
        <mxCell id="AyAJT5WzDYHeJAUaNBMg-35" value="B" style="text;html=1;align=center;verticalAlign=middle;resizable=0;points=[];autosize=1;strokeColor=none;fillColor=none;fontSize=20;fontFamily=Times New Roman;" parent="1" vertex="1">
          <mxGeometry x="404.73" y="110" width="40" height="40" as="geometry" />
        </mxCell>
        <mxCell id="AyAJT5WzDYHeJAUaNBMg-36" value="B" style="text;html=1;align=center;verticalAlign=middle;resizable=0;points=[];autosize=1;strokeColor=none;fillColor=none;fontSize=20;fontFamily=Times New Roman;" parent="1" vertex="1">
          <mxGeometry x="405" y="190" width="40" height="40" as="geometry" />
        </mxCell>
        <mxCell id="AyAJT5WzDYHeJAUaNBMg-37" value="B" style="text;html=1;align=center;verticalAlign=middle;resizable=0;points=[];autosize=1;strokeColor=none;fillColor=none;fontSize=20;fontFamily=Times New Roman;" parent="1" vertex="1">
          <mxGeometry x="405" y="270" width="40" height="40" as="geometry" />
        </mxCell>
        <mxCell id="AyAJT5WzDYHeJAUaNBMg-38" value="B" style="text;html=1;align=center;verticalAlign=middle;resizable=0;points=[];autosize=1;strokeColor=none;fillColor=none;fontSize=20;fontFamily=Times New Roman;" parent="1" vertex="1">
          <mxGeometry x="405" y="350" width="40" height="40" as="geometry" />
        </mxCell>
      </root>
    </mxGraphModel>
  </diagram>
  <diagram id="g22UDI7_Mb5EQURSkJLM" name="Page-9">
    <mxGraphModel dx="1360" dy="761" grid="1" gridSize="10" guides="1" tooltips="1" connect="1" arrows="1" fold="1" page="1" pageScale="1" pageWidth="850" pageHeight="1100" math="0" shadow="0">
      <root>
        <mxCell id="0" />
        <mxCell id="1" parent="0" />
        <mxCell id="Kx0OWunqH6Pm-XtDDWB3-64" style="edgeStyle=orthogonalEdgeStyle;rounded=0;sketch=1;hachureGap=4;jiggle=2;curveFitting=1;orthogonalLoop=1;jettySize=auto;html=1;exitX=0.5;exitY=1;exitDx=0;exitDy=0;entryX=0;entryY=0.5;entryDx=0;entryDy=0;entryPerimeter=0;labelBackgroundColor=#FF0000;fontFamily=Times New Roman;fontSize=16;fontColor=#FF0000;" parent="1" source="Kx0OWunqH6Pm-XtDDWB3-46" target="Kx0OWunqH6Pm-XtDDWB3-61" edge="1">
          <mxGeometry relative="1" as="geometry" />
        </mxCell>
        <mxCell id="Kx0OWunqH6Pm-XtDDWB3-46" value="数据集" style="swimlane;fontStyle=0;childLayout=stackLayout;horizontal=1;startSize=26;fillColor=none;horizontalStack=0;resizeParent=1;resizeParentMax=0;resizeLast=0;collapsible=1;marginBottom=0;html=1;labelBackgroundColor=#FFFFFF;sketch=1;hachureGap=4;jiggle=2;curveFitting=1;fontFamily=Times New Roman;fontSize=20;fontColor=#000000;align=center;" parent="1" vertex="1">
          <mxGeometry x="120" y="160" width="140" height="104" as="geometry" />
        </mxCell>
        <mxCell id="Kx0OWunqH6Pm-XtDDWB3-58" style="edgeStyle=orthogonalEdgeStyle;rounded=0;sketch=1;hachureGap=4;jiggle=2;curveFitting=1;orthogonalLoop=1;jettySize=auto;html=1;labelBackgroundColor=#FF0000;fontFamily=Times New Roman;fontSize=16;fontColor=#FF0000;" parent="Kx0OWunqH6Pm-XtDDWB3-46" source="Kx0OWunqH6Pm-XtDDWB3-47" edge="1">
          <mxGeometry relative="1" as="geometry">
            <mxPoint x="290" y="-40" as="targetPoint" />
            <Array as="points">
              <mxPoint x="170" y="39" />
              <mxPoint x="170" y="-40" />
            </Array>
          </mxGeometry>
        </mxCell>
        <mxCell id="Kx0OWunqH6Pm-XtDDWB3-47" value="训练集" style="text;strokeColor=none;fillColor=none;align=center;verticalAlign=top;spacingLeft=4;spacingRight=4;overflow=hidden;rotatable=0;points=[[0,0.5],[1,0.5]];portConstraint=eastwest;whiteSpace=wrap;html=1;fontSize=20;fontFamily=Times New Roman;fontColor=#000000;" parent="Kx0OWunqH6Pm-XtDDWB3-46" vertex="1">
          <mxGeometry y="26" width="140" height="26" as="geometry" />
        </mxCell>
        <mxCell id="Kx0OWunqH6Pm-XtDDWB3-48" value="验证集" style="text;strokeColor=none;fillColor=none;align=center;verticalAlign=top;spacingLeft=4;spacingRight=4;overflow=hidden;rotatable=0;points=[[0,0.5],[1,0.5]];portConstraint=eastwest;whiteSpace=wrap;html=1;fontSize=20;fontFamily=Times New Roman;fontColor=#000000;" parent="Kx0OWunqH6Pm-XtDDWB3-46" vertex="1">
          <mxGeometry y="52" width="140" height="26" as="geometry" />
        </mxCell>
        <mxCell id="Kx0OWunqH6Pm-XtDDWB3-49" value="测试集" style="text;strokeColor=none;fillColor=none;align=center;verticalAlign=top;spacingLeft=4;spacingRight=4;overflow=hidden;rotatable=0;points=[[0,0.5],[1,0.5]];portConstraint=eastwest;whiteSpace=wrap;html=1;fontSize=20;fontFamily=Times New Roman;fontColor=#000000;" parent="Kx0OWunqH6Pm-XtDDWB3-46" vertex="1">
          <mxGeometry y="78" width="140" height="26" as="geometry" />
        </mxCell>
        <mxCell id="Kx0OWunqH6Pm-XtDDWB3-59" style="edgeStyle=orthogonalEdgeStyle;rounded=0;sketch=1;hachureGap=4;jiggle=2;curveFitting=1;orthogonalLoop=1;jettySize=auto;html=1;exitX=1;exitY=0.5;exitDx=0;exitDy=0;labelBackgroundColor=#FF0000;fontFamily=Times New Roman;fontSize=16;fontColor=#FF0000;" parent="Kx0OWunqH6Pm-XtDDWB3-46" source="Kx0OWunqH6Pm-XtDDWB3-47" target="Kx0OWunqH6Pm-XtDDWB3-47" edge="1">
          <mxGeometry relative="1" as="geometry" />
        </mxCell>
        <mxCell id="Kx0OWunqH6Pm-XtDDWB3-54" style="edgeStyle=orthogonalEdgeStyle;rounded=0;sketch=1;hachureGap=4;jiggle=2;curveFitting=1;orthogonalLoop=1;jettySize=auto;html=1;exitX=0.5;exitY=1;exitDx=0;exitDy=0;exitPerimeter=0;entryX=0.5;entryY=0;entryDx=0;entryDy=0;fontFamily=Times New Roman;fontSize=16;fontColor=#000000;" parent="1" source="Kx0OWunqH6Pm-XtDDWB3-50" target="Kx0OWunqH6Pm-XtDDWB3-51" edge="1">
          <mxGeometry relative="1" as="geometry" />
        </mxCell>
        <mxCell id="Kx0OWunqH6Pm-XtDDWB3-50" value="算法设计" style="strokeWidth=2;html=1;shape=mxgraph.flowchart.start_1;whiteSpace=wrap;labelBackgroundColor=#FFFFFF;sketch=1;hachureGap=4;jiggle=2;curveFitting=1;fontFamily=Times New Roman;fontSize=20;fontColor=#000000;" parent="1" vertex="1">
          <mxGeometry x="360" y="40" width="100" height="60" as="geometry" />
        </mxCell>
        <mxCell id="Kx0OWunqH6Pm-XtDDWB3-55" style="edgeStyle=orthogonalEdgeStyle;rounded=0;sketch=1;hachureGap=4;jiggle=2;curveFitting=1;orthogonalLoop=1;jettySize=auto;html=1;fontFamily=Times New Roman;fontSize=16;fontColor=#000000;" parent="1" source="Kx0OWunqH6Pm-XtDDWB3-51" target="Kx0OWunqH6Pm-XtDDWB3-53" edge="1">
          <mxGeometry relative="1" as="geometry" />
        </mxCell>
        <mxCell id="Kx0OWunqH6Pm-XtDDWB3-51" value="参数训练" style="rounded=1;whiteSpace=wrap;html=1;absoluteArcSize=1;arcSize=14;strokeWidth=2;labelBackgroundColor=#FFFFFF;sketch=1;hachureGap=4;jiggle=2;curveFitting=1;fontFamily=Times New Roman;fontSize=20;fontColor=#000000;" parent="1" vertex="1">
          <mxGeometry x="310" y="145" width="200" height="65" as="geometry" />
        </mxCell>
        <mxCell id="Kx0OWunqH6Pm-XtDDWB3-52" value="产出算法" style="strokeWidth=2;html=1;shape=mxgraph.flowchart.terminator;whiteSpace=wrap;labelBackgroundColor=#FFFFFF;sketch=1;hachureGap=4;jiggle=2;curveFitting=1;fontFamily=Times New Roman;fontSize=20;fontColor=#000000;" parent="1" vertex="1">
          <mxGeometry x="360" y="490" width="100" height="60" as="geometry" />
        </mxCell>
        <mxCell id="Kx0OWunqH6Pm-XtDDWB3-57" style="edgeStyle=orthogonalEdgeStyle;rounded=0;sketch=1;hachureGap=4;jiggle=2;curveFitting=1;orthogonalLoop=1;jettySize=auto;html=1;exitX=1;exitY=0.5;exitDx=0;exitDy=0;exitPerimeter=0;entryX=1;entryY=0.5;entryDx=0;entryDy=0;entryPerimeter=0;fontFamily=Times New Roman;fontSize=16;fontColor=#FF0000;labelBackgroundColor=#FF0000;" parent="1" source="Kx0OWunqH6Pm-XtDDWB3-53" target="Kx0OWunqH6Pm-XtDDWB3-50" edge="1">
          <mxGeometry relative="1" as="geometry">
            <Array as="points">
              <mxPoint x="630" y="284" />
              <mxPoint x="630" y="70" />
            </Array>
          </mxGeometry>
        </mxCell>
        <mxCell id="Kx0OWunqH6Pm-XtDDWB3-62" style="edgeStyle=orthogonalEdgeStyle;rounded=0;sketch=1;hachureGap=4;jiggle=2;curveFitting=1;orthogonalLoop=1;jettySize=auto;html=1;exitX=0.5;exitY=1;exitDx=0;exitDy=0;exitPerimeter=0;labelBackgroundColor=#FF0000;fontFamily=Times New Roman;fontSize=16;fontColor=#FF0000;" parent="1" source="Kx0OWunqH6Pm-XtDDWB3-53" target="Kx0OWunqH6Pm-XtDDWB3-61" edge="1">
          <mxGeometry relative="1" as="geometry" />
        </mxCell>
        <mxCell id="Kx0OWunqH6Pm-XtDDWB3-53" value="验证泛化" style="strokeWidth=2;html=1;shape=mxgraph.flowchart.decision;whiteSpace=wrap;labelBackgroundColor=#FFFFFF;sketch=1;hachureGap=4;jiggle=2;curveFitting=1;fontFamily=Times New Roman;fontSize=20;fontColor=#000000;" parent="1" vertex="1">
          <mxGeometry x="360" y="234" width="100" height="100" as="geometry" />
        </mxCell>
        <mxCell id="Kx0OWunqH6Pm-XtDDWB3-60" style="edgeStyle=orthogonalEdgeStyle;rounded=0;sketch=1;hachureGap=4;jiggle=2;curveFitting=1;orthogonalLoop=1;jettySize=auto;html=1;entryX=0;entryY=0.5;entryDx=0;entryDy=0;entryPerimeter=0;labelBackgroundColor=#FF0000;fontFamily=Times New Roman;fontSize=16;fontColor=#FF0000;" parent="1" source="Kx0OWunqH6Pm-XtDDWB3-48" target="Kx0OWunqH6Pm-XtDDWB3-53" edge="1">
          <mxGeometry relative="1" as="geometry" />
        </mxCell>
        <mxCell id="Kx0OWunqH6Pm-XtDDWB3-63" style="edgeStyle=orthogonalEdgeStyle;rounded=0;sketch=1;hachureGap=4;jiggle=2;curveFitting=1;orthogonalLoop=1;jettySize=auto;html=1;exitX=0.5;exitY=1;exitDx=0;exitDy=0;exitPerimeter=0;entryX=0.5;entryY=0;entryDx=0;entryDy=0;entryPerimeter=0;labelBackgroundColor=#FF0000;fontFamily=Times New Roman;fontSize=16;fontColor=#FF0000;" parent="1" source="Kx0OWunqH6Pm-XtDDWB3-61" target="Kx0OWunqH6Pm-XtDDWB3-52" edge="1">
          <mxGeometry relative="1" as="geometry" />
        </mxCell>
        <mxCell id="Kx0OWunqH6Pm-XtDDWB3-61" value="测试指标" style="strokeWidth=2;html=1;shape=mxgraph.flowchart.decision;whiteSpace=wrap;labelBackgroundColor=#FFFFFF;sketch=1;hachureGap=4;jiggle=2;curveFitting=1;fontFamily=Times New Roman;fontSize=20;fontColor=#000000;" parent="1" vertex="1">
          <mxGeometry x="360" y="350" width="100" height="100" as="geometry" />
        </mxCell>
      </root>
    </mxGraphModel>
  </diagram>
  <diagram id="m3rnKJV4fDBWTSQ6Vg58" name="Page-10">
    <mxGraphModel dx="1183" dy="662" grid="1" gridSize="10" guides="1" tooltips="1" connect="1" arrows="1" fold="1" page="1" pageScale="1" pageWidth="850" pageHeight="1100" math="0" shadow="0">
      <root>
        <mxCell id="0" />
        <mxCell id="1" parent="0" />
        <mxCell id="0SIHzDB0nq5n2cl0_WyY-2" value="Pytorch/Tensorflow......" style="strokeWidth=2;html=1;shape=mxgraph.flowchart.terminator;whiteSpace=wrap;labelBackgroundColor=#FFFFFF;sketch=1;hachureGap=4;jiggle=2;curveFitting=1;fontFamily=Times New Roman;fontSize=20;fontColor=#000000;" parent="1" vertex="1">
          <mxGeometry x="200" y="60" width="300" height="40" as="geometry" />
        </mxCell>
        <mxCell id="0SIHzDB0nq5n2cl0_WyY-3" value="ONNX" style="shape=rhombus;perimeter=rhombusPerimeter;whiteSpace=wrap;html=1;align=center;labelBackgroundColor=#FFFFFF;sketch=1;hachureGap=4;jiggle=2;curveFitting=1;fontFamily=Times New Roman;fontSize=20;fontColor=#FF0000;" parent="1" vertex="1">
          <mxGeometry x="75" y="130" width="120" height="60" as="geometry" />
        </mxCell>
        <mxCell id="0SIHzDB0nq5n2cl0_WyY-4" value="Torch-jit" style="shape=rhombus;perimeter=rhombusPerimeter;whiteSpace=wrap;html=1;align=center;labelBackgroundColor=#FFFFFF;sketch=1;hachureGap=4;jiggle=2;curveFitting=1;fontFamily=Times New Roman;fontSize=20;fontColor=#FF0000;" parent="1" vertex="1">
          <mxGeometry x="215" y="130" width="120" height="60" as="geometry" />
        </mxCell>
        <mxCell id="0SIHzDB0nq5n2cl0_WyY-5" value="SavedModel" style="shape=rhombus;perimeter=rhombusPerimeter;whiteSpace=wrap;html=1;align=center;labelBackgroundColor=#FFFFFF;sketch=1;hachureGap=4;jiggle=2;curveFitting=1;fontFamily=Times New Roman;fontSize=20;fontColor=#FF0000;" parent="1" vertex="1">
          <mxGeometry x="365" y="130" width="120" height="60" as="geometry" />
        </mxCell>
        <mxCell id="0SIHzDB0nq5n2cl0_WyY-7" value="......" style="shape=rhombus;perimeter=rhombusPerimeter;whiteSpace=wrap;html=1;align=center;labelBackgroundColor=#FFFFFF;sketch=1;hachureGap=4;jiggle=2;curveFitting=1;fontFamily=Times New Roman;fontSize=20;fontColor=#FF0000;" parent="1" vertex="1">
          <mxGeometry x="505" y="130" width="120" height="60" as="geometry" />
        </mxCell>
        <mxCell id="0SIHzDB0nq5n2cl0_WyY-8" value="" style="line;strokeWidth=2;html=1;labelBackgroundColor=#FFFFFF;sketch=1;hachureGap=4;jiggle=2;curveFitting=1;fontFamily=Times New Roman;fontSize=20;fontColor=#FF0000;" parent="1" vertex="1">
          <mxGeometry x="60" y="180" width="600" height="60" as="geometry" />
        </mxCell>
        <mxCell id="0SIHzDB0nq5n2cl0_WyY-10" value="" style="line;strokeWidth=2;html=1;labelBackgroundColor=#FFFFFF;sketch=1;hachureGap=4;jiggle=2;curveFitting=1;fontFamily=Times New Roman;fontSize=20;fontColor=#FF0000;" parent="1" vertex="1">
          <mxGeometry x="60" y="90" width="600" height="60" as="geometry" />
        </mxCell>
        <mxCell id="0SIHzDB0nq5n2cl0_WyY-11" value="Hardware layer" style="shape=partialRectangle;whiteSpace=wrap;html=1;left=0;right=0;fillColor=none;labelBackgroundColor=#FFFFFF;sketch=1;hachureGap=4;jiggle=2;curveFitting=1;fontFamily=Times New Roman;fontSize=20;fontColor=#FF0000;" parent="1" vertex="1">
          <mxGeometry x="60" y="330" width="600" height="60" as="geometry" />
        </mxCell>
        <mxCell id="0SIHzDB0nq5n2cl0_WyY-13" value="TensorRT" style="shape=offPageConnector;whiteSpace=wrap;html=1;labelBackgroundColor=#FFFFFF;sketch=1;hachureGap=4;jiggle=2;curveFitting=1;fontFamily=Times New Roman;fontSize=20;fontColor=#FF0000;" parent="1" vertex="1">
          <mxGeometry x="215" y="240" width="80" height="80" as="geometry" />
        </mxCell>
        <mxCell id="0SIHzDB0nq5n2cl0_WyY-14" value="TVM" style="shape=offPageConnector;whiteSpace=wrap;html=1;labelBackgroundColor=#FFFFFF;sketch=1;hachureGap=4;jiggle=2;curveFitting=1;fontFamily=Times New Roman;fontSize=20;fontColor=#FF0000;" parent="1" vertex="1">
          <mxGeometry x="320" y="240" width="80" height="80" as="geometry" />
        </mxCell>
        <mxCell id="0SIHzDB0nq5n2cl0_WyY-16" value="......" style="shape=offPageConnector;whiteSpace=wrap;html=1;labelBackgroundColor=#FFFFFF;sketch=1;hachureGap=4;jiggle=2;curveFitting=1;fontFamily=Times New Roman;fontSize=20;fontColor=#FF0000;" parent="1" vertex="1">
          <mxGeometry x="425" y="240" width="80" height="80" as="geometry" />
        </mxCell>
        <mxCell id="0SIHzDB0nq5n2cl0_WyY-22" style="edgeStyle=orthogonalEdgeStyle;rounded=0;sketch=1;hachureGap=4;jiggle=2;curveFitting=1;orthogonalLoop=1;jettySize=auto;html=1;exitX=0.25;exitY=1;exitDx=0;exitDy=0;entryX=0.25;entryY=0;entryDx=0;entryDy=0;labelBackgroundColor=#FF0000;fontFamily=Times New Roman;fontSize=14;fontColor=#FF0000;" parent="1" source="0SIHzDB0nq5n2cl0_WyY-19" target="0SIHzDB0nq5n2cl0_WyY-21" edge="1">
          <mxGeometry relative="1" as="geometry" />
        </mxCell>
        <mxCell id="0SIHzDB0nq5n2cl0_WyY-24" value="兼容性" style="edgeLabel;html=1;align=center;verticalAlign=middle;resizable=0;points=[];fontSize=14;fontFamily=Times New Roman;fontColor=#FF0000;" parent="0SIHzDB0nq5n2cl0_WyY-22" vertex="1" connectable="0">
          <mxGeometry x="-0.1771" y="-1" relative="1" as="geometry">
            <mxPoint y="35" as="offset" />
          </mxGeometry>
        </mxCell>
        <mxCell id="0SIHzDB0nq5n2cl0_WyY-19" value="高级描述" style="rounded=1;whiteSpace=wrap;html=1;arcSize=40;fontColor=#000000;fillColor=#ffffc0;strokeColor=#ff0000;labelBackgroundColor=#FFFFFF;sketch=1;hachureGap=4;jiggle=2;curveFitting=1;fontFamily=Times New Roman;fontSize=20;" parent="1" vertex="1">
          <mxGeometry x="680" y="60" width="120" height="30" as="geometry" />
        </mxCell>
        <mxCell id="0SIHzDB0nq5n2cl0_WyY-23" style="edgeStyle=orthogonalEdgeStyle;rounded=0;sketch=1;hachureGap=4;jiggle=2;curveFitting=1;orthogonalLoop=1;jettySize=auto;html=1;exitX=0.75;exitY=0;exitDx=0;exitDy=0;entryX=0.75;entryY=1;entryDx=0;entryDy=0;labelBackgroundColor=#FF0000;fontFamily=Times New Roman;fontSize=16;fontColor=#FF0000;" parent="1" source="0SIHzDB0nq5n2cl0_WyY-21" target="0SIHzDB0nq5n2cl0_WyY-19" edge="1">
          <mxGeometry relative="1" as="geometry" />
        </mxCell>
        <mxCell id="0SIHzDB0nq5n2cl0_WyY-25" value="性能" style="edgeLabel;html=1;align=center;verticalAlign=middle;resizable=0;points=[];fontSize=14;fontFamily=Times New Roman;fontColor=#FF0000;" parent="0SIHzDB0nq5n2cl0_WyY-23" vertex="1" connectable="0">
          <mxGeometry x="-0.13" y="-2" relative="1" as="geometry">
            <mxPoint y="-8" as="offset" />
          </mxGeometry>
        </mxCell>
        <mxCell id="0SIHzDB0nq5n2cl0_WyY-21" value="硬件描述" style="rounded=1;whiteSpace=wrap;html=1;arcSize=50;fontColor=#000000;fillColor=#ffffc0;strokeColor=#ff0000;labelBackgroundColor=#FFFFFF;sketch=1;hachureGap=4;jiggle=2;curveFitting=1;fontFamily=Times New Roman;fontSize=20;" parent="1" vertex="1">
          <mxGeometry x="680" y="370" width="120" height="30" as="geometry" />
        </mxCell>
      </root>
    </mxGraphModel>
  </diagram>
  <diagram id="36EkSTK2a5Itw9e0DP1R" name="Page-11">
    <mxGraphModel dx="1360" dy="761" grid="1" gridSize="10" guides="1" tooltips="1" connect="1" arrows="1" fold="1" page="1" pageScale="1" pageWidth="850" pageHeight="1100" math="0" shadow="0">
      <root>
        <mxCell id="0" />
        <mxCell id="1" parent="0" />
        <mxCell id="6W-6jQQrwfhfeIOC5DKX-54" style="edgeStyle=orthogonalEdgeStyle;rounded=0;sketch=1;hachureGap=4;jiggle=2;curveFitting=1;orthogonalLoop=1;jettySize=auto;html=1;exitX=1;exitY=0.5;exitDx=0;exitDy=0;entryX=0;entryY=0.5;entryDx=0;entryDy=0;labelBackgroundColor=#FF0000;fontFamily=Times New Roman;fontSize=14;fontColor=#000000;" parent="1" source="6W-6jQQrwfhfeIOC5DKX-1" target="6W-6jQQrwfhfeIOC5DKX-16" edge="1">
          <mxGeometry relative="1" as="geometry" />
        </mxCell>
        <mxCell id="6W-6jQQrwfhfeIOC5DKX-1" value="" style="shape=image;html=1;verticalAlign=top;verticalLabelPosition=bottom;labelBackgroundColor=#ffffff;imageAspect=0;aspect=fixed;image=https://cdn4.iconfinder.com/data/icons/ionicons/512/icon-image-128.png;sketch=1;hachureGap=4;jiggle=2;curveFitting=1;fontFamily=Times New Roman;fontSize=14;fontColor=#FF0000;" parent="1" vertex="1">
          <mxGeometry x="30" y="255" width="60" height="60" as="geometry" />
        </mxCell>
        <mxCell id="6W-6jQQrwfhfeIOC5DKX-55" style="edgeStyle=orthogonalEdgeStyle;rounded=0;sketch=1;hachureGap=4;jiggle=2;curveFitting=1;orthogonalLoop=1;jettySize=auto;html=1;exitX=1;exitY=0.5;exitDx=0;exitDy=0;entryX=0;entryY=0.5;entryDx=0;entryDy=0;labelBackgroundColor=#FF0000;fontFamily=Times New Roman;fontSize=14;fontColor=#000000;" parent="1" source="6W-6jQQrwfhfeIOC5DKX-16" target="6W-6jQQrwfhfeIOC5DKX-45" edge="1">
          <mxGeometry relative="1" as="geometry" />
        </mxCell>
        <mxCell id="6W-6jQQrwfhfeIOC5DKX-56" style="edgeStyle=orthogonalEdgeStyle;rounded=0;sketch=1;hachureGap=4;jiggle=2;curveFitting=1;orthogonalLoop=1;jettySize=auto;html=1;exitX=1;exitY=0.5;exitDx=0;exitDy=0;entryX=0;entryY=0.5;entryDx=0;entryDy=0;labelBackgroundColor=#FF0000;fontFamily=Times New Roman;fontSize=14;fontColor=#000000;" parent="1" source="6W-6jQQrwfhfeIOC5DKX-16" target="6W-6jQQrwfhfeIOC5DKX-20" edge="1">
          <mxGeometry relative="1" as="geometry" />
        </mxCell>
        <mxCell id="6W-6jQQrwfhfeIOC5DKX-57" style="edgeStyle=orthogonalEdgeStyle;rounded=0;sketch=1;hachureGap=4;jiggle=2;curveFitting=1;orthogonalLoop=1;jettySize=auto;html=1;exitX=1;exitY=0.5;exitDx=0;exitDy=0;entryX=0;entryY=0.5;entryDx=0;entryDy=0;labelBackgroundColor=#FF0000;fontFamily=Times New Roman;fontSize=14;fontColor=#000000;" parent="1" source="6W-6jQQrwfhfeIOC5DKX-16" target="6W-6jQQrwfhfeIOC5DKX-50" edge="1">
          <mxGeometry relative="1" as="geometry" />
        </mxCell>
        <mxCell id="6W-6jQQrwfhfeIOC5DKX-58" style="edgeStyle=orthogonalEdgeStyle;rounded=0;sketch=1;hachureGap=4;jiggle=2;curveFitting=1;orthogonalLoop=1;jettySize=auto;html=1;exitX=1;exitY=0.5;exitDx=0;exitDy=0;entryX=0;entryY=0.5;entryDx=0;entryDy=0;labelBackgroundColor=#FF0000;fontFamily=Times New Roman;fontSize=14;fontColor=#000000;" parent="1" source="6W-6jQQrwfhfeIOC5DKX-16" target="6W-6jQQrwfhfeIOC5DKX-52" edge="1">
          <mxGeometry relative="1" as="geometry" />
        </mxCell>
        <mxCell id="6W-6jQQrwfhfeIOC5DKX-16" value="&lt;font color=&quot;#000000&quot;&gt;特征提取&lt;/font&gt;" style="shape=process;whiteSpace=wrap;html=1;backgroundOutline=1;labelBackgroundColor=#FFFFFF;sketch=1;hachureGap=4;jiggle=2;curveFitting=1;fontFamily=Times New Roman;fontSize=14;fontColor=#FF0000;" parent="1" vertex="1">
          <mxGeometry x="120" y="255" width="120" height="60" as="geometry" />
        </mxCell>
        <mxCell id="6W-6jQQrwfhfeIOC5DKX-18" value="Cluster&lt;br&gt;&amp;amp;&amp;amp;&lt;br&gt;Decsion" style="strokeWidth=2;html=1;shape=mxgraph.flowchart.decision;whiteSpace=wrap;labelBackgroundColor=#FFFFFF;sketch=1;hachureGap=4;jiggle=2;curveFitting=1;fontFamily=Times New Roman;fontSize=14;fontColor=#000000;" parent="1" vertex="1">
          <mxGeometry x="450" y="235" width="100" height="100" as="geometry" />
        </mxCell>
        <mxCell id="6W-6jQQrwfhfeIOC5DKX-19" value="Assets" style="childLayout=tableLayout;recursiveResize=0;strokeColor=#98bf21;fillColor=#A7C942;shadow=1;labelBackgroundColor=#FFFFFF;sketch=1;hachureGap=4;jiggle=2;curveFitting=1;fontFamily=Times New Roman;fontSize=14;fontColor=#000000;" parent="1" vertex="1">
          <mxGeometry x="320" y="219" width="93" height="132" as="geometry" />
        </mxCell>
        <mxCell id="6W-6jQQrwfhfeIOC5DKX-45" style="shape=tableRow;horizontal=0;startSize=0;swimlaneHead=0;swimlaneBody=0;top=0;left=0;bottom=0;right=0;dropTarget=0;collapsible=0;recursiveResize=0;expand=0;fontStyle=0;strokeColor=inherit;fillColor=#ffffff;labelBackgroundColor=#FFFFFF;sketch=1;hachureGap=4;jiggle=2;curveFitting=1;fontFamily=Times New Roman;fontSize=14;fontColor=#000000;" parent="6W-6jQQrwfhfeIOC5DKX-19" vertex="1">
          <mxGeometry width="93" height="33" as="geometry" />
        </mxCell>
        <mxCell id="6W-6jQQrwfhfeIOC5DKX-46" value="&lt;font color=&quot;#000000&quot;&gt;Feature_0&lt;/font&gt;" style="connectable=0;recursiveResize=0;strokeColor=inherit;fillColor=#A7C942;align=center;fontStyle=1;fontColor=#FFFFFF;html=1;labelBackgroundColor=#FFFFFF;sketch=1;hachureGap=4;jiggle=2;curveFitting=1;fontFamily=Times New Roman;fontSize=14;" parent="6W-6jQQrwfhfeIOC5DKX-45" vertex="1">
          <mxGeometry width="93" height="33" as="geometry">
            <mxRectangle width="93" height="33" as="alternateBounds" />
          </mxGeometry>
        </mxCell>
        <mxCell id="6W-6jQQrwfhfeIOC5DKX-20" style="shape=tableRow;horizontal=0;startSize=0;swimlaneHead=0;swimlaneBody=0;top=0;left=0;bottom=0;right=0;dropTarget=0;collapsible=0;recursiveResize=0;expand=0;fontStyle=0;strokeColor=inherit;fillColor=#ffffff;labelBackgroundColor=#FFFFFF;sketch=1;hachureGap=4;jiggle=2;curveFitting=1;fontFamily=Times New Roman;fontSize=14;fontColor=#000000;" parent="6W-6jQQrwfhfeIOC5DKX-19" vertex="1">
          <mxGeometry y="33" width="93" height="33" as="geometry" />
        </mxCell>
        <mxCell id="6W-6jQQrwfhfeIOC5DKX-21" value="&lt;font color=&quot;#000000&quot;&gt;Feature_1&lt;/font&gt;" style="connectable=0;recursiveResize=0;strokeColor=inherit;fillColor=#A7C942;align=center;fontStyle=1;fontColor=#FFFFFF;html=1;labelBackgroundColor=#FFFFFF;sketch=1;hachureGap=4;jiggle=2;curveFitting=1;fontFamily=Times New Roman;fontSize=14;" parent="6W-6jQQrwfhfeIOC5DKX-20" vertex="1">
          <mxGeometry width="93" height="33" as="geometry">
            <mxRectangle width="93" height="33" as="alternateBounds" />
          </mxGeometry>
        </mxCell>
        <mxCell id="6W-6jQQrwfhfeIOC5DKX-50" style="shape=tableRow;horizontal=0;startSize=0;swimlaneHead=0;swimlaneBody=0;top=0;left=0;bottom=0;right=0;dropTarget=0;collapsible=0;recursiveResize=0;expand=0;fontStyle=0;strokeColor=inherit;fillColor=#ffffff;labelBackgroundColor=#FFFFFF;sketch=1;hachureGap=4;jiggle=2;curveFitting=1;fontFamily=Times New Roman;fontSize=14;fontColor=#000000;" parent="6W-6jQQrwfhfeIOC5DKX-19" vertex="1">
          <mxGeometry y="66" width="93" height="33" as="geometry" />
        </mxCell>
        <mxCell id="6W-6jQQrwfhfeIOC5DKX-51" value=".&lt;font color=&quot;#000000&quot;&gt;.....&lt;/font&gt;" style="connectable=0;recursiveResize=0;strokeColor=inherit;fillColor=#A7C942;align=center;fontStyle=1;fontColor=#FFFFFF;html=1;labelBackgroundColor=#FFFFFF;sketch=1;hachureGap=4;jiggle=2;curveFitting=1;fontFamily=Times New Roman;fontSize=14;" parent="6W-6jQQrwfhfeIOC5DKX-50" vertex="1">
          <mxGeometry width="93" height="33" as="geometry">
            <mxRectangle width="93" height="33" as="alternateBounds" />
          </mxGeometry>
        </mxCell>
        <mxCell id="6W-6jQQrwfhfeIOC5DKX-52" style="shape=tableRow;horizontal=0;startSize=0;swimlaneHead=0;swimlaneBody=0;top=0;left=0;bottom=0;right=0;dropTarget=0;collapsible=0;recursiveResize=0;expand=0;fontStyle=0;strokeColor=inherit;fillColor=#ffffff;labelBackgroundColor=#FFFFFF;sketch=1;hachureGap=4;jiggle=2;curveFitting=1;fontFamily=Times New Roman;fontSize=14;fontColor=#000000;" parent="6W-6jQQrwfhfeIOC5DKX-19" vertex="1">
          <mxGeometry y="99" width="93" height="33" as="geometry" />
        </mxCell>
        <mxCell id="6W-6jQQrwfhfeIOC5DKX-53" value="&lt;font color=&quot;#000000&quot;&gt;Feature_n&lt;/font&gt;" style="connectable=0;recursiveResize=0;strokeColor=inherit;fillColor=#A7C942;align=center;fontStyle=1;fontColor=#FFFFFF;html=1;labelBackgroundColor=#FFFFFF;sketch=1;hachureGap=4;jiggle=2;curveFitting=1;fontFamily=Times New Roman;fontSize=14;" parent="6W-6jQQrwfhfeIOC5DKX-52" vertex="1">
          <mxGeometry width="93" height="33" as="geometry">
            <mxRectangle width="93" height="33" as="alternateBounds" />
          </mxGeometry>
        </mxCell>
        <mxCell id="6W-6jQQrwfhfeIOC5DKX-59" style="edgeStyle=orthogonalEdgeStyle;rounded=0;sketch=1;hachureGap=4;jiggle=2;curveFitting=1;orthogonalLoop=1;jettySize=auto;html=1;exitX=1;exitY=1;exitDx=0;exitDy=0;entryX=0;entryY=0.5;entryDx=0;entryDy=0;entryPerimeter=0;labelBackgroundColor=#FF0000;fontFamily=Times New Roman;fontSize=14;fontColor=#000000;" parent="1" source="6W-6jQQrwfhfeIOC5DKX-20" target="6W-6jQQrwfhfeIOC5DKX-18" edge="1">
          <mxGeometry relative="1" as="geometry" />
        </mxCell>
      </root>
    </mxGraphModel>
  </diagram>
  <diagram id="35vrKNvXW6ecSRGw1Ewg" name="Page-12">
    <mxGraphModel dx="437" dy="761" grid="1" gridSize="10" guides="1" tooltips="1" connect="1" arrows="1" fold="1" page="1" pageScale="1" pageWidth="850" pageHeight="1100" math="0" shadow="0">
      <root>
        <mxCell id="0" />
        <mxCell id="1" parent="0" />
        <mxCell id="cGaAS2s18wIV29cbeUMV-1" value="" style="sketch=0;pointerEvents=1;shadow=0;dashed=0;html=1;strokeColor=none;fillColor=#434445;aspect=fixed;labelPosition=center;verticalLabelPosition=bottom;verticalAlign=top;align=center;outlineConnect=0;shape=mxgraph.vvd.log_files;labelBackgroundColor=#FFFFFF;hachureGap=4;jiggle=2;curveFitting=1;fontFamily=Times New Roman;fontSize=14;fontColor=#000000;" parent="1" vertex="1">
          <mxGeometry x="100" y="640" width="40" height="50" as="geometry" />
        </mxCell>
        <mxCell id="cGaAS2s18wIV29cbeUMV-2" value="" style="endArrow=none;dashed=1;html=1;dashPattern=1 3;strokeWidth=2;rounded=0;labelBackgroundColor=#FF0000;sketch=1;hachureGap=4;jiggle=2;curveFitting=1;fontFamily=Times New Roman;fontSize=14;fontColor=#000000;" parent="1" edge="1">
          <mxGeometry width="50" height="50" relative="1" as="geometry">
            <mxPoint x="65" y="210" as="sourcePoint" />
            <mxPoint x="785" y="210" as="targetPoint" />
          </mxGeometry>
        </mxCell>
        <mxCell id="cGaAS2s18wIV29cbeUMV-3" value="" style="endArrow=none;dashed=1;html=1;dashPattern=1 3;strokeWidth=2;rounded=0;labelBackgroundColor=#FF0000;sketch=1;hachureGap=4;jiggle=2;curveFitting=1;fontFamily=Times New Roman;fontSize=14;fontColor=#000000;" parent="1" edge="1">
          <mxGeometry width="50" height="50" relative="1" as="geometry">
            <mxPoint x="80" y="560" as="sourcePoint" />
            <mxPoint x="800" y="560" as="targetPoint" />
          </mxGeometry>
        </mxCell>
        <mxCell id="cGaAS2s18wIV29cbeUMV-6" value="request1" style="shape=step;perimeter=stepPerimeter;whiteSpace=wrap;html=1;fixedSize=1;labelBackgroundColor=#FFFFFF;sketch=1;hachureGap=4;jiggle=2;curveFitting=1;fontFamily=Times New Roman;fontSize=14;fontColor=#000000;" parent="1" vertex="1">
          <mxGeometry x="10" y="290" width="90" height="20" as="geometry" />
        </mxCell>
        <mxCell id="cGaAS2s18wIV29cbeUMV-7" value="request2" style="shape=step;perimeter=stepPerimeter;whiteSpace=wrap;html=1;fixedSize=1;labelBackgroundColor=#FFFFFF;sketch=1;hachureGap=4;jiggle=2;curveFitting=1;fontFamily=Times New Roman;fontSize=14;fontColor=#000000;" parent="1" vertex="1">
          <mxGeometry x="10" y="340" width="90" height="20" as="geometry" />
        </mxCell>
        <mxCell id="cGaAS2s18wIV29cbeUMV-8" value="request3" style="shape=step;perimeter=stepPerimeter;whiteSpace=wrap;html=1;fixedSize=1;labelBackgroundColor=#FFFFFF;sketch=1;hachureGap=4;jiggle=2;curveFitting=1;fontFamily=Times New Roman;fontSize=14;fontColor=#000000;" parent="1" vertex="1">
          <mxGeometry x="10" y="390" width="90" height="20" as="geometry" />
        </mxCell>
        <mxCell id="cGaAS2s18wIV29cbeUMV-9" value="request4" style="shape=step;perimeter=stepPerimeter;whiteSpace=wrap;html=1;fixedSize=1;labelBackgroundColor=#FFFFFF;sketch=1;hachureGap=4;jiggle=2;curveFitting=1;fontFamily=Times New Roman;fontSize=14;fontColor=#000000;" parent="1" vertex="1">
          <mxGeometry x="10" y="440" width="90" height="20" as="geometry" />
        </mxCell>
        <mxCell id="cGaAS2s18wIV29cbeUMV-10" value="" style="rounded=1;absoluteArcSize=1;html=1;arcSize=10;labelBackgroundColor=#FFFFFF;sketch=1;hachureGap=4;jiggle=2;curveFitting=1;fontFamily=Times New Roman;fontSize=14;fontColor=#000000;" parent="1" vertex="1">
          <mxGeometry x="410" y="340" width="110" height="100" as="geometry" />
        </mxCell>
        <mxCell id="cGaAS2s18wIV29cbeUMV-11" value="推理" style="html=1;shape=mxgraph.er.anchor;whiteSpace=wrap;labelBackgroundColor=#FFFFFF;sketch=1;hachureGap=4;jiggle=2;curveFitting=1;fontFamily=Times New Roman;fontSize=14;fontColor=#000000;" parent="cGaAS2s18wIV29cbeUMV-10" vertex="1">
          <mxGeometry width="55" height="100" as="geometry" />
        </mxCell>
        <mxCell id="cGaAS2s18wIV29cbeUMV-12" value="ASIC&lt;br&gt;GPU&lt;br&gt;..." style="rounded=1;absoluteArcSize=1;html=1;arcSize=10;whiteSpace=wrap;points=[];strokeColor=inherit;fillColor=inherit;labelBackgroundColor=#FFFFFF;sketch=1;hachureGap=4;jiggle=2;curveFitting=1;fontFamily=Times New Roman;fontSize=14;fontColor=#000000;" parent="cGaAS2s18wIV29cbeUMV-10" vertex="1">
          <mxGeometry x="55" y="5" width="49.50000000000001" height="90" as="geometry" />
        </mxCell>
        <mxCell id="cGaAS2s18wIV29cbeUMV-33" value="" style="rounded=1;absoluteArcSize=1;html=1;arcSize=10;labelBackgroundColor=#FFFFFF;sketch=1;hachureGap=4;jiggle=2;curveFitting=1;fontFamily=Times New Roman;fontSize=14;fontColor=#000000;" parent="1" vertex="1">
          <mxGeometry x="410" y="230" width="110" height="100" as="geometry" />
        </mxCell>
        <mxCell id="cGaAS2s18wIV29cbeUMV-34" value="推理" style="html=1;shape=mxgraph.er.anchor;whiteSpace=wrap;labelBackgroundColor=#FFFFFF;sketch=1;hachureGap=4;jiggle=2;curveFitting=1;fontFamily=Times New Roman;fontSize=14;fontColor=#000000;" parent="cGaAS2s18wIV29cbeUMV-33" vertex="1">
          <mxGeometry width="55" height="100" as="geometry" />
        </mxCell>
        <mxCell id="cGaAS2s18wIV29cbeUMV-35" value="ASIC&lt;br&gt;GPU&lt;br&gt;..." style="rounded=1;absoluteArcSize=1;html=1;arcSize=10;whiteSpace=wrap;points=[];strokeColor=inherit;fillColor=inherit;labelBackgroundColor=#FFFFFF;sketch=1;hachureGap=4;jiggle=2;curveFitting=1;fontFamily=Times New Roman;fontSize=14;fontColor=#000000;" parent="cGaAS2s18wIV29cbeUMV-33" vertex="1">
          <mxGeometry x="55" y="5" width="49.50000000000001" height="90" as="geometry" />
        </mxCell>
        <mxCell id="cGaAS2s18wIV29cbeUMV-51" value="前处理workflow" style="swimlane;startSize=20;horizontal=1;childLayout=flowLayout;flowOrientation=north;resizable=0;interRankCellSpacing=50;containerType=tree;fontSize=12;labelBackgroundColor=#FFFFFF;sketch=1;hachureGap=4;jiggle=2;curveFitting=1;fontFamily=Times New Roman;fontColor=#000000;" parent="1" vertex="1">
          <mxGeometry x="110" y="230" width="270" height="280" as="geometry" />
        </mxCell>
        <mxCell id="cGaAS2s18wIV29cbeUMV-52" value="Start" style="whiteSpace=wrap;html=1;labelBackgroundColor=#FFFFFF;sketch=1;hachureGap=4;jiggle=2;curveFitting=1;fontFamily=Times New Roman;fontSize=14;fontColor=#000000;" parent="cGaAS2s18wIV29cbeUMV-51" vertex="1">
          <mxGeometry x="85" y="40" width="100" height="40" as="geometry" />
        </mxCell>
        <mxCell id="cGaAS2s18wIV29cbeUMV-53" value="Task" style="whiteSpace=wrap;html=1;labelBackgroundColor=#FFFFFF;sketch=1;hachureGap=4;jiggle=2;curveFitting=1;fontFamily=Times New Roman;fontSize=14;fontColor=#000000;" parent="cGaAS2s18wIV29cbeUMV-51" vertex="1">
          <mxGeometry x="20" y="130" width="100" height="40" as="geometry" />
        </mxCell>
        <mxCell id="cGaAS2s18wIV29cbeUMV-54" value="" style="html=1;rounded=1;curved=0;sourcePerimeterSpacing=0;targetPerimeterSpacing=0;startSize=6;endSize=6;labelBackgroundColor=#FF0000;sketch=1;hachureGap=4;jiggle=2;curveFitting=1;fontFamily=Times New Roman;fontSize=14;fontColor=#000000;noEdgeStyle=1;orthogonal=1;" parent="cGaAS2s18wIV29cbeUMV-51" source="cGaAS2s18wIV29cbeUMV-52" target="cGaAS2s18wIV29cbeUMV-53" edge="1">
          <mxGeometry relative="1" as="geometry">
            <Array as="points">
              <mxPoint x="112.5" y="92" />
              <mxPoint x="70" y="118" />
            </Array>
          </mxGeometry>
        </mxCell>
        <mxCell id="cGaAS2s18wIV29cbeUMV-55" value="Task" style="whiteSpace=wrap;html=1;labelBackgroundColor=#FFFFFF;sketch=1;hachureGap=4;jiggle=2;curveFitting=1;fontFamily=Times New Roman;fontSize=14;fontColor=#000000;" parent="cGaAS2s18wIV29cbeUMV-51" vertex="1">
          <mxGeometry x="150" y="130" width="100" height="40" as="geometry" />
        </mxCell>
        <mxCell id="cGaAS2s18wIV29cbeUMV-56" value="" style="html=1;rounded=1;curved=0;sourcePerimeterSpacing=0;targetPerimeterSpacing=0;startSize=6;endSize=6;labelBackgroundColor=#FF0000;sketch=1;hachureGap=4;jiggle=2;curveFitting=1;fontFamily=Times New Roman;fontSize=14;fontColor=#000000;noEdgeStyle=1;orthogonal=1;" parent="cGaAS2s18wIV29cbeUMV-51" source="cGaAS2s18wIV29cbeUMV-52" target="cGaAS2s18wIV29cbeUMV-55" edge="1">
          <mxGeometry relative="1" as="geometry">
            <Array as="points">
              <mxPoint x="157.5" y="92" />
              <mxPoint x="200" y="118" />
            </Array>
          </mxGeometry>
        </mxCell>
        <mxCell id="cGaAS2s18wIV29cbeUMV-57" value="End" style="whiteSpace=wrap;html=1;labelBackgroundColor=#FFFFFF;sketch=1;hachureGap=4;jiggle=2;curveFitting=1;fontFamily=Times New Roman;fontSize=14;fontColor=#000000;" parent="cGaAS2s18wIV29cbeUMV-51" vertex="1">
          <mxGeometry x="85" y="220" width="100" height="40" as="geometry" />
        </mxCell>
        <mxCell id="cGaAS2s18wIV29cbeUMV-58" value="" style="html=1;rounded=1;curved=0;sourcePerimeterSpacing=0;targetPerimeterSpacing=0;startSize=6;endSize=6;labelBackgroundColor=#FF0000;sketch=1;hachureGap=4;jiggle=2;curveFitting=1;fontFamily=Times New Roman;fontSize=14;fontColor=#000000;noEdgeStyle=1;orthogonal=1;" parent="cGaAS2s18wIV29cbeUMV-51" source="cGaAS2s18wIV29cbeUMV-53" target="cGaAS2s18wIV29cbeUMV-57" edge="1">
          <mxGeometry relative="1" as="geometry">
            <Array as="points">
              <mxPoint x="70" y="182" />
              <mxPoint x="112.5" y="208" />
            </Array>
          </mxGeometry>
        </mxCell>
        <mxCell id="cGaAS2s18wIV29cbeUMV-59" value="" style="html=1;rounded=1;curved=0;sourcePerimeterSpacing=0;targetPerimeterSpacing=0;startSize=6;endSize=6;labelBackgroundColor=#FF0000;sketch=1;hachureGap=4;jiggle=2;curveFitting=1;fontFamily=Times New Roman;fontSize=14;fontColor=#000000;noEdgeStyle=1;orthogonal=1;" parent="cGaAS2s18wIV29cbeUMV-51" source="cGaAS2s18wIV29cbeUMV-55" target="cGaAS2s18wIV29cbeUMV-57" edge="1">
          <mxGeometry relative="1" as="geometry">
            <Array as="points">
              <mxPoint x="200" y="182" />
              <mxPoint x="157.5" y="208" />
            </Array>
          </mxGeometry>
        </mxCell>
        <mxCell id="cGaAS2s18wIV29cbeUMV-72" value="前处理workflow" style="swimlane;startSize=20;horizontal=1;childLayout=flowLayout;flowOrientation=north;resizable=0;interRankCellSpacing=50;containerType=tree;fontSize=12;labelBackgroundColor=#FFFFFF;sketch=1;hachureGap=4;jiggle=2;curveFitting=1;fontFamily=Times New Roman;fontColor=#000000;" parent="1" vertex="1">
          <mxGeometry x="550" y="230" width="270" height="280" as="geometry" />
        </mxCell>
        <mxCell id="cGaAS2s18wIV29cbeUMV-73" value="Start" style="whiteSpace=wrap;html=1;labelBackgroundColor=#FFFFFF;sketch=1;hachureGap=4;jiggle=2;curveFitting=1;fontFamily=Times New Roman;fontSize=14;fontColor=#000000;" parent="cGaAS2s18wIV29cbeUMV-72" vertex="1">
          <mxGeometry x="85" y="40" width="100" height="40" as="geometry" />
        </mxCell>
        <mxCell id="cGaAS2s18wIV29cbeUMV-74" value="Task" style="whiteSpace=wrap;html=1;labelBackgroundColor=#FFFFFF;sketch=1;hachureGap=4;jiggle=2;curveFitting=1;fontFamily=Times New Roman;fontSize=14;fontColor=#000000;" parent="cGaAS2s18wIV29cbeUMV-72" vertex="1">
          <mxGeometry x="20" y="130" width="100" height="40" as="geometry" />
        </mxCell>
        <mxCell id="cGaAS2s18wIV29cbeUMV-75" value="" style="html=1;rounded=1;curved=0;sourcePerimeterSpacing=0;targetPerimeterSpacing=0;startSize=6;endSize=6;labelBackgroundColor=#FF0000;sketch=1;hachureGap=4;jiggle=2;curveFitting=1;fontFamily=Times New Roman;fontSize=14;fontColor=#000000;noEdgeStyle=1;orthogonal=1;" parent="cGaAS2s18wIV29cbeUMV-72" source="cGaAS2s18wIV29cbeUMV-73" target="cGaAS2s18wIV29cbeUMV-74" edge="1">
          <mxGeometry relative="1" as="geometry">
            <Array as="points">
              <mxPoint x="112.5" y="92" />
              <mxPoint x="70" y="118" />
            </Array>
          </mxGeometry>
        </mxCell>
        <mxCell id="cGaAS2s18wIV29cbeUMV-76" value="Task" style="whiteSpace=wrap;html=1;labelBackgroundColor=#FFFFFF;sketch=1;hachureGap=4;jiggle=2;curveFitting=1;fontFamily=Times New Roman;fontSize=14;fontColor=#000000;" parent="cGaAS2s18wIV29cbeUMV-72" vertex="1">
          <mxGeometry x="150" y="130" width="100" height="40" as="geometry" />
        </mxCell>
        <mxCell id="cGaAS2s18wIV29cbeUMV-77" value="" style="html=1;rounded=1;curved=0;sourcePerimeterSpacing=0;targetPerimeterSpacing=0;startSize=6;endSize=6;labelBackgroundColor=#FF0000;sketch=1;hachureGap=4;jiggle=2;curveFitting=1;fontFamily=Times New Roman;fontSize=14;fontColor=#000000;noEdgeStyle=1;orthogonal=1;" parent="cGaAS2s18wIV29cbeUMV-72" source="cGaAS2s18wIV29cbeUMV-73" target="cGaAS2s18wIV29cbeUMV-76" edge="1">
          <mxGeometry relative="1" as="geometry">
            <Array as="points">
              <mxPoint x="157.5" y="92" />
              <mxPoint x="200" y="118" />
            </Array>
          </mxGeometry>
        </mxCell>
        <mxCell id="cGaAS2s18wIV29cbeUMV-78" value="End" style="whiteSpace=wrap;html=1;labelBackgroundColor=#FFFFFF;sketch=1;hachureGap=4;jiggle=2;curveFitting=1;fontFamily=Times New Roman;fontSize=14;fontColor=#000000;" parent="cGaAS2s18wIV29cbeUMV-72" vertex="1">
          <mxGeometry x="85" y="220" width="100" height="40" as="geometry" />
        </mxCell>
        <mxCell id="cGaAS2s18wIV29cbeUMV-79" value="" style="html=1;rounded=1;curved=0;sourcePerimeterSpacing=0;targetPerimeterSpacing=0;startSize=6;endSize=6;labelBackgroundColor=#FF0000;sketch=1;hachureGap=4;jiggle=2;curveFitting=1;fontFamily=Times New Roman;fontSize=14;fontColor=#000000;noEdgeStyle=1;orthogonal=1;" parent="cGaAS2s18wIV29cbeUMV-72" source="cGaAS2s18wIV29cbeUMV-74" target="cGaAS2s18wIV29cbeUMV-78" edge="1">
          <mxGeometry relative="1" as="geometry">
            <Array as="points">
              <mxPoint x="70" y="182" />
              <mxPoint x="112.5" y="208" />
            </Array>
          </mxGeometry>
        </mxCell>
        <mxCell id="cGaAS2s18wIV29cbeUMV-80" value="" style="html=1;rounded=1;curved=0;sourcePerimeterSpacing=0;targetPerimeterSpacing=0;startSize=6;endSize=6;labelBackgroundColor=#FF0000;sketch=1;hachureGap=4;jiggle=2;curveFitting=1;fontFamily=Times New Roman;fontSize=14;fontColor=#000000;noEdgeStyle=1;orthogonal=1;" parent="cGaAS2s18wIV29cbeUMV-72" source="cGaAS2s18wIV29cbeUMV-76" target="cGaAS2s18wIV29cbeUMV-78" edge="1">
          <mxGeometry relative="1" as="geometry">
            <Array as="points">
              <mxPoint x="200" y="182" />
              <mxPoint x="157.5" y="208" />
            </Array>
          </mxGeometry>
        </mxCell>
      </root>
    </mxGraphModel>
  </diagram>
  <diagram id="IQy3g50rDpKt2Wy9wqvq" name="Page-13">
    <mxGraphModel dx="1360" dy="761" grid="1" gridSize="10" guides="1" tooltips="1" connect="1" arrows="1" fold="1" page="1" pageScale="1" pageWidth="850" pageHeight="1100" math="0" shadow="0">
      <root>
        <mxCell id="0" />
        <mxCell id="1" parent="0" />
        <mxCell id="VFLDjKSn-POZ0U32Pw8h-1" value="" style="shape=image;html=1;verticalAlign=top;verticalLabelPosition=bottom;labelBackgroundColor=#ffffff;imageAspect=0;aspect=fixed;image=https://cdn4.iconfinder.com/data/icons/ionicons/512/icon-image-128.png;sketch=1;hachureGap=4;jiggle=2;curveFitting=1;fontFamily=Times New Roman;fontSize=14;fontColor=#FF0000;" parent="1" vertex="1">
          <mxGeometry x="80" y="420" width="60" height="60" as="geometry" />
        </mxCell>
        <mxCell id="VFLDjKSn-POZ0U32Pw8h-10" value="" style="image;html=1;image=img/lib/clip_art/networking/Ip_Camera_128x128.png;labelBackgroundColor=#FFFFFF;sketch=1;hachureGap=4;jiggle=2;curveFitting=1;fontFamily=Times New Roman;fontSize=14;fontColor=#000000;" parent="1" vertex="1">
          <mxGeometry x="70" y="260" width="80" height="80" as="geometry" />
        </mxCell>
        <mxCell id="VFLDjKSn-POZ0U32Pw8h-53" value="深度学习模型推理" style="shape=process;whiteSpace=wrap;html=1;backgroundOutline=1;labelBackgroundColor=#FFFFFF;sketch=1;hachureGap=4;jiggle=2;curveFitting=1;fontFamily=Times New Roman;fontSize=14;fontColor=#000000;" parent="1" vertex="1">
          <mxGeometry x="420" y="267.5" width="150" height="65" as="geometry" />
        </mxCell>
        <mxCell id="VFLDjKSn-POZ0U32Pw8h-56" value="Process Bar" style="swimlane;childLayout=stackLayout;horizontal=1;fillColor=none;horizontalStack=1;resizeParent=1;resizeParentMax=0;resizeLast=0;collapsible=0;strokeColor=none;stackBorder=10;stackSpacing=-12;resizable=1;align=center;points=[];whiteSpace=wrap;html=1;labelBackgroundColor=#FFFFFF;sketch=1;hachureGap=4;jiggle=2;curveFitting=1;fontFamily=Times New Roman;fontSize=14;fontColor=#000000;" parent="1" vertex="1">
          <mxGeometry x="160" y="390" width="296" height="100" as="geometry" />
        </mxCell>
        <mxCell id="VFLDjKSn-POZ0U32Pw8h-57" value="Decode" style="shape=step;perimeter=stepPerimeter;fixedSize=1;points=[];whiteSpace=wrap;html=1;labelBackgroundColor=#FFFFFF;sketch=1;hachureGap=4;jiggle=2;curveFitting=1;fontFamily=Times New Roman;fontSize=14;fontColor=#000000;" parent="VFLDjKSn-POZ0U32Pw8h-56" vertex="1">
          <mxGeometry x="10" y="33" width="100" height="57" as="geometry" />
        </mxCell>
        <mxCell id="VFLDjKSn-POZ0U32Pw8h-58" value="Padding" style="shape=step;perimeter=stepPerimeter;fixedSize=1;points=[];whiteSpace=wrap;html=1;labelBackgroundColor=#FFFFFF;sketch=1;hachureGap=4;jiggle=2;curveFitting=1;fontFamily=Times New Roman;fontSize=14;fontColor=#000000;" parent="VFLDjKSn-POZ0U32Pw8h-56" vertex="1">
          <mxGeometry x="98" y="33" width="100" height="57" as="geometry" />
        </mxCell>
        <mxCell id="VFLDjKSn-POZ0U32Pw8h-59" value="Step 3" style="shape=step;perimeter=stepPerimeter;fixedSize=1;points=[];whiteSpace=wrap;html=1;labelBackgroundColor=#FFFFFF;sketch=1;hachureGap=4;jiggle=2;curveFitting=1;fontFamily=Times New Roman;fontSize=14;fontColor=#000000;" parent="VFLDjKSn-POZ0U32Pw8h-56" vertex="1">
          <mxGeometry x="186" y="33" width="100" height="57" as="geometry" />
        </mxCell>
      </root>
    </mxGraphModel>
  </diagram>
</mxfile>
